<svg xmlns="http://www.w3.org/2000/svg" version="1.1" xmlns:xlink="http://www.w3.org/1999/xlink" width="512" height="512" x="0" y="0" viewBox="0 0 32 32" style="enable-background:new 0 0 512 512" xml:space="preserve"><g><path d="M28.53 13.258 6.56.37a3.155 3.155 0 0 0-3.152.108 3.158 3.158 0 0 0-1.508 2.704v25.636c0 1.11.564 2.12 1.507 2.703.923.57 2.191.592 3.153.109L28.53 18.742c.984-.576 1.572-1.601 1.572-2.742s-.588-2.166-1.572-2.742zm-1.011 3.76L5.606 29.873a1.16 1.16 0 0 1-1.148-.052 1.159 1.159 0 0 1-.559-1.003V3.182c0-.417.205-.784.559-1.003a1.202 1.202 0 0 1 1.122-.065L27.52 14.982c.525.309.583.815.583 1.018s-.058.709-.583 1.018z" fill="#ffffff" opacity="1" data-original="#000000"></path></g></svg>