<svg height="464pt" viewBox="0 -11 464 463" width="464pt" xmlns="http://www.w3.org/2000/svg"><path d="m464 248.5v160c0 17.671875-14.328125 32-32 32h-288c-17.671875 0-32-14.328125-32-32v-192h320c17.671875 0 32 14.328125 32 32zm0 0" fill="#5aaae7"/><path d="m224 136.5v176c-.027344 8.824219-7.175781 15.972656-16 16h-192c-8.824219-.027344-15.9726562-7.175781-16-16v-176zm0 0" fill="#ffa733"/><path d="m392 344.5c11.457031.003906 21.3125 8.105469 23.535156 19.34375s-3.808594 22.484375-14.402344 26.847656c-10.59375 4.363282-22.792968.632813-29.132812-8.910156 5.332031-8.050781 5.332031-18.511719 0-26.5625 4.4375-6.710938 11.953125-10.742188 20-10.71875zm0 0" fill="#ff9811"/><path d="m372 355.21875c5.332031 8.050781 5.332031 18.511719 0 26.5625-5.855469 8.8125-16.796875 12.753906-26.925781 9.695312-10.132813-3.058593-17.066407-12.394531-17.066407-22.976562s6.933594-19.917969 17.066407-22.976562c10.128906-3.058594 21.070312.882812 26.925781 9.695312zm0 0" fill="#ff6243"/><path d="m127.601562 221.058594c-1.804687-8.195313-9.636718-13.601563-17.9375-12.390625-8.304687 1.210937-14.261718 8.632812-13.648437 17.003906.617187 8.371094 7.59375 14.839844 15.984375 14.828125.347656.011719.699219-.011719 1.039062-.078125 8.410157-.523437 14.964844-7.496094 14.960938-15.921875-.011719-1.15625-.144531-2.3125-.398438-3.441406zm0 0" fill="#57565c"/><g fill="#1a6fb0"><path d="m408 264.5h16v32h-16zm0 0"/><path d="m376 264.5h16v32h-16zm0 0"/><path d="m344 264.5h16v32h-16zm0 0"/><path d="m312 264.5h16v32h-16zm0 0"/><path d="m152 352.5h16v16h-16zm0 0"/><path d="m184 352.5h16v16h-16zm0 0"/><path d="m216 352.5h16v16h-16zm0 0"/><path d="m248 352.5h16v16h-16zm0 0"/><path d="m152 384.5h112v16h-112zm0 0"/></g><path d="m208 136.5h-16v-64c-.035156-30.914062-25.085938-55.964844-56-56h-48c-30.914062.035156-55.964844 25.085938-56 56v64h-16v-64c.046875-39.746094 32.253906-71.953125 72-72h48c39.746094.046875 71.953125 32.253906 72 72zm0 0" fill="#898890"/><path d="m136 224.5c.050781-12.21875-9.085938-22.523438-21.222656-23.9375-12.132813-1.414062-23.394532 6.511719-26.15625 18.414062-2.761719 11.902344 3.859375 23.980469 15.378906 28.050782v33.472656h16v-33.472656c9.554688-3.378906 15.957031-12.394532 16-22.527344zm-24 8c-4.417969 0-8-3.582031-8-8s3.582031-8 8-8 8 3.582031 8 8-3.582031 8-8 8zm0 0" fill="#898890"/><path d="m392 192.5h-16v-120h-152v-16h160c4.417969 0 8 3.582031 8 8zm0 0" fill="#ff9811"/><path d="m88 424.5h-56c-4.417969 0-8-3.582031-8-8v-64h16v56h48zm0 0" fill="#ff9811"/><path d="m408 176.5h16v16h-16zm0 0" fill="#ee8700"/><path d="m408 144.5h16v16h-16zm0 0" fill="#ee8700"/><path d="m408 112.5h16v16h-16zm0 0" fill="#ee8700"/></svg>