<?xml version="1.0" encoding="utf-8"?>
<!-- Generator: Adobe Illustrator 16.0.0, SVG Export Plug-In . SVG Version: 6.00 Build 0)  -->
<!DOCTYPE svg PUBLIC "-//W3C//DTD SVG 1.1//EN" "http://www.w3.org/Graphics/SVG/1.1/DTD/svg11.dtd">
<svg version="1.1" id="Layer_1" xmlns="http://www.w3.org/2000/svg" xmlns:xlink="http://www.w3.org/1999/xlink" x="0px" y="0px"
	 width="620.667px" height="480.666px" viewBox="0 0 620.667 480.666" enable-background="new 0 0 620.667 480.666"
	 xml:space="preserve">
<g id="OBJECTS">
	<path opacity="0.19" fill="#29235C" enable-background="new    " d="M561.642,112.712c-3.133-22.63-24.018-38.436-46.646-35.303
		c-2.344,0.324-4.609,0.849-6.793,1.537c-7.084,1.266-86.582,27.568-121.404-14.932c-17.133-20.038-43.783-31.213-71.836-27.331
		c-24.676,3.416-45.155,17.745-57.245,37.438l-26.784,38.336c-12.545,18.749-30.538,33.2-51.552,41.405l-61.686,24.088
		c-4.131,1.352-8.147,2.928-12.043,4.703l-0.148,0.058l0.002,0.008c-45.935,20.994-74.71,70.261-67.43,122.856
		c8.89,64.216,68.152,109.064,132.368,100.178c6.383-0.884,12.57-2.271,18.536-4.106l62.995-13.958
		c34.5-7.644,70.579,1.713,97.026,25.148c7.094,6.288,15.588,15.498,16.752,17.313c0.01,0.014,0.059,0.01,0.08,0.016
		c21.213,26.396,55.352,41.313,91.334,36.332c54.477-7.541,92.523-57.815,84.982-112.292
		c-0.104-0.742-19.262-109.309-19.262-109.309c-0.027-0.158-0.055-0.315-0.08-0.475c-4.32-25.954,0.994-52.598,14.719-75.046
		l17.607-28.141C560.515,133.13,563.082,123.108,561.642,112.712z"/>
	<g>
		<g>
			<path fill="#65258A" d="M69.354,324.166c-1.98,21.024,13.459,39.674,34.484,41.653c2.177,0.205,4.326,0.214,6.437,0.059
				c6.642,0.361,83.746-6.443,106.063,39.177c11.166,21.661,32.773,37.367,58.837,39.822c22.926,2.159,44.389-6.391,59.444-21.546
				l32.227-28.813c15.264-14.207,34.516-23.395,55.162-26.322l60.607-8.592c4.004-0.34,7.949-0.906,11.832-1.678l0.146-0.021
				l-0.002-0.008c45.781-9.148,82.117-47.373,86.719-96.237c5.619-59.661-38.189-112.58-97.852-118.198
				c-5.93-0.559-11.791-0.621-17.547-0.236l-59.639-0.8c-32.66-0.439-63.139-16.506-81.965-43.201
				c-5.049-7.162-10.738-17.249-11.4-19.129c-0.004-0.014-0.049-0.021-0.068-0.032c-13.488-28.246-41.041-48.906-74.47-52.055
				c-50.612-4.767-95.505,32.398-100.271,83.01c-0.065,0.69-5.848,102.432-5.848,102.432c-0.01,0.147-0.02,0.295-0.029,0.443
				c-1.615,24.268-12.048,47.112-29.155,64.4l-21.81,21.586C74.697,306.034,70.263,314.508,69.354,324.166z"/>
		</g>
	</g>
	
		<path fill="none" stroke="#65258A" stroke-width="8" stroke-linecap="round" stroke-miterlimit="10" stroke-dasharray="300,200" d="
		M47.8,330.851c-2.144,22.764,14.572,42.953,37.335,45.099c2.357,0.222,4.684,0.231,6.969,0.063
		c7.191,0.391,90.671-6.979,114.835,42.415c12.089,23.452,35.482,40.457,63.701,43.115c24.822,2.337,48.063-6.919,64.359-23.326
		l34.893-31.195c16.523-15.384,37.369-25.329,59.723-28.499l65.621-9.304c4.334-0.366,8.607-0.981,12.811-1.813l0.158-0.023v-0.009
		c49.564-9.904,88.906-51.289,93.889-104.196c6.082-64.594-41.35-121.889-105.943-127.972c-6.42-0.605-12.766-0.672-18.998-0.255
		l-64.568-0.867c-35.361-0.475-68.359-17.871-88.742-46.772c-5.469-7.754-11.629-18.675-12.344-20.71
		c-0.006-0.016-0.053-0.022-0.074-0.035c-14.604-30.581-44.435-52.951-80.629-56.359c-54.797-5.16-103.402,35.078-108.563,89.875
		c-0.071,0.748-6.331,110.902-6.331,110.902c-0.011,0.16-0.021,0.32-0.032,0.48c-1.748,26.274-13.044,51.007-31.566,69.725
		L60.688,304.56C53.584,311.22,48.785,320.394,47.8,330.851z"/>
	<g>
		<g>
			<path fill="#E80566" d="M95.848,383.491c3.046,20.896,22.456,35.367,43.353,32.321c2.165-0.315,4.254-0.815,6.269-1.467
				c6.54-1.217,79.849-26.058,112.319,12.993c15.97,18.408,40.677,28.563,66.582,24.785c22.787-3.321,41.621-16.702,52.666-34.986
				l24.502-35.613c11.473-17.414,28.008-30.893,47.377-38.616l56.859-22.677c3.809-1.276,7.51-2.76,11.1-4.426l0.137-0.055
				l-0.002-0.009c42.318-19.71,68.59-65.442,61.51-114.01c-8.645-59.298-63.721-100.36-123.02-91.716
				c-5.895,0.859-11.604,2.184-17.105,3.919l-58.137,13.32c-31.84,7.295-65.252-1.113-89.852-22.6
				c-6.6-5.764-14.513-14.221-15.601-15.891c-0.009-0.013-0.052-0.009-0.075-0.014c-19.784-24.257-51.439-37.819-84.666-32.976
				c-50.304,7.333-85.139,54.058-77.805,104.362c0.1,0.687,18.532,100.91,18.532,100.91c0.026,0.146,0.051,0.292,0.077,0.438
				c4.168,23.961-0.569,48.625-13.104,69.468l-16.09,26.129C96.753,364.61,94.449,373.892,95.848,383.491z"/>
		</g>
	</g>
	<g>
		<g>
			<g>
				<g>
					<path opacity="0.96" fill="#FCEA10" enable-background="new    " d="M541.52,401.944l44.994,10.467l2.529,22.838
						C589.043,435.249,540.784,401.812,541.52,401.944z"/>
				</g>
				<g>
					<path opacity="0.96" fill="#FCEA10" enable-background="new    " d="M535.047,404.381l21.766,40.75l-15.518,16.947
						C541.295,462.078,534.663,403.739,535.047,404.381z"/>
				</g>
				<g>
					<path opacity="0.96" fill="#FCEA10" enable-background="new    " d="M536.022,388.396l23.615-9.73l8.469,9.469
						C568.106,388.133,535.647,388.569,536.022,388.396z"/>
				</g>
			</g>
		</g>
	</g>
	<g>
		<path fill="#FFF601" d="M524.41,174.151c0.117-2.104,1.156-3.459,3.262-3.756c1.936-0.274,3.891,1.458,3.844,3.41
			c-0.053,2.124-1.248,3.503-3.363,3.609C526.033,177.521,524.81,176.234,524.41,174.151z"/>
		<path fill="#FFF601" d="M536.488,91.71c2.139,0.118,3.549,1.142,3.727,3.285c0.178,2.138-0.994,3.478-3.105,3.806
			c-2.01,0.312-3.813-1.28-3.855-3.338C533.208,93.266,534.498,92.166,536.488,91.71z"/>
		<path fill="#FFF601" d="M556.361,106.941c0.068,2.235-1.014,3.546-3.082,3.929c-1.951,0.361-3.875-1.261-3.92-3.277
			c-0.049-2.141,1.074-3.56,3.197-3.723C554.654,103.709,555.96,104.897,556.361,106.941z"/>
		<path fill="#FFF601" d="M474.818,136.675c0.01-1.836,0.961-3.298,3.145-3.537c2.168-0.237,3.594,0.888,3.836,3.058
			c0.242,2.174-0.938,3.514-3.066,3.871C476.833,140.386,475.064,138.914,474.818,136.675z"/>
		<path fill="#FFF601" d="M465.792,124.292c-0.125,2.106-1.121,3.551-3.316,3.692c-2.182,0.14-3.539-1.09-3.697-3.247
			c-0.16-2.177,1.049-3.541,3.225-3.696C464.199,120.886,465.392,122.16,465.792,124.292z"/>
		<path fill="#FFF601" d="M543.681,182.429c2.088,0.045,3.551,0.927,3.83,3.112c0.279,2.176-0.854,3.512-2.922,3.946
			c-1.959,0.411-3.914-1.15-4.021-3.17C540.451,184.154,541.626,182.93,543.681,182.429z"/>
		<path fill="#FFF601" d="M505.082,97.06c2.291,0.17,3.73,1.216,3.82,3.389c0.092,2.139-1.109,3.529-3.309,3.634
			c-2.186,0.104-3.504-1.107-3.633-3.287C501.828,98.57,503.208,97.493,505.082,97.06z"/>
		<path fill="#FFF601" d="M497.697,176.773c2.068,0.11,3.547,0.995,3.756,3.2c0.207,2.162-0.871,3.495-3.023,3.811
			c-2.094,0.308-3.902-1.141-3.951-3.205C494.429,178.431,495.662,177.232,497.697,176.773z"/>
		<path fill="#FFF601" d="M431.892,127.369c2.146,0.104,3.627,1.008,3.83,3.23c0.199,2.192-0.916,3.538-3.111,3.774
			c-2.246,0.243-3.557-1.017-3.809-3.105C428.537,129.077,429.896,127.895,431.892,127.369z"/>
		<path fill="#FFF601" d="M555.007,141.456c-1.813-0.039-3.166-1.033-3.408-3.235c-0.213-1.916,1.316-3.791,3.178-3.813
			c2.143-0.025,3.504,1.13,3.822,3.244C558.878,139.516,557.289,141.258,555.007,141.456z"/>
		<path fill="#FFF601" d="M503.185,66.525c1.768,0,3.18,0.873,3.482,3.075c0.289,2.107-1.119,3.862-3.213,3.942
			c-2.176,0.082-3.445-1.129-3.775-3.19C499.386,68.513,500.951,66.757,503.185,66.525z"/>
		<path fill="#FFF601" d="M572.402,119.159c0.166,1.962-1.256,3.678-3.174,3.831c-1.875,0.15-3.697-1.383-3.854-3.24
			c-0.156-1.855,1.385-3.669,3.26-3.841C570.541,115.734,572.238,117.199,572.402,119.159z"/>
		<path fill="#FFF601" d="M446.14,108.907c1.852-0.013,3.174,1.115,3.539,3.19c0.332,1.867-1.234,3.699-3.188,3.81
			c-2.17,0.124-3.525-0.925-3.791-3.135C442.458,110.745,443.802,109.13,446.14,108.907z"/>
		<path fill="#FFF601" d="M511.884,165.397c-1.822-0.13-3.295-1.054-3.463-3.283c-0.17-2.214,1.063-3.585,3.182-3.779
			c2.174-0.199,3.475,1.139,3.814,3.222C515.71,163.36,514.025,165.225,511.884,165.397z"/>
		<path fill="#FFF601" d="M485.451,167.975c0.16,1.916-1.307,3.599-3.27,3.752c-1.957,0.154-3.68-1.288-3.814-3.194
			c-0.135-1.876,1.408-3.693,3.262-3.84C483.482,164.545,485.294,166.102,485.451,167.975z"/>
		<path fill="#FFF601" d="M544.667,155.806c0.041,2.435-0.924,3.843-3.127,4.077c-2.197,0.232-3.602-0.911-3.836-3.063
			c-0.234-2.161,0.924-3.566,3.098-3.819C543.013,152.744,544.185,154.02,544.667,155.806z"/>
		<path fill="#FFF601" d="M515.828,82.462c-0.027-2.107,0.898-3.546,3.107-3.791c2.217-0.246,3.561,0.938,3.799,3.083
			c0.24,2.156-0.863,3.617-3.047,3.835C517.544,85.803,516.212,84.677,515.828,82.462z"/>
		<path fill="#FFF601" d="M505.458,132.439c0.125-2.16,1.207-3.447,3.391-3.618c1.943-0.152,3.736,1.412,3.68,3.302
			c-0.063,2.113-1.18,3.522-3.381,3.619C506.951,135.838,505.785,134.563,505.458,132.439z"/>
		<path fill="#FFF601" d="M464.31,151.539c2.127,0.121,3.502,1.166,3.602,3.371c0.1,2.185-1.08,3.509-3.275,3.639
			c-2.238,0.132-3.486-1.162-3.627-3.294C460.865,153.054,462.162,151.875,464.31,151.539z"/>
		<path fill="#FFF601" d="M475.083,103.585c2.135-0.062,3.594,0.884,3.814,3.075c0.215,2.132-0.814,3.535-3.061,3.782
			c-2.23,0.246-3.598-0.852-3.84-2.995C471.755,105.304,472.902,103.98,475.083,103.585z"/>
		<path fill="#FFF601" d="M469.753,76.701c0.02-2.283,1.162-3.614,3.318-3.722c2.17-0.109,3.508,1.139,3.621,3.321
			c0.113,2.197-1.104,3.497-3.289,3.619C471.177,80.045,470.037,78.765,469.753,76.701z"/>
		<path fill="#FFF601" d="M488.875,85.037c2.152-0.129,3.971,1.385,3.951,3.279c-0.021,2.097-1.01,3.577-3.275,3.69
			c-2.205,0.111-3.49-1.052-3.66-3.25C485.714,86.498,487.033,85.406,488.875,85.037z"/>
		<path fill="#FFF601" d="M462.884,94.664c-0.09,2.115-0.955,3.525-3.234,3.708c-2.254,0.181-3.555-0.972-3.756-3.102
			c-0.201-2.161,0.977-3.536,3.158-3.728C461.242,91.35,462.47,92.547,462.884,94.664z"/>
		<path fill="#FFF601" d="M447.009,173.791c0.17-2.142,1.166-3.528,3.395-3.639c2.225-0.111,3.563,1.16,3.674,3.26
			c0.113,2.103-1.051,3.477-3.318,3.591C448.496,177.118,447.414,175.85,447.009,173.791z"/>
		<path fill="#FFF601" d="M517.554,192.745c-0.02,1.721-1.117,3.02-3.309,3.131c-2.23,0.113-3.416-1.153-3.588-3.324
			c-0.156-1.971,1.367-3.744,3.277-3.668C516.013,188.967,517.427,189.969,517.554,192.745z"/>
		<path fill="#FFF601" d="M499.273,149.833c-0.055,1.908-1.105,3.313-3.291,3.426c-2.17,0.113-3.459-1.125-3.662-3.299
			c-0.184-1.958,1.348-3.655,3.264-3.759C497.482,146.099,499.144,147.625,499.273,149.833z"/>
		<path fill="#FFF601" d="M444.919,143.305c-0.006-2.361,1.172-3.678,3.299-3.779c2.131-0.101,3.504,1.087,3.584,3.319
			c0.078,2.187-1.047,3.506-3.262,3.625C446.298,146.589,445.212,145.282,444.919,143.305z"/>
		<path fill="#FFF601" d="M491.578,115.661c1.885-0.006,3.262,0.975,3.406,3.207c0.146,2.204-0.99,3.464-3.199,3.67
			c-2.301,0.214-3.549-1.118-3.715-3.17C487.902,117.28,489.033,115.88,491.578,115.661z"/>
		<path fill="#FFF601" d="M439.753,83.101c0.068-2.237,1.182-3.526,3.357-3.65c2.223-0.126,3.547,1.189,3.652,3.277
			c0.109,2.104-1.084,3.475-3.33,3.588C441.173,86.429,440.089,85.16,439.753,83.101z"/>
		<path fill="#FFF601" d="M521.521,144.589c0.145-2.145,1.178-3.482,3.363-3.692c1.938-0.185,3.732,1.343,3.727,3.253
			c-0.008,2.132-1.102,3.54-3.311,3.669C523.099,147.948,521.927,146.671,521.521,144.589z"/>
		<path fill="#FFF601" d="M519.466,114.252c-0.17-2.468,1.08-3.795,3.141-3.952c2.057-0.155,3.539,0.952,3.697,3.22
			c0.154,2.227-0.979,3.527-3.15,3.718C520.937,117.433,519.744,116.214,519.466,114.252z"/>
		<path fill="#FFF601" d="M433.794,158.109c2.555-0.255,3.801,0.948,4.207,2.994c0.375,1.894-1.105,3.599-3.113,3.798
			c-2.211,0.219-3.602-0.804-3.852-2.987C430.789,159.737,431.953,158.461,433.794,158.109z"/>
		<path fill="#FFF601" d="M553.853,168.99c-0.092-2.424,0.992-3.751,3.168-3.915c2.162-0.163,3.498,0.942,3.682,3.174
			c0.184,2.256-1.031,3.5-3.154,3.711C555.332,172.182,554.162,170.922,553.853,168.99z"/>
		<path fill="#FFF601" d="M535.484,126.264c-0.027-2.404,1.176-3.77,3.26-3.902c2.086-0.131,3.555,1.072,3.664,3.284
			c0.107,2.157-1.039,3.531-3.236,3.684C536.939,129.485,535.82,128.17,535.484,126.264z"/>
		<path fill="#FFF601" d="M483.767,195.331c2.34,0.073,3.66,1.126,3.775,3.334c0.115,2.216-1.082,3.509-3.256,3.617
			c-2.172,0.108-3.441-1.049-3.59-3.278C480.544,196.704,481.902,195.718,483.767,195.331z"/>
		<path fill="#FFF601" d="M570.802,153.521c-1.627-0.084-2.949-1.131-3.148-3.319c-0.178-1.905,1.414-3.759,3.295-3.701
			c1.76,0.055,3.486,0.653,3.316,2.832C574.125,151.165,574.158,153.436,570.802,153.521z"/>
		<path fill="#FFF601" d="M464.542,186.931c0.078-2.164,1.113-3.512,3.324-3.604c2.186-0.091,3.434,1.058,3.564,3.282
			c0.137,2.282-1.123,3.452-3.248,3.593C465.968,190.349,464.824,189.07,464.542,186.931z"/>
		<path fill="#FFF601" d="M433.554,100.438c-0.059,1.916-1.158,3.468-3.285,3.334c-1.176-0.074-2.707-1.133-3.297-2.185
			c-0.662-1.178,2.035-4.749,3.209-4.755C431.931,96.823,433.435,98.328,433.554,100.438z"/>
		<path fill="#FFF601" d="M489.087,55.632c0.311,0.38,1.256,1.045,1.467,1.892c0.482,1.961-1.164,3.862-3.219,3.939
			s-3.301-1.049-3.703-2.983C483.251,56.654,484.171,56.139,489.087,55.632z"/>
		<path fill="#FFF601" d="M553.826,78.397c-1.828,2.261-3.701,2.603-5.49,0.987c-1.789-1.617-1.625-3.54,0.404-5.665
			C550.4,75.246,552.035,76.75,553.826,78.397z"/>
		<path fill="#FFF601" d="M530.218,61.951c2.096,1.049,4.094,2.05,6.197,3.104c-1.406,2.187-3.152,2.561-4.943,1.586
			C529.798,65.73,529.095,64.169,530.218,61.951z"/>
		<path fill="#FFF601" d="M503.666,210.615c-2.383,0.189-4.547,0.361-6.805,0.54c-0.15-2.212,0.896-3.347,2.723-3.642
			C501.687,207.171,503.113,208.093,503.666,210.615z"/>
		<path fill="#FFF601" d="M526.328,204.715c0.773-1.12,1.324-2.771,2.381-3.219c1.197-0.505,2.852,0.07,4.307,0.176
			c0.023,0.378,0.051,0.757,0.076,1.135c-1.939,0.883-3.879,1.765-5.818,2.648C526.958,205.208,526.642,204.961,526.328,204.715z"/>
	</g>
	<g opacity="0.9">
		<circle fill="#FFFFFF" cx="179.895" cy="425.275" r="2.832"/>
		<circle fill="#FFFFFF" cx="171.892" cy="408.418" r="2.832"/>
		<circle fill="#FFFFFF" cx="163.889" cy="391.562" r="2.832"/>
		<circle fill="#FFFFFF" cx="155.886" cy="374.705" r="2.832"/>
		<circle fill="#FFFFFF" cx="147.884" cy="357.847" r="2.832"/>
		<circle fill="#FFFFFF" cx="194.559" cy="418.313" r="2.832"/>
		<circle fill="#FFFFFF" cx="186.556" cy="401.457" r="2.832"/>
		<circle fill="#FFFFFF" cx="178.554" cy="384.601" r="2.832"/>
		<circle fill="#FFFFFF" cx="170.551" cy="367.743" r="2.832"/>
		<circle fill="#FFFFFF" cx="162.548" cy="350.885" r="2.832"/>
		<circle fill="#FFFFFF" cx="209.223" cy="411.352" r="2.832"/>
		<circle fill="#FFFFFF" cx="201.22" cy="394.495" r="2.832"/>
		<circle fill="#FFFFFF" cx="193.218" cy="377.638" r="2.832"/>
		<circle fill="#FFFFFF" cx="185.215" cy="360.781" r="2.832"/>
		<circle fill="#FFFFFF" cx="177.212" cy="343.924" r="2.832"/>
		<circle fill="#FFFFFF" cx="223.887" cy="404.39" r="2.832"/>
		<circle fill="#FFFFFF" cx="215.884" cy="387.533" r="2.832"/>
		<circle fill="#FFFFFF" cx="207.882" cy="370.676" r="2.832"/>
		<circle fill="#FFFFFF" cx="199.879" cy="353.819" r="2.832"/>
		<circle fill="#FFFFFF" cx="191.876" cy="336.962" r="2.832"/>
		<circle fill="#FFFFFF" cx="238.551" cy="397.428" r="2.832"/>
		<circle fill="#FFFFFF" cx="230.549" cy="380.571" r="2.832"/>
		<circle fill="#FFFFFF" cx="222.546" cy="363.714" r="2.832"/>
		<circle fill="#FFFFFF" cx="214.543" cy="346.858" r="2.832"/>
		<circle fill="#FFFFFF" cx="206.54" cy="330" r="2.832"/>
	</g>
	<g>
		<g>
			<circle fill="#E80566" cx="57.514" cy="401.854" r="23.251"/>
		</g>
	</g>
	<g>
		<g>
			<g>
				<g>
					<path opacity="0.96" fill="#FCEA10" enable-background="new    " d="M122.307,89.457l-53.124-21.46l1.283-28.468
						c0,0,14.391,13.712,28.01,26.765C110.923,78.223,122.725,89.602,122.307,89.457z"/>
				</g>
				<g>
					<path opacity="0.96" fill="#FCEA10" enable-background="new    " d="M130.704,87.712l-18.849-54.105l22.263-17.788
						C134.118,15.819,131.053,88.572,130.704,87.712z"/>
				</g>
				<g>
					<path opacity="0.96" fill="#FCEA10" enable-background="new    " d="M126.444,107.114l-30.804,7.391l-8.561-13.228
						C87.079,101.277,126.936,106.969,126.444,107.114z"/>
				</g>
			</g>
		</g>
	</g>
	<g display="none">
		<rect x="282.553" y="319.5" display="inline" fill="#1C1C54" width="101.872" height="24.5"/>
		<g display="inline">
			<text transform="matrix(1 0 0 1 309.0894 337.0059)" fill="#FFFFFF" font-family="'ArialMT'" font-size="15.6669">shop now</text>
		</g>
	</g>
</g>
<g id="BACKGROUND" display="none">
	<rect x="-79" y="-1" display="inline" fill="#0B0930" width="750.667" height="502"/>
</g>
<g id="DESIGNED_BY_FREEPIK">
</g>
</svg>
