<?xml version="1.0" encoding="utf-8"?>
<!-- Generator: Adobe Illustrator 23.0.0, SVG Export Plug-In . SVG Version: 6.00 Build 0)  -->
<svg version="1.1" id="Layer_1" xmlns="http://www.w3.org/2000/svg" xmlns:xlink="http://www.w3.org/1999/xlink" x="0px" y="0px"
	 viewBox="0 0 1920 1000" enable-background="new 0 0 1920 1000" xml:space="preserve">
<g id="XMLID_313_" opacity="0.32">
	<defs>
		<polygon id="XMLID_367_" opacity="0.32" points="1908,-55.1 146.8,-182.1 146.8,948.9 1908,1075.9 		"/>
	</defs>
	<clipPath id="XMLID_2_">
		<use xlink:href="#XMLID_367_"  overflow="visible"/>
	</clipPath>
	<g id="XMLID_368_" opacity="0.11" clip-path="url(#XMLID_2_)">
		<g id="XMLID_513_">
			<path id="XMLID_532_" fill="#A630B0" d="M213.1,1135.8c0-2.1-1.7-3.8-3.8-3.8c-2.1,0-3.8,1.7-3.8,3.8c0,2.1,1.7,3.8,3.8,3.8
				C211.4,1139.6,213.1,1137.9,213.1,1135.8z"/>
			<path id="XMLID_531_" fill="#A630B0" d="M376.4,1135.8c0-2.1-1.7-3.8-3.8-3.8c-2.1,0-3.8,1.7-3.8,3.8c0,2.1,1.7,3.8,3.8,3.8
				C374.7,1139.6,376.4,1137.9,376.4,1135.8z"/>
			<path id="XMLID_530_" fill="#A630B0" d="M539.7,1135.8c0-2.1-1.7-3.8-3.8-3.8c-2.1,0-3.8,1.7-3.8,3.8c0,2.1,1.7,3.8,3.8,3.8
				C537.9,1139.6,539.7,1137.9,539.7,1135.8z"/>
			<path id="XMLID_529_" fill="#A630B0" d="M702.9,1135.8c0-2.1-1.7-3.8-3.8-3.8c-2.1,0-3.8,1.7-3.8,3.8c0,2.1,1.7,3.8,3.8,3.8
				C701.2,1139.6,702.9,1137.9,702.9,1135.8z"/>
			<path id="XMLID_528_" fill="#A630B0" d="M866.2,1135.8c0-2.1-1.7-3.8-3.8-3.8c-2.1,0-3.8,1.7-3.8,3.8c0,2.1,1.7,3.8,3.8,3.8
				C864.5,1139.6,866.2,1137.9,866.2,1135.8z"/>
			<path id="XMLID_527_" fill="#A630B0" d="M1029.5,1135.8c0-2.1-1.7-3.8-3.8-3.8c-2.1,0-3.8,1.7-3.8,3.8c0,2.1,1.7,3.8,3.8,3.8
				C1027.7,1139.6,1029.5,1137.9,1029.5,1135.8z"/>
			<path id="XMLID_526_" fill="#A630B0" d="M1192.7,1135.8c0-2.1-1.7-3.8-3.8-3.8c-2.1,0-3.8,1.7-3.8,3.8c0,2.1,1.7,3.8,3.8,3.8
				C1191,1139.6,1192.7,1137.9,1192.7,1135.8z"/>
			<path id="XMLID_525_" fill="#A630B0" d="M1356,1135.8c0-2.1-1.7-3.8-3.8-3.8c-2.1,0-3.8,1.7-3.8,3.8c0,2.1,1.7,3.8,3.8,3.8
				C1354.3,1139.6,1356,1137.9,1356,1135.8z"/>
			<path id="XMLID_521_" fill="#A630B0" d="M1519.3,1135.8c0-2.1-1.7-3.8-3.8-3.8c-2.1,0-3.8,1.7-3.8,3.8c0,2.1,1.7,3.8,3.8,3.8
				C1517.6,1139.6,1519.3,1137.9,1519.3,1135.8z"/>
			<path id="XMLID_517_" fill="#A630B0" d="M1682.6,1135.8c0-2.1-1.7-3.8-3.8-3.8c-2.1,0-3.8,1.7-3.8,3.8c0,2.1,1.7,3.8,3.8,3.8
				C1680.8,1139.6,1682.6,1137.9,1682.6,1135.8z"/>
			<path id="XMLID_516_" fill="#A630B0" d="M1845.8,1135.8c0-2.1-1.7-3.8-3.8-3.8c-2.1,0-3.8,1.7-3.8,3.8c0,2.1,1.7,3.8,3.8,3.8
				C1844.1,1139.6,1845.8,1137.9,1845.8,1135.8z"/>
		</g>
		<g id="XMLID_496_">
			<path id="XMLID_512_" fill="#A630B0" d="M213.1,979.4c0-2.1-1.7-3.8-3.8-3.8c-2.1,0-3.8,1.7-3.8,3.8c0,2.1,1.7,3.8,3.8,3.8
				C211.4,983.3,213.1,981.6,213.1,979.4z"/>
			<path id="XMLID_508_" fill="#A630B0" d="M376.4,979.4c0-2.1-1.7-3.8-3.8-3.8c-2.1,0-3.8,1.7-3.8,3.8c0,2.1,1.7,3.8,3.8,3.8
				C374.7,983.3,376.4,981.6,376.4,979.4z"/>
			<path id="XMLID_507_" fill="#A630B0" d="M539.7,979.4c0-2.1-1.7-3.8-3.8-3.8c-2.1,0-3.8,1.7-3.8,3.8c0,2.1,1.7,3.8,3.8,3.8
				C537.9,983.3,539.7,981.6,539.7,979.4z"/>
			<path id="XMLID_506_" fill="#A630B0" d="M702.9,979.4c0-2.1-1.7-3.8-3.8-3.8c-2.1,0-3.8,1.7-3.8,3.8c0,2.1,1.7,3.8,3.8,3.8
				C701.2,983.3,702.9,981.6,702.9,979.4z"/>
			<path id="XMLID_505_" fill="#A630B0" d="M866.2,979.4c0-2.1-1.7-3.8-3.8-3.8c-2.1,0-3.8,1.7-3.8,3.8c0,2.1,1.7,3.8,3.8,3.8
				C864.5,983.3,866.2,981.6,866.2,979.4z"/>
			<path id="XMLID_502_" fill="#A630B0" d="M1029.5,979.4c0-2.1-1.7-3.8-3.8-3.8c-2.1,0-3.8,1.7-3.8,3.8c0,2.1,1.7,3.8,3.8,3.8
				C1027.7,983.3,1029.5,981.6,1029.5,979.4z"/>
			<path id="XMLID_501_" fill="#A630B0" d="M1192.7,979.4c0-2.1-1.7-3.8-3.8-3.8c-2.1,0-3.8,1.7-3.8,3.8c0,2.1,1.7,3.8,3.8,3.8
				C1191,983.3,1192.7,981.6,1192.7,979.4z"/>
			<path id="XMLID_500_" fill="#A630B0" d="M1356,979.4c0-2.1-1.7-3.8-3.8-3.8c-2.1,0-3.8,1.7-3.8,3.8c0,2.1,1.7,3.8,3.8,3.8
				C1354.3,983.3,1356,981.6,1356,979.4z"/>
			<path id="XMLID_499_" fill="#A630B0" d="M1519.3,979.4c0-2.1-1.7-3.8-3.8-3.8c-2.1,0-3.8,1.7-3.8,3.8c0,2.1,1.7,3.8,3.8,3.8
				C1517.6,983.3,1519.3,981.6,1519.3,979.4z"/>
			<path id="XMLID_498_" fill="#A630B0" d="M1682.6,979.4c0-2.1-1.7-3.8-3.8-3.8c-2.1,0-3.8,1.7-3.8,3.8c0,2.1,1.7,3.8,3.8,3.8
				C1680.8,983.3,1682.6,981.6,1682.6,979.4z"/>
			<path id="XMLID_497_" fill="#A630B0" d="M1845.8,979.4c0-2.1-1.7-3.8-3.8-3.8c-2.1,0-3.8,1.7-3.8,3.8c0,2.1,1.7,3.8,3.8,3.8
				C1844.1,983.3,1845.8,981.6,1845.8,979.4z"/>
		</g>
		<g id="XMLID_484_">
			<path id="XMLID_495_" fill="#A630B0" d="M213.1,696.1c0-2.1-1.7-3.8-3.8-3.8c-2.1,0-3.8,1.7-3.8,3.8c0,2.1,1.7,3.8,3.8,3.8
				C211.4,699.9,213.1,698.2,213.1,696.1z"/>
			<path id="XMLID_494_" fill="#A630B0" d="M376.4,696.1c0-2.1-1.7-3.8-3.8-3.8c-2.1,0-3.8,1.7-3.8,3.8c0,2.1,1.7,3.8,3.8,3.8
				C374.7,699.9,376.4,698.2,376.4,696.1z"/>
			<path id="XMLID_493_" fill="#A630B0" d="M539.7,823.1c0-2.1-1.7-3.8-3.8-3.8c-2.1,0-3.8,1.7-3.8,3.8c0,2.1,1.7,3.8,3.8,3.8
				C537.9,826.9,539.7,825.2,539.7,823.1z"/>
			<path id="XMLID_492_" fill="#A630B0" d="M702.9,823.1c0-2.1-1.7-3.8-3.8-3.8c-2.1,0-3.8,1.7-3.8,3.8c0,2.1,1.7,3.8,3.8,3.8
				C701.2,826.9,702.9,825.2,702.9,823.1z"/>
			<path id="XMLID_491_" fill="#A630B0" d="M866.2,823.1c0-2.1-1.7-3.8-3.8-3.8c-2.1,0-3.8,1.7-3.8,3.8c0,2.1,1.7,3.8,3.8,3.8
				C864.5,826.9,866.2,825.2,866.2,823.1z"/>
			<path id="XMLID_490_" fill="#A630B0" d="M1029.5,823.1c0-2.1-1.7-3.8-3.8-3.8c-2.1,0-3.8,1.7-3.8,3.8c0,2.1,1.7,3.8,3.8,3.8
				C1027.7,826.9,1029.5,825.2,1029.5,823.1z"/>
			<path id="XMLID_489_" fill="#A630B0" d="M1192.7,823.1c0-2.1-1.7-3.8-3.8-3.8c-2.1,0-3.8,1.7-3.8,3.8c0,2.1,1.7,3.8,3.8,3.8
				C1191,826.9,1192.7,825.2,1192.7,823.1z"/>
			<path id="XMLID_488_" fill="#A630B0" d="M1356,823.1c0-2.1-1.7-3.8-3.8-3.8c-2.1,0-3.8,1.7-3.8,3.8c0,2.1,1.7,3.8,3.8,3.8
				C1354.3,826.9,1356,825.2,1356,823.1z"/>
			<path id="XMLID_487_" fill="#A630B0" d="M1519.3,823.1c0-2.1-1.7-3.8-3.8-3.8c-2.1,0-3.8,1.7-3.8,3.8c0,2.1,1.7,3.8,3.8,3.8
				C1517.6,826.9,1519.3,825.2,1519.3,823.1z"/>
			<path id="XMLID_486_" fill="#A630B0" d="M1682.6,823.1c0-2.1-1.7-3.8-3.8-3.8c-2.1,0-3.8,1.7-3.8,3.8c0,2.1,1.7,3.8,3.8,3.8
				C1680.8,826.9,1682.6,825.2,1682.6,823.1z"/>
			<path id="XMLID_485_" fill="#A630B0" d="M1845.8,823.1c0-2.1-1.7-3.8-3.8-3.8c-2.1,0-3.8,1.7-3.8,3.8c0,2.1,1.7,3.8,3.8,3.8
				C1844.1,826.9,1845.8,825.2,1845.8,823.1z"/>
		</g>
		<g id="XMLID_472_">
			<path id="XMLID_483_" fill="#A630B0" d="M213.1,666.7c0-2.1-1.7-3.8-3.8-3.8c-2.1,0-3.8,1.7-3.8,3.8c0,2.1,1.7,3.8,3.8,3.8
				C211.4,670.6,213.1,668.8,213.1,666.7z"/>
			<path id="XMLID_482_" fill="#A630B0" d="M376.4,666.7c0-2.1-1.7-3.8-3.8-3.8c-2.1,0-3.8,1.7-3.8,3.8c0,2.1,1.7,3.8,3.8,3.8
				C374.7,670.6,376.4,668.8,376.4,666.7z"/>
			<path id="XMLID_481_" fill="#A630B0" d="M539.7,666.7c0-2.1-1.7-3.8-3.8-3.8c-2.1,0-3.8,1.7-3.8,3.8c0,2.1,1.7,3.8,3.8,3.8
				C537.9,670.6,539.7,668.8,539.7,666.7z"/>
			<path id="XMLID_480_" fill="#A630B0" d="M702.9,666.7c0-2.1-1.7-3.8-3.8-3.8c-2.1,0-3.8,1.7-3.8,3.8c0,2.1,1.7,3.8,3.8,3.8
				C701.2,670.6,702.9,668.8,702.9,666.7z"/>
			<path id="XMLID_479_" fill="#A630B0" d="M866.2,666.7c0-2.1-1.7-3.8-3.8-3.8c-2.1,0-3.8,1.7-3.8,3.8c0,2.1,1.7,3.8,3.8,3.8
				C864.5,670.6,866.2,668.8,866.2,666.7z"/>
			<path id="XMLID_478_" fill="#A630B0" d="M1029.5,666.7c0-2.1-1.7-3.8-3.8-3.8c-2.1,0-3.8,1.7-3.8,3.8c0,2.1,1.7,3.8,3.8,3.8
				C1027.7,670.6,1029.5,668.8,1029.5,666.7z"/>
			<path id="XMLID_477_" fill="#A630B0" d="M1192.7,666.7c0-2.1-1.7-3.8-3.8-3.8c-2.1,0-3.8,1.7-3.8,3.8c0,2.1,1.7,3.8,3.8,3.8
				C1191,670.6,1192.7,668.8,1192.7,666.7z"/>
			<path id="XMLID_476_" fill="#A630B0" d="M1356,666.7c0-2.1-1.7-3.8-3.8-3.8c-2.1,0-3.8,1.7-3.8,3.8c0,2.1,1.7,3.8,3.8,3.8
				C1354.3,670.6,1356,668.8,1356,666.7z"/>
			<path id="XMLID_475_" fill="#A630B0" d="M1519.3,666.7c0-2.1-1.7-3.8-3.8-3.8c-2.1,0-3.8,1.7-3.8,3.8c0,2.1,1.7,3.8,3.8,3.8
				C1517.6,670.6,1519.3,668.8,1519.3,666.7z"/>
			<path id="XMLID_474_" fill="#A630B0" d="M1682.6,666.7c0-2.1-1.7-3.8-3.8-3.8c-2.1,0-3.8,1.7-3.8,3.8c0,2.1,1.7,3.8,3.8,3.8
				C1680.8,670.6,1682.6,668.8,1682.6,666.7z"/>
			<path id="XMLID_473_" fill="#A630B0" d="M1845.8,666.7c0-2.1-1.7-3.8-3.8-3.8c-2.1,0-3.8,1.7-3.8,3.8c0,2.1,1.7,3.8,3.8,3.8
				C1844.1,670.6,1845.8,668.8,1845.8,666.7z"/>
		</g>
		<g id="XMLID_460_">
			<path id="XMLID_471_" fill="#A630B0" d="M213.1,510.4c0-2.1-1.7-3.8-3.8-3.8c-2.1,0-3.8,1.7-3.8,3.8c0,2.1,1.7,3.8,3.8,3.8
				C211.4,514.2,213.1,512.5,213.1,510.4z"/>
			<path id="XMLID_470_" fill="#A630B0" d="M376.4,510.4c0-2.1-1.7-3.8-3.8-3.8c-2.1,0-3.8,1.7-3.8,3.8c0,2.1,1.7,3.8,3.8,3.8
				C374.7,514.2,376.4,512.5,376.4,510.4z"/>
			<path id="XMLID_469_" fill="#A630B0" d="M539.7,510.4c0-2.1-1.7-3.8-3.8-3.8c-2.1,0-3.8,1.7-3.8,3.8c0,2.1,1.7,3.8,3.8,3.8
				C537.9,514.2,539.7,512.5,539.7,510.4z"/>
			<circle id="XMLID_468_" fill="#A630B0" cx="699.1" cy="510.4" r="3.8"/>
			<path id="XMLID_467_" fill="#A630B0" d="M866.2,510.4c0-2.1-1.7-3.8-3.8-3.8c-2.1,0-3.8,1.7-3.8,3.8c0,2.1,1.7,3.8,3.8,3.8
				C864.5,514.2,866.2,512.5,866.2,510.4z"/>
			<path id="XMLID_466_" fill="#A630B0" d="M1029.5,510.4c0-2.1-1.7-3.8-3.8-3.8c-2.1,0-3.8,1.7-3.8,3.8c0,2.1,1.7,3.8,3.8,3.8
				C1027.7,514.2,1029.5,512.5,1029.5,510.4z"/>
			<path id="XMLID_465_" fill="#A630B0" d="M1192.7,510.4c0-2.1-1.7-3.8-3.8-3.8c-2.1,0-3.8,1.7-3.8,3.8c0,2.1,1.7,3.8,3.8,3.8
				C1191,514.2,1192.7,512.5,1192.7,510.4z"/>
			<path id="XMLID_464_" fill="#A630B0" d="M1356,510.4c0-2.1-1.7-3.8-3.8-3.8c-2.1,0-3.8,1.7-3.8,3.8c0,2.1,1.7,3.8,3.8,3.8
				C1354.3,514.2,1356,512.5,1356,510.4z"/>
			<path id="XMLID_463_" fill="#A630B0" d="M1519.3,510.4c0-2.1-1.7-3.8-3.8-3.8c-2.1,0-3.8,1.7-3.8,3.8c0,2.1,1.7,3.8,3.8,3.8
				C1517.6,514.2,1519.3,512.5,1519.3,510.4z"/>
			<path id="XMLID_462_" fill="#A630B0" d="M1682.6,510.4c0-2.1-1.7-3.8-3.8-3.8c-2.1,0-3.8,1.7-3.8,3.8c0,2.1,1.7,3.8,3.8,3.8
				C1680.8,514.2,1682.6,512.5,1682.6,510.4z"/>
			<path id="XMLID_461_" fill="#A630B0" d="M1845.8,510.4c0-2.1-1.7-3.8-3.8-3.8c-2.1,0-3.8,1.7-3.8,3.8c0,2.1,1.7,3.8,3.8,3.8
				C1844.1,514.2,1845.8,512.5,1845.8,510.4z"/>
		</g>
		<g id="XMLID_448_">
			<path id="XMLID_459_" fill="#A630B0" d="M213.1,354c0-2.1-1.7-3.8-3.8-3.8c-2.1,0-3.8,1.7-3.8,3.8c0,2.1,1.7,3.8,3.8,3.8
				C211.4,357.8,213.1,356.1,213.1,354z"/>
			<path id="XMLID_458_" fill="#A630B0" d="M376.4,354c0-2.1-1.7-3.8-3.8-3.8c-2.1,0-3.8,1.7-3.8,3.8c0,2.1,1.7,3.8,3.8,3.8
				C374.7,357.8,376.4,356.1,376.4,354z"/>
			<path id="XMLID_457_" fill="#A630B0" d="M539.7,354c0-2.1-1.7-3.8-3.8-3.8c-2.1,0-3.8,1.7-3.8,3.8c0,2.1,1.7,3.8,3.8,3.8
				C537.9,357.8,539.7,356.1,539.7,354z"/>
			<path id="XMLID_456_" fill="#A630B0" d="M702.9,354c0-2.1-1.7-3.8-3.8-3.8c-2.1,0-3.8,1.7-3.8,3.8c0,2.1,1.7,3.8,3.8,3.8
				C701.2,357.8,702.9,356.1,702.9,354z"/>
			<path id="XMLID_455_" fill="#A630B0" d="M866.2,354c0-2.1-1.7-3.8-3.8-3.8c-2.1,0-3.8,1.7-3.8,3.8c0,2.1,1.7,3.8,3.8,3.8
				C864.5,357.8,866.2,356.1,866.2,354z"/>
			<path id="XMLID_454_" fill="#A630B0" d="M1029.5,354c0-2.1-1.7-3.8-3.8-3.8c-2.1,0-3.8,1.7-3.8,3.8c0,2.1,1.7,3.8,3.8,3.8
				C1027.7,357.8,1029.5,356.1,1029.5,354z"/>
			<path id="XMLID_453_" fill="#A630B0" d="M1192.7,354c0-2.1-1.7-3.8-3.8-3.8c-2.1,0-3.8,1.7-3.8,3.8c0,2.1,1.7,3.8,3.8,3.8
				C1191,357.8,1192.7,356.1,1192.7,354z"/>
			<path id="XMLID_452_" fill="#A630B0" d="M1356,354c0-2.1-1.7-3.8-3.8-3.8c-2.1,0-3.8,1.7-3.8,3.8c0,2.1,1.7,3.8,3.8,3.8
				C1354.3,357.8,1356,356.1,1356,354z"/>
			<path id="XMLID_451_" fill="#A630B0" d="M1519.3,354c0-2.1-1.7-3.8-3.8-3.8c-2.1,0-3.8,1.7-3.8,3.8c0,2.1,1.7,3.8,3.8,3.8
				C1517.6,357.8,1519.3,356.1,1519.3,354z"/>
			<path id="XMLID_450_" fill="#A630B0" d="M1682.6,354c0-2.1-1.7-3.8-3.8-3.8c-2.1,0-3.8,1.7-3.8,3.8c0,2.1,1.7,3.8,3.8,3.8
				C1680.8,357.8,1682.6,356.1,1682.6,354z"/>
			<path id="XMLID_449_" fill="#A630B0" d="M1845.8,354c0-2.1-1.7-3.8-3.8-3.8c-2.1,0-3.8,1.7-3.8,3.8c0,2.1,1.7,3.8,3.8,3.8
				C1844.1,357.8,1845.8,356.1,1845.8,354z"/>
		</g>
		<g id="XMLID_436_">
			<path id="XMLID_447_" fill="#A630B0" d="M213.1,197.6c0-2.1-1.7-3.8-3.8-3.8c-2.1,0-3.8,1.7-3.8,3.8c0,2.1,1.7,3.8,3.8,3.8
				C211.4,201.5,213.1,199.8,213.1,197.6z"/>
			<path id="XMLID_446_" fill="#A630B0" d="M376.4,197.6c0-2.1-1.7-3.8-3.8-3.8c-2.1,0-3.8,1.7-3.8,3.8c0,2.1,1.7,3.8,3.8,3.8
				C374.7,201.5,376.4,199.8,376.4,197.6z"/>
			<path id="XMLID_445_" fill="#A630B0" d="M539.7,197.6c0-2.1-1.7-3.8-3.8-3.8c-2.1,0-3.8,1.7-3.8,3.8c0,2.1,1.7,3.8,3.8,3.8
				C537.9,201.5,539.7,199.8,539.7,197.6z"/>
			<path id="XMLID_444_" fill="#A630B0" d="M702.9,197.6c0-2.1-1.7-3.8-3.8-3.8c-2.1,0-3.8,1.7-3.8,3.8c0,2.1,1.7,3.8,3.8,3.8
				C701.2,201.5,702.9,199.8,702.9,197.6z"/>
			<path id="XMLID_443_" fill="#A630B0" d="M866.2,197.6c0-2.1-1.7-3.8-3.8-3.8c-2.1,0-3.8,1.7-3.8,3.8c0,2.1,1.7,3.8,3.8,3.8
				C864.5,201.5,866.2,199.8,866.2,197.6z"/>
			<path id="XMLID_442_" fill="#A630B0" d="M1029.5,197.6c0-2.1-1.7-3.8-3.8-3.8c-2.1,0-3.8,1.7-3.8,3.8c0,2.1,1.7,3.8,3.8,3.8
				C1027.7,201.5,1029.5,199.8,1029.5,197.6z"/>
			<path id="XMLID_441_" fill="#A630B0" d="M1192.7,197.6c0-2.1-1.7-3.8-3.8-3.8c-2.1,0-3.8,1.7-3.8,3.8c0,2.1,1.7,3.8,3.8,3.8
				C1191,201.5,1192.7,199.8,1192.7,197.6z"/>
			<path id="XMLID_440_" fill="#A630B0" d="M1356,197.6c0-2.1-1.7-3.8-3.8-3.8c-2.1,0-3.8,1.7-3.8,3.8c0,2.1,1.7,3.8,3.8,3.8
				C1354.3,201.5,1356,199.8,1356,197.6z"/>
			<path id="XMLID_439_" fill="#A630B0" d="M1519.3,197.6c0-2.1-1.7-3.8-3.8-3.8c-2.1,0-3.8,1.7-3.8,3.8c0,2.1,1.7,3.8,3.8,3.8
				C1517.6,201.5,1519.3,199.8,1519.3,197.6z"/>
			<path id="XMLID_438_" fill="#A630B0" d="M1682.6,197.6c0-2.1-1.7-3.8-3.8-3.8c-2.1,0-3.8,1.7-3.8,3.8c0,2.1,1.7,3.8,3.8,3.8
				C1680.8,201.5,1682.6,199.8,1682.6,197.6z"/>
			<path id="XMLID_437_" fill="#A630B0" d="M1845.8,197.6c0-2.1-1.7-3.8-3.8-3.8c-2.1,0-3.8,1.7-3.8,3.8c0,2.1,1.7,3.8,3.8,3.8
				C1844.1,201.5,1845.8,199.8,1845.8,197.6z"/>
		</g>
		<g id="XMLID_421_">
			<path id="XMLID_435_" fill="#A630B0" d="M213.1,41.3c0-2.1-1.7-3.8-3.8-3.8c-2.1,0-3.8,1.7-3.8,3.8c0,2.1,1.7,3.8,3.8,3.8
				C211.4,45.1,213.1,43.4,213.1,41.3z"/>
			<path id="XMLID_434_" fill="#A630B0" d="M376.4,41.3c0-2.1-1.7-3.8-3.8-3.8c-2.1,0-3.8,1.7-3.8,3.8c0,2.1,1.7,3.8,3.8,3.8
				C374.7,45.1,376.4,43.4,376.4,41.3z"/>
			<path id="XMLID_433_" fill="#A630B0" d="M539.7,41.3c0-2.1-1.7-3.8-3.8-3.8c-2.1,0-3.8,1.7-3.8,3.8c0,2.1,1.7,3.8,3.8,3.8
				C537.9,45.1,539.7,43.4,539.7,41.3z"/>
			<path id="XMLID_432_" fill="#A630B0" d="M702.9,41.3c0-2.1-1.7-3.8-3.8-3.8c-2.1,0-3.8,1.7-3.8,3.8c0,2.1,1.7,3.8,3.8,3.8
				C701.2,45.1,702.9,43.4,702.9,41.3z"/>
			<path id="XMLID_431_" fill="#A630B0" d="M866.2,41.3c0-2.1-1.7-3.8-3.8-3.8c-2.1,0-3.8,1.7-3.8,3.8c0,2.1,1.7,3.8,3.8,3.8
				C864.5,45.1,866.2,43.4,866.2,41.3z"/>
			<path id="XMLID_430_" fill="#A630B0" d="M1029.5,41.3c0-2.1-1.7-3.8-3.8-3.8c-2.1,0-3.8,1.7-3.8,3.8c0,2.1,1.7,3.8,3.8,3.8
				C1027.7,45.1,1029.5,43.4,1029.5,41.3z"/>
			<path id="XMLID_429_" fill="#A630B0" d="M1192.7,41.3c0-2.1-1.7-3.8-3.8-3.8c-2.1,0-3.8,1.7-3.8,3.8c0,2.1,1.7,3.8,3.8,3.8
				C1191,45.1,1192.7,43.4,1192.7,41.3z"/>
			<path id="XMLID_427_" fill="#A630B0" d="M1356,41.3c0-2.1-1.7-3.8-3.8-3.8c-2.1,0-3.8,1.7-3.8,3.8c0,2.1,1.7,3.8,3.8,3.8
				C1354.3,45.1,1356,43.4,1356,41.3z"/>
			<path id="XMLID_426_" fill="#A630B0" d="M1519.3,41.3c0-2.1-1.7-3.8-3.8-3.8c-2.1,0-3.8,1.7-3.8,3.8c0,2.1,1.7,3.8,3.8,3.8
				C1517.6,45.1,1519.3,43.4,1519.3,41.3z"/>
			<path id="XMLID_425_" fill="#A630B0" d="M1682.6,41.3c0-2.1-1.7-3.8-3.8-3.8c-2.1,0-3.8,1.7-3.8,3.8c0,2.1,1.7,3.8,3.8,3.8
				C1680.8,45.1,1682.6,43.4,1682.6,41.3z"/>
			<path id="XMLID_422_" fill="#A630B0" d="M1845.8,41.3c0-2.1-1.7-3.8-3.8-3.8c-2.1,0-3.8,1.7-3.8,3.8c0,2.1,1.7,3.8,3.8,3.8
				C1844.1,45.1,1845.8,43.4,1845.8,41.3z"/>
		</g>
		<g id="XMLID_371_">
			<path id="XMLID_420_" fill="#A630B0" d="M213.1-115.1c0-2.1-1.7-3.8-3.8-3.8c-2.1,0-3.8,1.7-3.8,3.8c0,2.1,1.7,3.8,3.8,3.8
				C211.4-111.2,213.1-112.9,213.1-115.1z"/>
			<path id="XMLID_419_" fill="#A630B0" d="M376.4-115.1c0-2.1-1.7-3.8-3.8-3.8c-2.1,0-3.8,1.7-3.8,3.8c0,2.1,1.7,3.8,3.8,3.8
				C374.7-111.2,376.4-112.9,376.4-115.1z"/>
			<path id="XMLID_417_" fill="#A630B0" d="M539.7-115.1c0-2.1-1.7-3.8-3.8-3.8c-2.1,0-3.8,1.7-3.8,3.8c0,2.1,1.7,3.8,3.8,3.8
				C537.9-111.2,539.7-112.9,539.7-115.1z"/>
			<path id="XMLID_415_" fill="#A630B0" d="M702.9-115.1c0-2.1-1.7-3.8-3.8-3.8c-2.1,0-3.8,1.7-3.8,3.8c0,2.1,1.7,3.8,3.8,3.8
				C701.2-111.2,702.9-112.9,702.9-115.1z"/>
			<path id="XMLID_414_" fill="#A630B0" d="M866.2-115.1c0-2.1-1.7-3.8-3.8-3.8c-2.1,0-3.8,1.7-3.8,3.8c0,2.1,1.7,3.8,3.8,3.8
				C864.5-111.2,866.2-112.9,866.2-115.1z"/>
			<path id="XMLID_413_" fill="#A630B0" d="M1029.5-115.1c0-2.1-1.7-3.8-3.8-3.8c-2.1,0-3.8,1.7-3.8,3.8c0,2.1,1.7,3.8,3.8,3.8
				C1027.7-111.2,1029.5-112.9,1029.5-115.1z"/>
			<path id="XMLID_412_" fill="#A630B0" d="M1192.7-115.1c0-2.1-1.7-3.8-3.8-3.8c-2.1,0-3.8,1.7-3.8,3.8c0,2.1,1.7,3.8,3.8,3.8
				C1191-111.2,1192.7-112.9,1192.7-115.1z"/>
			<path id="XMLID_385_" fill="#A630B0" d="M1356-115.1c0-2.1-1.7-3.8-3.8-3.8c-2.1,0-3.8,1.7-3.8,3.8c0,2.1,1.7,3.8,3.8,3.8
				C1354.3-111.2,1356-112.9,1356-115.1z"/>
			<path id="XMLID_374_" fill="#A630B0" d="M1519.3-115.1c0-2.1-1.7-3.8-3.8-3.8c-2.1,0-3.8,1.7-3.8,3.8c0,2.1,1.7,3.8,3.8,3.8
				C1517.6-111.2,1519.3-112.9,1519.3-115.1z"/>
			<path id="XMLID_373_" fill="#A630B0" d="M1682.6-115.1c0-2.1-1.7-3.8-3.8-3.8c-2.1,0-3.8,1.7-3.8,3.8c0,2.1,1.7,3.8,3.8,3.8
				C1680.8-111.2,1682.6-112.9,1682.6-115.1z"/>
			<path id="XMLID_372_" fill="#A630B0" d="M1845.8-115.1c0-2.1-1.7-3.8-3.8-3.8c-2.1,0-3.8,1.7-3.8,3.8c0,2.1,1.7,3.8,3.8,3.8
				C1844.1-111.2,1845.8-112.9,1845.8-115.1z"/>
		</g>
	</g>
</g>
<radialGradient id="XMLID_3_" cx="1070.0524" cy="497.6934" r="767.3143" gradientTransform="matrix(1 0 0 -1 -106.1147 775.3369)" gradientUnits="userSpaceOnUse">
	<stop  offset="5.376341e-03" style="stop-color:#E80566"/>
	<stop  offset="1" style="stop-color:#4F057A"/>
</radialGradient>
<path id="XMLID_299_" opacity="0.25" fill="url(#XMLID_3_)" d="M1413,607.4c0,0-34.4-81.7-126.3-28.8
	c-91.9,52.9-99.4,106.7-275.7,54.9c-176.3-51.8-210.6-9.8-278,10.8c-23.9,7.3-131.6,24.5-259.1,22.2
	c-150.6-2.7-247.1-50.2-355.5-17.2C10.1,682.2-13.1,419.1-13.1,419.1l-36-530.5h2026c0,0-51.8,160.2-168.1,208.9
	c-116.2,48.7-99.6,81.7-110.3,163.3c-10.7,81.7-233.9,136.7-218.4,256.7C1495.8,637.5,1413,607.4,1413,607.4z"/>
<radialGradient id="XMLID_4_" cx="1439.2765" cy="290.1282" r="1022.0168" gradientTransform="matrix(1 0 0 -1 -106.1147 775.3369)" gradientUnits="userSpaceOnUse">
	<stop  offset="5.376341e-03" style="stop-color:#E80566"/>
	<stop  offset="1" style="stop-color:#4F057A"/>
</radialGradient>
<path id="XMLID_275_" opacity="0.25" fill="url(#XMLID_4_)" d="M-0.6,537.1c12.6,7.9,142.7,167.4,274,93.3
	c133-75.2,328.8,21.2,468.6-47.7c131.9-65,197.9-43.4,286.2-9.8c89.2,34,233.7-39.8,348.6,19.6c114.9,59.4,119.6-38.1,119.6-38.1
	s-32-85,61-144.6c93-59.5,47.3-128.1,73.2-237C1656.4,64,1908-97.2,1908-97.2L-60.1,5.4L-0.6,537.1z"/>
<radialGradient id="XMLID_5_" cx="1610.0394" cy="538.887" r="1384.4078" fx="1460.1392" fy="550.2468" gradientTransform="matrix(1 0 0 -1 -106.1147 775.3369)" gradientUnits="userSpaceOnUse">
	<stop  offset="0" style="stop-color:#E80566"/>
	<stop  offset="5.600143e-02" style="stop-color:#DC0568"/>
	<stop  offset="0.4285" style="stop-color:#900571"/>
	<stop  offset="0.6947" style="stop-color:#610578"/>
	<stop  offset="0.827" style="stop-color:#4F057A"/>
</radialGradient>
<path id="XMLID_270_" fill="url(#XMLID_5_)" d="M-46.4,415.2c0,0-108.8,281.3,43.6,262.4c152.3-18.8,233.3,7.8,291.4-68.8
	C346.6,532.2,505,489.3,608.7,517c103.7,27.7,194.8,61.4,279.6,8.3c16.6-10.4,33.3-20.7,50.4-30.2c17.8-9.8,36.1-18.6,55.2-25.4
	c19.6-7.1,40-12,60.8-13.9c22.5-2.1,45.3-0.6,67.4,4.2c26.4,5.7,51.6,16,75.2,28.9c30.3,16.6,58.1,37.5,84,60.2
	c13.7,12,26.8,24.6,39.6,37.7c8.5,8.7,15.7,18.9,26.3,25.4c31.9,19.8,73,19.5,108.9,14.5c16.6-2.3,34.8-6.6,47.9-17.7
	c12.7-10.9,15.2-26.8,10.7-42.3c-5.4-18.5-17.6-35-29.8-49.6c-37-44.1-134.2-116.9,61.5-222c69.1-39.3,57.8-156.4,80.6-232.4
	s208.9-222.6,208.9-222.6S409.4-278.4,400-280c-9.4-1.6-542,292.3-542,292.3L-46.4,415.2z"/>
<polygon id="XMLID_268_" fill="none" points="1908,-55.1 146.8,-182.1 146.8,948.9 1908,1075.9 "/>
<polygon id="XMLID_264_" fill="#FEA7AF" points="440.8,90.4 442.3,87.7 445,86.2 442.3,84.7 440.8,82 439.4,84.7 436.7,86.2 
	439.4,87.7 "/>
<polygon id="XMLID_256_" opacity="0.29" fill="#FEA7AF" points="837.6,129.7 839,127.2 841.5,125.8 839,124.4 837.6,121.9 
	836.2,124.4 833.7,125.8 836.2,127.2 "/>
<polygon id="XMLID_255_" opacity="0.29" fill="#FEA7AF" points="870.2,13.7 871.6,11.1 874.2,9.8 871.6,8.4 870.2,5.8 868.8,8.4 
	866.3,9.8 868.8,11.1 "/>
<polygon id="XMLID_250_" fill="#FFFFFF" points="638.3,107.4 641.7,101.1 648,97.6 641.7,94.2 638.3,87.8 634.8,94.2 628.5,97.6 
	634.8,101.1 "/>
<polygon id="XMLID_246_" opacity="0.33" fill="#FEA7AF" points="1048.2,95.1 1049.8,92.2 1052.7,90.6 1049.8,89.1 1048.2,86.2 
	1046.7,89.1 1043.8,90.6 1046.7,92.2 "/>
<polygon id="XMLID_245_" opacity="0.33" fill="#FEA7AF" points="1121.8,7.1 1123.4,4.2 1126.2,2.6 1123.4,1.1 1121.8,-1.8 
	1120.2,1.1 1117.3,2.6 1120.2,4.2 "/>
<polygon id="XMLID_151_" fill="none" points="1908,-55.1 146.8,-182.1 146.8,948.9 1908,1075.9 "/>
</svg>
