<?xml version="1.0" encoding="utf-8"?>
<!-- Generator: Adobe Illustrator 16.0.0, SVG Export Plug-In . SVG Version: 6.00 Build 0)  -->
<!DOCTYPE svg PUBLIC "-//W3C//DTD SVG 1.1//EN" "http://www.w3.org/Graphics/SVG/1.1/DTD/svg11.dtd">
<svg version="1.1" id="Layer_1" xmlns="http://www.w3.org/2000/svg" xmlns:xlink="http://www.w3.org/1999/xlink" x="0px" y="0px"
	 width="515px" height="347px" viewBox="0 74.5 515 347" enable-background="new 0 74.5 515 347" xml:space="preserve">
<g>
	<path fill="#1F5E77" d="M209.926,274.227l24.948-14.503c1.064-0.6,2.395-0.6,3.393,0l59.276,34.194
		c0.997,0.599,0.997,1.997,0,2.595l-24.417,14.17c-1.264,0.732-2.794,0.732-4.058,0l-59.143-34.129
		C209.061,276.022,209.061,274.759,209.926,274.227z"/>
	<path fill="#07304B" d="M209.926,276.554l59.143,34.129c1.264,0.732,2.794,0.732,4.058,0l24.417-14.17
		c0.464-0.266,0.73-0.798,0.73-1.264v3.06l0,0l0,0l0,0c0,0.467-0.267,0.998-0.73,1.265l-24.417,14.17
		c-1.264,0.732-2.794,0.732-4.058,0l-59.143-34.129c-0.465-0.266-0.666-0.73-0.666-1.197l0,0v-3.06
		C209.26,275.823,209.46,276.289,209.926,276.554z"/>
	<path fill="#0B3B56" d="M209.926,276.554l59.143,34.129c0.599,0.332,1.198,0.533,1.863,0.533v3.061
		c-0.665,0-1.265-0.201-1.863-0.533l-59.143-34.129c-0.465-0.266-0.666-0.73-0.666-1.197l0,0v-3.06
		C209.26,275.823,209.46,276.289,209.926,276.554z"/>
</g>
<g>
	<polygon fill="#0F4463" points="274.723,276.488 228.687,249.877 228.687,272.696 274.723,299.307 	"/>
	<polygon fill="#07304B" points="235.073,246.152 228.687,249.877 274.723,276.488 281.11,272.828 	"/>
	<polygon fill="#07304B" points="281.11,272.828 274.723,276.488 274.723,299.307 281.11,295.581 	"/>
</g>
<g>
	<g>
		
			<linearGradient id="SVGID_1_" gradientUnits="userSpaceOnUse" x1="724.4365" y1="-142.167" x2="810.4741" y2="140.9239" gradientTransform="matrix(0.512 0 0 -0.512 -136.9998 212.9)">
			<stop  offset="0" style="stop-color:#1C75BC"/>
			<stop  offset="0.2787" style="stop-color:#2077BC"/>
			<stop  offset="0.5411" style="stop-color:#2B7EBC"/>
			<stop  offset="0.7962" style="stop-color:#3E88BC"/>
			<stop  offset="1" style="stop-color:#5394BC"/>
		</linearGradient>
		<polygon fill="url(#SVGID_1_)" points="182.118,133.721 322.091,214.951 322.091,317.935 182.118,236.439 		"/>
		<polygon fill="#07304B" points="322.091,214.951 326.748,212.09 326.748,315.074 322.091,317.935 		"/>
		<polygon fill="#1F5E77" points="182.118,133.721 186.907,130.994 326.748,212.09 322.091,214.951 		"/>
	</g>
	<path fill="#0B3B56" d="M182.118,133.721v102.651l139.973,81.563V214.951L182.118,133.721z M318.764,312.146l-133.32-77.637
		v-95.001l133.32,77.305V312.146z"/>
</g>
<g>
	<g>
		<g>
			<path fill="#EF9D26" d="M86.851,306.625v2.728c0,3.726-5.522,6.719-12.374,6.719s-12.374-2.993-12.374-6.719v-2.728H86.851z"/>
			<path fill="#F9C32A" d="M79.533,315.54c1.064-0.267,2.063-0.599,2.994-0.997v-5.923h-2.994V315.54z"/>
			<path fill="#F9C32A" d="M83.99,313.677c0.932-0.599,1.663-1.331,2.129-2.063v-4.657H83.99V313.677z"/>
			<path fill="#F9DC32" d="M62.036,306.625c0,3.725,5.522,6.72,12.374,6.72s12.375-2.995,12.375-6.72
				c0-3.726-5.522-6.72-12.375-6.72C67.625,299.905,62.036,302.899,62.036,306.625z"/>
			<path fill="#F9C32A" d="M64.896,306.559c0,2.794,4.258,5.056,9.514,5.056s9.514-2.262,9.514-5.056s-4.258-5.056-9.514-5.056
				S64.896,303.765,64.896,306.559z"/>
			<path fill="#EF9D26" d="M78.668,304.495l0.865-0.531l-0.666-0.399l-0.865,0.532c-1.596-0.798-3.526-0.997-4.856-0.199
				c-1.664,0.998-0.599,1.996,0.266,2.86l-1.729,0.999c-0.267-0.267-0.2-0.6,0.199-0.866l-1.996-1.13
				c-1.33,0.864-1.064,1.929,0.333,2.859l-0.865,0.532l0.665,0.399l0.865-0.531c1.796,0.931,3.726,0.865,4.923,0.199
				c1.663-0.999,0.466-1.996-0.333-2.861l1.663-0.998c0.2,0.267,0.133,0.533-0.199,0.732l1.995,1.131
				C80.198,306.426,80.065,305.427,78.668,304.495z M73.811,308.155c-0.399,0.2-0.931,0.266-1.463,0.065l1.53-0.864
				C74.144,307.623,74.21,307.889,73.811,308.155z M75.009,305.826c-0.2-0.332-0.266-0.598,0.133-0.798
				c0.4-0.267,0.931-0.267,1.397-0.066L75.009,305.826z"/>
		</g>
		<g>
			<path fill="#EF9D26" d="M86.851,303.1v2.727c0,3.726-5.522,6.719-12.374,6.719s-12.374-2.993-12.374-6.719V303.1H86.851z"/>
			<path fill="#F9C32A" d="M79.533,312.014c1.064-0.266,2.063-0.599,2.994-0.999v-5.92h-2.994V312.014z"/>
			<path fill="#F9C32A" d="M83.99,310.15c0.932-0.599,1.663-1.331,2.129-2.062v-4.657H83.99V310.15z"/>
			<path fill="#F9DC32" d="M62.036,303.1c0,3.726,5.522,6.719,12.374,6.719s12.375-2.993,12.375-6.719s-5.522-6.72-12.375-6.72
				C67.625,296.38,62.036,299.374,62.036,303.1z"/>
			<path fill="#F9C32A" d="M64.896,303.032c0,2.794,4.258,5.057,9.514,5.057s9.514-2.263,9.514-5.057s-4.258-5.057-9.514-5.057
				S64.896,300.238,64.896,303.032z"/>
			<path fill="#EF9D26" d="M78.668,300.971l0.865-0.533l-0.666-0.398l-0.932,0.533c-1.596-0.8-3.525-0.999-4.856-0.201
				c-1.664,0.998-0.599,1.996,0.266,2.86l-1.73,0.999c-0.266-0.267-0.2-0.6,0.2-0.864l-1.996-1.132
				c-1.331,0.865-1.064,1.929,0.333,2.86l-0.865,0.532l0.666,0.398l0.865-0.531c1.796,0.932,3.726,0.864,4.923,0.199
				c1.664-0.997,0.465-1.995-0.333-2.86l1.663-0.997c0.2,0.265,0.133,0.531-0.199,0.73l1.996,1.132
				C80.198,302.899,80.065,301.901,78.668,300.971z M73.811,304.563c-0.399,0.199-0.931,0.267-1.463,0.067l1.53-0.865
				C74.144,304.097,74.21,304.363,73.811,304.563z M75.009,302.3c-0.2-0.332-0.266-0.599,0.133-0.797
				c0.4-0.267,0.931-0.267,1.397-0.067L75.009,302.3z"/>
		</g>
		<g>
			<path fill="#EF9D26" d="M86.851,299.573v2.727c0,3.726-5.522,6.721-12.374,6.721s-12.374-2.995-12.374-6.721v-2.727H86.851z"/>
			<path fill="#F9C32A" d="M79.533,308.487c1.064-0.267,2.063-0.599,2.994-0.997v-5.921h-2.994V308.487z"/>
			<path fill="#F9C32A" d="M83.99,306.625c0.932-0.6,1.663-1.33,2.129-2.063v-4.657H83.99V306.625z"/>
			<path fill="#F9DC32" d="M62.036,299.573c0,3.726,5.522,6.719,12.374,6.719s12.375-2.993,12.375-6.719s-5.522-6.719-12.375-6.719
				C67.625,292.854,62.036,295.848,62.036,299.573z"/>
			<path fill="#F9C32A" d="M64.896,299.506c0,2.794,4.258,5.057,9.514,5.057s9.514-2.263,9.514-5.057s-4.258-5.055-9.514-5.055
				S64.896,296.712,64.896,299.506z"/>
			<path fill="#EF9D26" d="M78.668,297.444l0.865-0.532l-0.666-0.399l-0.865,0.531c-1.596-0.797-3.526-0.997-4.856-0.197
				c-1.664,0.997-0.599,1.994,0.266,2.859l-1.729,0.998c-0.267-0.267-0.2-0.6,0.199-0.865l-1.996-1.13
				c-1.33,0.864-1.064,1.929,0.333,2.86l-0.865,0.531l0.665,0.4l0.865-0.533c1.796,0.932,3.726,0.865,4.923,0.2
				c1.663-0.998,0.466-1.997-0.333-2.861l1.663-0.998c0.2,0.266,0.133,0.532-0.199,0.733l1.995,1.129
				C80.198,299.374,80.065,298.375,78.668,297.444z M73.811,301.036c-0.399,0.2-0.931,0.267-1.463,0.066l1.53-0.864
				C74.144,300.505,74.21,300.837,73.811,301.036z M75.009,298.709c-0.2-0.334-0.266-0.599,0.133-0.799
				c0.4-0.267,0.931-0.267,1.397-0.066L75.009,298.709z"/>
		</g>
		<g>
			<path fill="#EF9D26" d="M86.851,296.047v2.729c0,3.726-5.522,6.719-12.374,6.719s-12.374-2.993-12.374-6.719v-2.729H86.851z"/>
			<path fill="#F9C32A" d="M79.533,304.896c1.064-0.266,2.063-0.598,2.994-0.998v-5.922h-2.994V304.896z"/>
			<path fill="#F9C32A" d="M83.99,303.1c0.932-0.599,1.663-1.331,2.129-2.063v-4.656H83.99V303.1z"/>
			<path fill="#F9DC32" d="M62.036,296.047c0,3.726,5.522,6.721,12.374,6.721s12.375-2.995,12.375-6.721s-5.522-6.719-12.375-6.719
				C67.625,289.261,62.036,292.321,62.036,296.047z"/>
			<path fill="#F9C32A" d="M64.896,295.915c0,2.794,4.258,5.056,9.514,5.056s9.514-2.262,9.514-5.056s-4.258-5.058-9.514-5.058
				S64.896,293.121,64.896,295.915z"/>
			<path fill="#EF9D26" d="M78.668,293.918l0.865-0.532l-0.666-0.399l-0.865,0.533c-1.596-0.8-3.526-0.998-4.856-0.201
				c-1.664,0.999-0.599,1.998,0.266,2.862l-1.729,0.998c-0.267-0.267-0.2-0.599,0.199-0.865l-1.996-1.132
				c-1.33,0.865-1.064,1.93,0.333,2.861l-0.865,0.531l0.665,0.4l0.865-0.532c1.796,0.932,3.726,0.864,4.923,0.199
				c1.663-0.998,0.466-1.996-0.333-2.861l1.663-0.997c0.2,0.267,0.133,0.533-0.199,0.73l1.995,1.132
				C80.198,295.78,80.065,294.783,78.668,293.918z M73.811,297.512c-0.399,0.199-0.931,0.266-1.463,0.065l1.53-0.865
				C74.144,296.979,74.21,297.311,73.811,297.512z M75.009,295.182c-0.2-0.332-0.266-0.599,0.133-0.797
				c0.4-0.267,0.931-0.267,1.397-0.067L75.009,295.182z"/>
		</g>
	</g>
	<g>
		<g>
			<path fill="#EF9D26" d="M86.851,292.787v2.727c0,3.726-5.522,6.721-12.374,6.721s-12.374-2.995-12.374-6.721v-2.727H86.851z"/>
			<path fill="#F9C32A" d="M79.533,301.701c1.064-0.266,2.063-0.599,2.994-0.997v-5.921h-2.994V301.701z"/>
			<path fill="#F9C32A" d="M83.99,299.839c0.932-0.6,1.663-1.33,2.129-2.062v-4.656H83.99V299.839z"/>
			<path fill="#F9DC32" d="M62.036,292.787c0,3.726,5.522,6.719,12.374,6.719s12.375-2.993,12.375-6.719s-5.522-6.719-12.375-6.719
				C67.625,286.068,62.036,289.062,62.036,292.787z"/>
			<path fill="#F9C32A" d="M64.896,292.72c0,2.794,4.258,5.058,9.514,5.058s9.514-2.264,9.514-5.058s-4.258-5.055-9.514-5.055
				S64.896,289.926,64.896,292.72z"/>
			<path fill="#EF9D26" d="M78.668,290.659l0.865-0.533l-0.666-0.398l-0.865,0.532c-1.596-0.799-3.526-0.999-4.856-0.199
				c-1.664,0.997-0.599,1.994,0.266,2.859l-1.729,0.998c-0.267-0.267-0.2-0.6,0.199-0.864l-1.996-1.131
				c-1.33,0.864-1.064,1.929,0.333,2.86l-0.865,0.533l0.665,0.398l0.865-0.533c1.796,0.932,3.726,0.865,4.923,0.2
				c1.663-0.997,0.466-1.996-0.333-2.86l1.663-0.998c0.2,0.265,0.133,0.531-0.199,0.732l1.995,1.13
				C80.198,292.588,80.065,291.591,78.668,290.659z M73.811,294.25c-0.399,0.201-0.931,0.267-1.463,0.067l1.53-0.864
				C74.144,293.786,74.21,294.053,73.811,294.25z M75.009,291.989c-0.2-0.333-0.266-0.6,0.133-0.799
				c0.4-0.266,0.931-0.266,1.397-0.066L75.009,291.989z"/>
		</g>
		<g>
			<path fill="#EF9D26" d="M86.851,289.261v2.729c0,3.726-5.522,6.72-12.374,6.72s-12.374-2.994-12.374-6.72v-2.729H86.851z"/>
			<path fill="#F9C32A" d="M79.533,298.11c1.064-0.267,2.063-0.599,2.994-0.999v-5.921h-2.994V298.11z"/>
			<path fill="#F9C32A" d="M83.99,296.313c0.932-0.599,1.663-1.33,2.129-2.063v-4.656H83.99V296.313z"/>
			<path fill="#F9DC32" d="M62.036,289.261c0,3.726,5.522,6.721,12.374,6.721s12.375-2.995,12.375-6.721s-5.522-6.719-12.375-6.719
				C67.625,282.475,62.036,285.535,62.036,289.261z"/>
			<path fill="#F9C32A" d="M64.896,289.129c0,2.794,4.258,5.056,9.514,5.056s9.514-2.262,9.514-5.056s-4.258-5.057-9.514-5.057
				S64.896,286.335,64.896,289.129z"/>
			<path fill="#EF9D26" d="M78.668,287.132l0.865-0.532l-0.666-0.399l-0.865,0.533c-1.596-0.798-3.526-0.997-4.856-0.199
				c-1.664,0.998-0.599,1.996,0.266,2.861l-1.729,0.997c-0.267-0.267-0.2-0.599,0.199-0.865l-1.996-1.131
				c-1.33,0.864-1.064,1.931,0.333,2.861l-0.865,0.53l0.665,0.4l0.865-0.532c1.796,0.932,3.726,0.865,4.923,0.199
				c1.663-0.998,0.466-1.996-0.333-2.861l1.663-0.997c0.2,0.267,0.133,0.533-0.199,0.732l1.995,1.13
				C80.198,288.994,80.065,288.063,78.668,287.132z M73.811,290.726c-0.399,0.199-0.931,0.266-1.463,0.065l1.53-0.865
				C74.144,290.192,74.21,290.524,73.811,290.726z M75.009,288.396c-0.2-0.333-0.266-0.599,0.133-0.798
				c0.4-0.267,0.931-0.267,1.397-0.066L75.009,288.396z"/>
		</g>
		<g>
			<path fill="#EF9D26" d="M86.851,285.669v2.728c0,3.726-5.522,6.719-12.374,6.719s-12.374-2.993-12.374-6.719v-2.728H86.851z"/>
			<path fill="#F9C32A" d="M79.533,294.583c1.064-0.266,2.063-0.598,2.994-0.998v-5.92h-2.994V294.583z"/>
			<path fill="#F9C32A" d="M83.99,292.72c0.932-0.598,1.663-1.33,2.129-2.061v-4.657H83.99V292.72z"/>
			<path fill="#F9DC32" d="M62.036,285.669c0,3.726,5.522,6.719,12.374,6.719s12.375-2.993,12.375-6.719s-5.522-6.719-12.375-6.719
				C67.625,278.95,62.036,282.011,62.036,285.669z"/>
			<path fill="#F9C32A" d="M64.896,285.603c0,2.794,4.258,5.057,9.514,5.057s9.514-2.263,9.514-5.057s-4.258-5.057-9.514-5.057
				S64.896,282.809,64.896,285.603z"/>
			<path fill="#EF9D26" d="M78.668,283.541l0.865-0.533l-0.666-0.398l-0.865,0.531c-1.596-0.798-3.526-0.998-4.856-0.199
				c-1.664,0.998-0.599,1.995,0.266,2.86l-1.729,0.997c-0.267-0.265-0.2-0.599,0.199-0.863l-1.996-1.131
				c-1.33,0.865-1.064,1.929,0.333,2.86l-0.865,0.532l0.665,0.398l0.865-0.532c1.796,0.931,3.726,0.865,4.923,0.2
				c1.663-0.997,0.466-1.996-0.333-2.86l1.663-0.999c0.2,0.267,0.133,0.532-0.199,0.732l1.995,1.131
				C80.198,285.47,80.065,284.472,78.668,283.541z M73.811,287.199c-0.399,0.199-0.931,0.267-1.463,0.067l1.53-0.866
				C74.144,286.667,74.21,286.934,73.811,287.199z M75.009,284.87c-0.2-0.332-0.266-0.599,0.133-0.798
				c0.4-0.267,0.931-0.267,1.397-0.067L75.009,284.87z"/>
		</g>
		<g>
			<path fill="#EF9D26" d="M86.851,282.143v2.728c0,3.726-5.522,6.721-12.374,6.721s-12.374-2.995-12.374-6.721v-2.728H86.851z"/>
			<path fill="#F9C32A" d="M79.533,291.058c1.064-0.267,2.063-0.599,2.994-0.997v-5.921h-2.994V291.058z"/>
			<path fill="#F9C32A" d="M83.99,289.195c0.932-0.6,1.663-1.33,2.129-2.063v-4.657H83.99V289.195z"/>
			<path fill="#F9DC32" d="M62.036,282.143c0,3.726,5.522,6.72,12.374,6.72s12.375-2.994,12.375-6.72s-5.522-6.719-12.375-6.719
				C67.625,275.424,62.036,278.417,62.036,282.143z"/>
			<path fill="#F9C32A" d="M64.896,282.076c0,2.794,4.258,5.056,9.514,5.056s9.514-2.262,9.514-5.056s-4.258-5.055-9.514-5.055
				S64.896,279.282,64.896,282.076z"/>
			<path fill="#EF9D26" d="M78.668,280.015l0.865-0.532l-0.666-0.399l-0.865,0.531c-1.596-0.798-3.526-0.997-4.856-0.199
				c-1.664,0.999-0.599,1.996,0.266,2.861l-1.729,0.998c-0.267-0.267-0.2-0.6,0.199-0.865l-1.996-1.131
				c-1.33,0.864-1.064,1.93,0.333,2.861l-0.865,0.531l0.665,0.4l0.865-0.533c1.796,0.932,3.726,0.865,4.923,0.199
				c1.663-0.997,0.466-1.996-0.333-2.86l1.663-0.998c0.2,0.266,0.133,0.532-0.199,0.731l1.995,1.131
				C80.198,281.943,80.065,280.945,78.668,280.015z M73.811,283.673c-0.399,0.2-0.931,0.267-1.463,0.067l1.53-0.866
				C74.144,283.141,74.21,283.406,73.811,283.673z M75.009,281.346c-0.2-0.334-0.266-0.6,0.133-0.8
				c0.4-0.267,0.931-0.267,1.397-0.065L75.009,281.346z"/>
		</g>
	</g>
	<g>
		<g>
			<path fill="#EF9D26" d="M86.851,278.95v2.728c0,3.726-5.522,6.719-12.374,6.719s-12.374-2.993-12.374-6.719v-2.728H86.851z"/>
			<path fill="#F9C32A" d="M79.533,287.798c1.064-0.267,2.063-0.599,2.994-0.999v-5.92h-2.994V287.798z"/>
			<path fill="#F9C32A" d="M83.99,286.002c0.932-0.599,1.663-1.331,2.129-2.063v-4.657H83.99V286.002z"/>
			<path fill="#F9DC32" d="M62.036,278.95c0,3.725,5.522,6.719,12.374,6.719s12.375-2.994,12.375-6.719
				c0-3.726-5.522-6.721-12.375-6.721C67.625,272.164,62.036,275.225,62.036,278.95z"/>
			<path fill="#F9C32A" d="M64.896,278.816c0,2.794,4.258,5.057,9.514,5.057s9.514-2.263,9.514-5.057s-4.258-5.057-9.514-5.057
				S64.896,276.022,64.896,278.816z"/>
			<path fill="#EF9D26" d="M78.668,276.82l0.865-0.531l-0.666-0.4l-0.865,0.533c-1.596-0.799-3.526-0.998-4.856-0.2
				c-1.664,0.999-0.599,1.996,0.266,2.861l-1.729,0.997c-0.267-0.265-0.2-0.598,0.199-0.864l-1.996-1.132
				c-1.33,0.866-1.064,1.931,0.333,2.861l-0.865,0.532l0.665,0.399l0.865-0.531c1.796,0.931,3.726,0.864,4.923,0.197
				c1.663-0.997,0.466-1.994-0.333-2.859l1.663-0.998c0.2,0.267,0.133,0.532-0.199,0.731l1.995,1.132
				C80.198,278.684,80.065,277.686,78.668,276.82z M73.811,280.414c-0.399,0.198-0.931,0.266-1.463,0.066l1.53-0.866
				C74.144,279.881,74.21,280.214,73.811,280.414z M75.009,278.084c-0.2-0.332-0.266-0.599,0.133-0.798
				c0.4-0.265,0.931-0.265,1.397-0.065L75.009,278.084z"/>
		</g>
		<g>
			<path fill="#EF9D26" d="M86.851,275.357v2.727c0,3.726-5.522,6.721-12.374,6.721s-12.374-2.995-12.374-6.721v-2.727H86.851z"/>
			<path fill="#F9C32A" d="M79.533,284.271c1.064-0.267,2.063-0.599,2.994-0.997v-5.921h-2.994V284.271z"/>
			<path fill="#F9C32A" d="M83.99,282.409c0.932-0.6,1.663-1.33,2.129-2.063v-4.657H83.99V282.409z"/>
			<path fill="#F9DC32" d="M62.036,275.357c0,3.726,5.522,6.719,12.374,6.719s12.375-2.993,12.375-6.719s-5.522-6.719-12.375-6.719
				C67.625,268.639,62.036,271.632,62.036,275.357z"/>
			<path fill="#F9C32A" d="M64.896,275.29c0,2.794,4.258,5.057,9.514,5.057s9.514-2.263,9.514-5.057s-4.258-5.055-9.514-5.055
				S64.896,272.496,64.896,275.29z"/>
			<path fill="#EF9D26" d="M78.668,273.229l0.865-0.532l-0.666-0.399l-0.865,0.531c-1.596-0.797-3.526-0.997-4.856-0.199
				c-1.664,0.999-0.599,1.996,0.266,2.861l-1.729,0.998c-0.267-0.267-0.2-0.6,0.199-0.865l-1.996-1.131
				c-1.33,0.865-1.064,1.93,0.333,2.861l-0.865,0.531l0.665,0.4l0.865-0.533c1.796,0.932,3.726,0.865,4.923,0.2
				c1.663-0.998,0.466-1.997-0.333-2.861l1.663-0.998c0.2,0.266,0.133,0.532-0.199,0.733l1.995,1.129
				C80.198,275.158,80.065,274.159,78.668,273.229z M73.811,276.887c-0.399,0.2-0.931,0.267-1.463,0.067l1.53-0.864
				C74.144,276.354,74.21,276.621,73.811,276.887z M75.009,274.56c-0.2-0.333-0.266-0.599,0.133-0.8
				c0.4-0.265,0.931-0.265,1.397-0.065L75.009,274.56z"/>
		</g>
		<g>
			<path fill="#EF9D26" d="M86.851,271.831v2.729c0,3.726-5.522,6.719-12.374,6.719s-12.374-2.993-12.374-6.719v-2.729H86.851z"/>
			<path fill="#F9C32A" d="M79.533,280.746c1.064-0.266,2.063-0.599,2.994-0.998v-5.921h-2.994V280.746z"/>
			<path fill="#F9C32A" d="M83.99,278.884c0.932-0.599,1.663-1.331,2.129-2.063v-4.656H83.99V278.884z"/>
			<path fill="#F9DC32" d="M62.036,271.831c0,3.726,5.522,6.721,12.374,6.721s12.375-2.995,12.375-6.721s-5.522-6.719-12.375-6.719
				C67.625,265.112,62.036,268.105,62.036,271.831z"/>
			<path fill="#F9C32A" d="M64.896,271.766c0,2.794,4.258,5.055,9.514,5.055s9.514-2.261,9.514-5.055
				c0-2.795-4.258-5.057-9.514-5.057S64.896,268.971,64.896,271.766z"/>
			<path fill="#EF9D26" d="M78.668,269.702l0.865-0.532l-0.666-0.399l-0.932,0.533c-1.596-0.8-3.525-0.997-4.856-0.2
				c-1.664,0.998-0.599,1.997,0.266,2.861l-1.73,0.998c-0.266-0.267-0.2-0.599,0.2-0.865l-1.996-1.132
				c-1.331,0.865-1.064,1.93,0.333,2.861l-0.865,0.531l0.666,0.4l0.865-0.532c1.796,0.932,3.726,0.864,4.923,0.199
				c1.664-0.998,0.465-1.996-0.333-2.861l1.663-0.997c0.2,0.267,0.133,0.533-0.199,0.73l1.996,1.132
				C80.198,271.632,80.065,270.634,78.668,269.702z M73.811,273.296c-0.399,0.199-0.931,0.265-1.463,0.065l1.53-0.865
				C74.144,272.828,74.21,273.095,73.811,273.296z M75.009,271.033c-0.2-0.333-0.266-0.599,0.133-0.798
				c0.4-0.267,0.931-0.267,1.397-0.066L75.009,271.033z"/>
		</g>
		<g>
			<path fill="#EF9D26" d="M86.851,268.307v2.727c0,3.726-5.522,6.719-12.374,6.719s-12.374-2.993-12.374-6.719v-2.727H86.851z"/>
			<path fill="#F9C32A" d="M79.533,277.221c1.064-0.267,2.063-0.6,2.994-0.999v-5.921h-2.994V277.221z"/>
			<path fill="#F9C32A" d="M83.99,275.357c0.932-0.599,1.663-1.331,2.129-2.062v-4.657H83.99V275.357z"/>
			<path fill="#F9DC32" d="M62.036,268.307c0,3.725,5.522,6.717,12.374,6.717s12.375-2.992,12.375-6.717
				c0-3.726-5.522-6.721-12.375-6.721C67.625,261.586,62.036,264.581,62.036,268.307z"/>
			<path fill="#F9C32A" d="M64.896,268.239c0,2.794,4.258,5.057,9.514,5.057s9.514-2.263,9.514-5.057s-4.258-5.057-9.514-5.057
				C69.154,263.116,64.896,265.445,64.896,268.239z"/>
			<path fill="#EF9D26" d="M78.668,266.177l0.865-0.532l-0.666-0.398l-0.865,0.531c-1.596-0.798-3.526-0.999-4.856-0.199
				c-1.664,0.997-0.599,1.994,0.266,2.86l-1.729,0.997c-0.267-0.266-0.2-0.598,0.199-0.864l-1.996-1.131
				c-1.33,0.866-1.064,1.929,0.333,2.86l-0.865,0.533l0.665,0.398l0.865-0.532c1.796,0.932,3.726,0.864,4.923,0.199
				c1.663-0.997,0.466-1.995-0.333-2.859l1.663-0.999c0.2,0.267,0.133,0.531-0.199,0.732l1.995,1.131
				C80.198,268.105,80.065,267.108,78.668,266.177z M73.811,269.77c-0.399,0.199-0.931,0.265-1.463,0.065l1.53-0.864
				C74.144,269.237,74.21,269.57,73.811,269.77z M75.009,267.44c-0.2-0.332-0.266-0.599,0.133-0.799
				c0.4-0.266,0.931-0.266,1.397-0.066L75.009,267.44z"/>
		</g>
	</g>
	<g>
		<g>
			<path fill="#EF9D26" d="M67.957,317.534v2.729c0,3.726-5.521,6.72-12.375,6.72c-6.852,0-12.374-2.994-12.374-6.72v-2.729H67.957z
				"/>
			<path fill="#F9C32A" d="M60.639,326.384c1.064-0.267,2.062-0.599,2.994-0.998v-5.921h-2.994V326.384z"/>
			<path fill="#F9C32A" d="M65.163,324.587c0.931-0.599,1.663-1.329,2.128-2.062v-4.657h-2.128V324.587z"/>
			<path fill="#F9DC32" d="M43.209,317.534c0,3.728,5.521,6.721,12.374,6.721c6.853,0,12.375-2.993,12.375-6.721
				c0-3.725-5.521-6.717-12.375-6.717C48.73,310.75,43.209,313.81,43.209,317.534z"/>
			<path fill="#F9C32A" d="M46.07,317.402c0,2.795,4.258,5.056,9.513,5.056c5.256,0,9.514-2.261,9.514-5.056
				c0-2.794-4.258-5.057-9.514-5.057C50.328,312.346,46.07,314.608,46.07,317.402z"/>
			<path fill="#EF9D26" d="M59.84,315.34l0.865-0.532l-0.665-0.399l-0.865,0.533c-1.597-0.799-3.526-0.998-4.857-0.201
				c-1.663,0.999-0.599,1.997,0.266,2.861l-1.729,0.999c-0.266-0.267-0.199-0.599,0.2-0.865l-1.996-1.132
				c-1.331,0.865-1.064,1.93,0.333,2.861l-0.865,0.531l0.666,0.4l0.865-0.532c1.796,0.932,3.726,0.864,4.923,0.199
				c1.663-0.999,0.465-1.996-0.333-2.861l1.663-0.997c0.2,0.267,0.133,0.532-0.199,0.731l1.996,1.131
				C61.371,317.27,61.171,316.271,59.84,315.34z M54.984,318.999c-0.4,0.2-0.931,0.267-1.464,0.065l1.53-0.863
				C55.317,318.466,55.383,318.8,54.984,318.999z M56.182,316.671c-0.2-0.333-0.266-0.6,0.133-0.799
				c0.399-0.267,0.931-0.267,1.397-0.065L56.182,316.671z"/>
		</g>
		<g>
			<path fill="#EF9D26" d="M67.957,313.943v2.728c0,3.726-5.521,6.719-12.375,6.719c-6.852,0-12.374-2.993-12.374-6.719v-2.728
				H67.957z"/>
			<path fill="#F9C32A" d="M60.639,322.857c1.064-0.267,2.062-0.599,2.994-0.997v-5.922h-2.994V322.857z"/>
			<path fill="#F9C32A" d="M65.163,320.995c0.931-0.599,1.663-1.331,2.128-2.063v-4.656h-2.128V320.995z"/>
			<path fill="#F9DC32" d="M43.209,313.943c0,3.726,5.521,6.719,12.374,6.719c6.853,0,12.375-2.993,12.375-6.719
				s-5.521-6.72-12.375-6.72C48.73,307.224,43.209,310.218,43.209,313.943z"/>
			<ellipse fill="#F9C32A" cx="55.583" cy="313.876" rx="9.514" ry="5.057"/>
			<path fill="#EF9D26" d="M59.84,311.814l0.865-0.533l-0.665-0.398l-0.865,0.532c-1.597-0.799-3.526-0.998-4.857-0.199
				c-1.663,0.997-0.599,1.996,0.266,2.859l-1.729,0.999c-0.266-0.267-0.199-0.599,0.2-0.865l-1.996-1.131
				c-1.331,0.865-1.064,1.929,0.333,2.86l-0.865,0.533l0.666,0.398l0.865-0.532c1.796,0.932,3.726,0.864,4.923,0.199
				c1.663-0.997,0.465-1.994-0.333-2.86l1.663-0.997c0.2,0.266,0.133,0.532-0.199,0.731l1.996,1.132
				C61.371,313.743,61.171,312.746,59.84,311.814z M54.984,315.474c-0.4,0.198-0.931,0.266-1.464,0.066l1.53-0.865
				C55.317,314.941,55.383,315.207,54.984,315.474z M56.182,313.145c-0.2-0.333-0.266-0.6,0.133-0.799
				c0.399-0.265,0.931-0.265,1.397-0.065L56.182,313.145z"/>
		</g>
		<g>
			<path fill="#EF9D26" d="M67.957,310.417v2.728c0,3.726-5.521,6.72-12.375,6.72c-6.852,0-12.374-2.994-12.374-6.72v-2.728H67.957z
				"/>
			<path fill="#F9C32A" d="M60.639,319.331c1.064-0.267,2.062-0.599,2.994-0.997v-5.921h-2.994V319.331z"/>
			<path fill="#F9C32A" d="M65.163,317.469c0.931-0.599,1.663-1.33,2.128-2.063v-4.656h-2.128V317.469z"/>
			<path fill="#F9DC32" d="M43.209,310.417c0,3.726,5.521,6.719,12.374,6.719c6.853,0,12.375-2.993,12.375-6.719
				s-5.521-6.719-12.375-6.719C48.73,303.698,43.209,306.691,43.209,310.417z"/>
			<ellipse fill="#F9C32A" cx="55.583" cy="310.351" rx="9.514" ry="5.056"/>
			<path fill="#EF9D26" d="M59.84,308.288l0.865-0.531l-0.665-0.4l-0.865,0.532c-1.597-0.797-3.526-0.998-4.857-0.199
				c-1.663,0.998-0.599,1.996,0.266,2.861l-1.729,0.997c-0.266-0.267-0.199-0.599,0.2-0.865l-1.996-1.131
				c-1.331,0.865-1.064,1.931,0.333,2.861l-0.865,0.532l0.666,0.399l0.865-0.533c1.796,0.932,3.726,0.865,4.923,0.201
				c1.663-0.999,0.465-1.998-0.333-2.862l1.663-0.998c0.2,0.267,0.133,0.533-0.199,0.733l1.996,1.129
				C61.371,310.218,61.171,309.22,59.84,308.288z M54.984,311.881c-0.4,0.2-0.931,0.266-1.464,0.065l1.53-0.864
				C55.317,311.415,55.383,311.682,54.984,311.881z M56.182,309.619c-0.2-0.332-0.266-0.599,0.133-0.8
				c0.399-0.265,0.931-0.265,1.397-0.065L56.182,309.619z"/>
		</g>
		<g>
			<path fill="#EF9D26" d="M67.957,306.891v2.729c0,3.726-5.521,6.719-12.375,6.719c-6.852,0-12.374-2.993-12.374-6.719v-2.729
				H67.957z"/>
			<path fill="#F9C32A" d="M60.639,315.807c1.064-0.267,2.062-0.6,2.994-0.999v-5.921h-2.994V315.807z"/>
			<path fill="#F9C32A" d="M65.163,313.943c0.931-0.599,1.663-1.331,2.128-2.063v-4.657h-2.128V313.943z"/>
			<path fill="#F9DC32" d="M43.209,306.891c0,3.726,5.521,6.721,12.374,6.721c6.853,0,12.375-2.995,12.375-6.721
				c0-3.725-5.521-6.719-12.375-6.719C48.73,300.172,43.209,303.166,43.209,306.891z"/>
			<path fill="#F9C32A" d="M46.07,306.825c0,2.794,4.258,5.056,9.513,5.056c5.256,0,9.514-2.262,9.514-5.056
				s-4.258-5.057-9.514-5.057C50.328,301.701,46.07,304.031,46.07,306.825z"/>
			<path fill="#EF9D26" d="M59.84,304.762l0.865-0.531l-0.665-0.4l-0.865,0.533c-1.597-0.799-3.526-0.997-4.857-0.2
				c-1.663,0.998-0.599,1.997,0.266,2.861l-1.729,0.998c-0.266-0.266-0.199-0.599,0.2-0.865l-1.996-1.132
				c-1.331,0.865-1.064,1.931,0.333,2.861l-0.865,0.532l0.666,0.399l0.865-0.531c1.796,0.931,3.726,0.863,4.923,0.199
				c1.663-0.999,0.465-1.996-0.333-2.861l1.663-0.998c0.2,0.267,0.133,0.533-0.199,0.731l1.996,1.132
				C61.371,306.691,61.171,305.693,59.84,304.762z M54.984,308.355c-0.4,0.199-0.931,0.265-1.464,0.065l1.53-0.865
				C55.317,307.822,55.383,308.155,54.984,308.355z M56.182,306.025c-0.2-0.332-0.266-0.599,0.133-0.797
				c0.399-0.267,0.931-0.267,1.397-0.067L56.182,306.025z"/>
		</g>
	</g>
	<g>
		<g>
			<path fill="#EF9D26" d="M67.957,303.631v2.728c0,3.726-5.521,6.72-12.375,6.72c-6.852,0-12.374-2.994-12.374-6.72v-2.728H67.957z
				"/>
			<path fill="#F9C32A" d="M60.639,312.545c1.064-0.265,2.062-0.599,2.994-0.997v-5.921h-2.994V312.545z"/>
			<path fill="#F9C32A" d="M65.163,310.683c0.931-0.599,1.663-1.33,2.128-2.063v-4.656h-2.128V310.683z"/>
			<path fill="#F9DC32" d="M43.209,303.631c0,3.726,5.521,6.719,12.374,6.719c6.853,0,12.375-2.993,12.375-6.719
				s-5.521-6.719-12.375-6.719C48.73,296.912,43.209,299.905,43.209,303.631z"/>
			<ellipse fill="#F9C32A" cx="55.583" cy="303.564" rx="9.514" ry="5.056"/>
			<path fill="#EF9D26" d="M59.84,301.503l0.865-0.532l-0.665-0.398l-0.865,0.531c-1.597-0.798-3.526-0.999-4.857-0.199
				c-1.663,0.997-0.599,1.995,0.266,2.86l-1.729,0.997c-0.266-0.267-0.199-0.599,0.2-0.864l-1.996-1.13
				c-1.331,0.863-1.064,1.929,0.333,2.859l-0.865,0.533l0.666,0.398l0.865-0.533c1.796,0.932,3.726,0.865,4.923,0.201
				c1.663-0.998,0.465-1.996-0.333-2.86l1.663-0.999c0.2,0.266,0.133,0.532-0.199,0.732l1.996,1.131
				C61.371,303.432,61.171,302.435,59.84,301.503z M54.984,305.161c-0.4,0.199-0.931,0.266-1.464,0.067l1.53-0.865
				C55.317,304.63,55.383,304.896,54.984,305.161z M56.182,302.833c-0.2-0.332-0.266-0.599,0.133-0.798
				c0.399-0.267,0.931-0.267,1.397-0.067L56.182,302.833z"/>
		</g>
		<g>
			<path fill="#EF9D26" d="M67.957,300.104v2.729c0,3.726-5.521,6.719-12.375,6.719c-6.852,0-12.374-2.993-12.374-6.719v-2.729
				H67.957z"/>
			<path fill="#F9C32A" d="M60.639,309.021c1.064-0.267,2.062-0.6,2.994-0.998v-5.922h-2.994V309.021z"/>
			<path fill="#F9C32A" d="M65.163,307.157c0.931-0.599,1.663-1.331,2.128-2.063v-4.657h-2.128V307.157z"/>
			<path fill="#F9DC32" d="M43.209,300.104c0,3.726,5.521,6.721,12.374,6.721c6.853,0,12.375-2.995,12.375-6.721
				c0-3.725-5.521-6.719-12.375-6.719C48.73,293.386,43.209,296.38,43.209,300.104z"/>
			<ellipse fill="#F9C32A" cx="55.583" cy="300.039" rx="9.514" ry="5.056"/>
			<path fill="#EF9D26" d="M59.84,297.976l0.865-0.531l-0.665-0.4l-0.865,0.533c-1.597-0.798-3.526-0.997-4.857-0.2
				c-1.663,0.998-0.599,1.997,0.266,2.861l-1.729,0.998c-0.266-0.266-0.199-0.599,0.2-0.865l-1.996-1.132
				c-1.331,0.865-1.064,1.931,0.333,2.861l-0.865,0.532l0.666,0.399l0.865-0.531c1.796,0.931,3.726,0.865,4.923,0.199
				c1.663-0.999,0.465-1.996-0.333-2.861l1.663-0.998c0.2,0.267,0.133,0.533-0.199,0.732l1.996,1.131
				C61.371,299.905,61.171,298.907,59.84,297.976z M54.984,301.569c-0.4,0.199-0.931,0.267-1.464,0.065l1.53-0.865
				C55.317,301.103,55.383,301.369,54.984,301.569z M56.182,299.239c-0.2-0.332-0.266-0.598,0.133-0.797
				c0.399-0.267,0.931-0.267,1.397-0.067L56.182,299.239z"/>
		</g>
		<g>
			<path fill="#EF9D26" d="M67.957,296.58v2.727c0,3.726-5.521,6.719-12.375,6.719c-6.852,0-12.374-2.993-12.374-6.719v-2.727
				H67.957z"/>
			<path fill="#F9C32A" d="M60.639,305.427c1.064-0.266,2.062-0.599,2.994-0.997v-5.921h-2.994V305.427z"/>
			<path fill="#F9C32A" d="M65.163,303.631c0.931-0.599,1.663-1.331,2.128-2.062v-4.657h-2.128V303.631z"/>
			<path fill="#F9DC32" d="M43.209,296.58c0,3.726,5.521,6.719,12.374,6.719c6.853,0,12.375-2.993,12.375-6.719
				s-5.521-6.721-12.375-6.721C48.73,289.794,43.209,292.854,43.209,296.58z"/>
			<path fill="#F9C32A" d="M46.07,296.445c0,2.794,4.258,5.058,9.513,5.058c5.256,0,9.514-2.264,9.514-5.058
				s-4.258-5.056-9.514-5.056C50.328,291.39,46.07,293.651,46.07,296.445z"/>
			<path fill="#EF9D26" d="M59.84,294.451l0.865-0.533l-0.665-0.398l-0.865,0.533c-1.597-0.8-3.526-0.999-4.857-0.201
				c-1.663,0.998-0.599,1.996,0.266,2.86l-1.729,0.999c-0.266-0.267-0.199-0.6,0.2-0.864l-1.996-1.132
				c-1.331,0.865-1.064,1.929,0.333,2.859l-0.865,0.533l0.666,0.398l0.865-0.531c1.796,0.931,3.726,0.864,4.923,0.199
				c1.663-0.998,0.465-1.995-0.333-2.86l1.663-0.997c0.2,0.265,0.133,0.531-0.199,0.73l1.996,1.132
				C61.371,296.313,61.171,295.382,59.84,294.451z M54.984,298.043c-0.4,0.199-0.931,0.267-1.464,0.067l1.53-0.865
				C55.317,297.512,55.383,297.844,54.984,298.043z M56.182,295.715c-0.2-0.333-0.266-0.6,0.133-0.799
				c0.399-0.266,0.931-0.266,1.397-0.066L56.182,295.715z"/>
		</g>
		<g>
			<path fill="#EF9D26" d="M67.957,292.986v2.729c0,3.726-5.521,6.72-12.375,6.72c-6.852,0-12.374-2.994-12.374-6.72v-2.729H67.957z
				"/>
			<path fill="#F9C32A" d="M60.639,301.901c1.064-0.267,2.062-0.599,2.994-0.997v-5.921h-2.994V301.901z"/>
			<path fill="#F9C32A" d="M65.163,300.039c0.931-0.599,1.663-1.33,2.128-2.063v-4.657h-2.128V300.039z"/>
			<path fill="#F9DC32" d="M43.209,292.986c0,3.726,5.521,6.72,12.374,6.72c6.853,0,12.375-2.994,12.375-6.72
				s-5.521-6.719-12.375-6.719C48.73,286.268,43.209,289.328,43.209,292.986z"/>
			<ellipse fill="#F9C32A" cx="55.583" cy="292.92" rx="9.514" ry="5.055"/>
			<path fill="#EF9D26" d="M59.84,290.857l0.865-0.53l-0.665-0.401l-0.865,0.533c-1.597-0.799-3.526-0.998-4.857-0.199
				c-1.663,0.998-0.599,1.996,0.266,2.861l-1.729,0.997c-0.266-0.267-0.199-0.599,0.2-0.865l-1.996-1.131
				c-1.331,0.864-1.064,1.931,0.333,2.861l-0.865,0.53l0.666,0.401l0.865-0.533c1.796,0.932,3.726,0.865,4.923,0.199
				c1.663-0.998,0.465-1.996-0.333-2.861l1.663-0.997c0.2,0.267,0.133,0.533-0.199,0.732l1.996,1.13
				C61.371,292.787,61.171,291.788,59.84,290.857z M54.984,294.517c-0.4,0.2-0.931,0.267-1.464,0.066l1.53-0.864
				C55.317,293.985,55.383,294.25,54.984,294.517z M56.182,292.189c-0.2-0.334-0.266-0.599,0.133-0.8
				c0.399-0.266,0.931-0.266,1.397-0.065L56.182,292.189z"/>
		</g>
	</g>
	<g>
		<g>
			<path fill="#EF9D26" d="M67.957,289.794v2.728c0,3.726-5.521,6.718-12.375,6.718c-6.852,0-12.374-2.992-12.374-6.718v-2.728
				H67.957z"/>
			<path fill="#F9C32A" d="M60.639,298.709c1.064-0.267,2.062-0.599,2.994-0.998v-5.923h-2.994V298.709z"/>
			<path fill="#F9C32A" d="M65.163,296.847c0.931-0.6,1.663-1.333,2.128-2.063v-4.657h-2.128V296.847z"/>
			<path fill="#F9DC32" d="M43.209,289.794c0,3.726,5.521,6.719,12.374,6.719c6.853,0,12.375-2.993,12.375-6.719
				s-5.521-6.721-12.375-6.721C48.73,283.073,43.209,286.068,43.209,289.794z"/>
			<ellipse fill="#F9C32A" cx="55.583" cy="289.727" rx="9.514" ry="5.056"/>
			<path fill="#EF9D26" d="M59.84,287.665l0.865-0.533l-0.665-0.398l-0.865,0.533c-1.597-0.8-3.526-0.999-4.857-0.201
				c-1.663,0.998-0.599,1.996,0.266,2.86l-1.729,0.999c-0.266-0.266-0.199-0.6,0.2-0.864l-1.996-1.132
				c-1.331,0.865-1.064,1.929,0.333,2.859l-0.865,0.533l0.666,0.398l0.865-0.531c1.796,0.933,3.726,0.865,4.923,0.199
				c1.663-0.998,0.465-1.995-0.333-2.86l1.663-0.997c0.2,0.267,0.133,0.531-0.199,0.73l1.996,1.132
				C61.371,289.594,61.171,288.596,59.84,287.665z M54.984,291.258c-0.4,0.198-0.931,0.266-1.464,0.066l1.53-0.865
				C55.317,290.726,55.383,291.058,54.984,291.258z M56.182,288.929c-0.2-0.333-0.266-0.6,0.133-0.799
				c0.399-0.265,0.931-0.265,1.397-0.066L56.182,288.929z"/>
		</g>
	</g>
	<g>
		<g>
			<path fill="#EF9D26" d="M49.13,328.38v2.727c0,3.726-5.522,6.72-12.374,6.72c-6.853,0-12.375-2.994-12.375-6.72v-2.727H49.13z"/>
			<path fill="#F9C32A" d="M41.812,337.229c1.064-0.267,2.062-0.6,2.993-0.999v-5.921h-2.993V337.229z"/>
			<path fill="#F9C32A" d="M46.269,335.432c0.931-0.6,1.664-1.331,2.129-2.063v-4.656h-2.129V335.432z"/>
			<path fill="#F9DC32" d="M24.381,328.38c0,3.726,5.522,6.719,12.375,6.719c6.852,0,12.374-2.993,12.374-6.719
				s-5.522-6.72-12.374-6.72C29.903,321.66,24.381,324.654,24.381,328.38z"/>
			<path fill="#F9C32A" d="M27.242,328.313c0,2.794,4.258,5.057,9.514,5.057c5.255,0,9.513-2.263,9.513-5.057
				s-4.258-5.055-9.513-5.055C31.5,323.19,27.242,325.452,27.242,328.313z"/>
			<path fill="#EF9D26" d="M40.947,326.251l0.865-0.533l-0.666-0.398l-0.865,0.531c-1.597-0.798-3.526-0.997-4.857-0.199
				c-1.663,0.998-0.598,1.996,0.267,2.86l-1.729,0.999c-0.267-0.267-0.2-0.599,0.199-0.865l-1.996-1.131
				c-1.331,0.865-1.064,1.929,0.333,2.86l-0.865,0.532l0.665,0.398l0.865-0.531c1.796,0.932,3.726,0.865,4.923,0.199
				c1.663-0.997,0.466-1.996-0.333-2.86l1.664-0.998c0.199,0.266,0.133,0.532-0.2,0.731l1.996,1.131
				C42.543,328.18,42.344,327.182,40.947,326.251z M36.157,329.843c-0.399,0.199-0.932,0.267-1.464,0.066l1.53-0.864
				C36.489,329.312,36.556,329.644,36.157,329.843z M37.354,327.515c-0.199-0.333-0.266-0.599,0.133-0.798
				c0.399-0.267,0.932-0.267,1.397-0.067L37.354,327.515z"/>
		</g>
		<g>
			<path fill="#EF9D26" d="M49.13,324.854v2.727c0,3.726-5.522,6.721-12.374,6.721c-6.853,0-12.375-2.995-12.375-6.721v-2.727H49.13
				z"/>
			<path fill="#F9C32A" d="M41.812,333.702c1.064-0.267,2.062-0.6,2.993-0.999v-5.921h-2.993V333.702z"/>
			<path fill="#F9C32A" d="M46.269,331.905c0.931-0.6,1.664-1.33,2.129-2.063v-4.656h-2.129V331.905z"/>
			<path fill="#F9DC32" d="M24.381,324.854c0,3.726,5.522,6.719,12.375,6.719c6.852,0,12.374-2.993,12.374-6.719
				s-5.522-6.72-12.374-6.72C29.903,318.067,24.381,321.128,24.381,324.854z"/>
			<path fill="#F9C32A" d="M27.242,324.721c0,2.794,4.258,5.057,9.514,5.057c5.255,0,9.513-2.263,9.513-5.057
				s-4.258-5.057-9.513-5.057C31.5,319.664,27.242,321.927,27.242,324.721z"/>
			<path fill="#EF9D26" d="M40.947,322.658l0.865-0.532l-0.666-0.398l-0.865,0.531c-1.597-0.798-3.526-0.997-4.857-0.199
				c-1.663,0.997-0.598,1.996,0.267,2.86l-1.729,0.998c-0.267-0.267-0.2-0.599,0.199-0.865l-1.996-1.131
				c-1.331,0.864-1.064,1.929,0.333,2.86l-0.865,0.533l0.665,0.398l0.865-0.532c1.796,0.932,3.726,0.864,4.923,0.199
				c1.663-0.997,0.466-1.995-0.333-2.859l1.664-0.999c0.199,0.267,0.133,0.533-0.2,0.732l1.996,1.131
				C42.543,324.587,42.344,323.59,40.947,322.658z M36.157,326.316c-0.399,0.201-0.932,0.267-1.464,0.067l1.53-0.865
				C36.489,325.785,36.556,326.052,36.157,326.316z M37.354,323.988c-0.199-0.332-0.266-0.599,0.133-0.798
				c0.399-0.267,0.932-0.267,1.397-0.066L37.354,323.988z"/>
		</g>
		<g>
			<path fill="#EF9D26" d="M49.13,321.262v2.727c0,3.726-5.522,6.72-12.374,6.72c-6.853,0-12.375-2.994-12.375-6.72v-2.727H49.13z"
				/>
			<path fill="#F9C32A" d="M41.812,330.176c1.064-0.267,2.062-0.6,2.993-0.998v-5.92h-2.993V330.176z"/>
			<path fill="#F9C32A" d="M46.269,328.313c0.931-0.599,1.664-1.33,2.129-2.062v-4.657h-2.129V328.313z"/>
			<path fill="#F9DC32" d="M24.381,321.262c0,3.726,5.522,6.719,12.375,6.719c6.852,0,12.374-2.993,12.374-6.719
				c0-3.728-5.522-6.719-12.374-6.719C29.903,314.543,24.381,317.534,24.381,321.262z"/>
			<path fill="#F9C32A" d="M27.242,321.194c0,2.794,4.258,5.057,9.514,5.057c5.255,0,9.513-2.263,9.513-5.057
				s-4.258-5.056-9.513-5.056C31.5,316.139,27.242,318.4,27.242,321.194z"/>
			<path fill="#EF9D26" d="M40.947,319.132l0.865-0.531l-0.666-0.399l-0.865,0.531c-1.597-0.798-3.526-0.997-4.857-0.199
				c-1.663,0.999-0.598,1.996,0.267,2.861l-1.729,0.997c-0.267-0.266-0.2-0.599,0.199-0.865l-1.996-1.13
				c-1.331,0.865-1.064,1.93,0.333,2.861l-0.865,0.531l0.665,0.399l0.865-0.532c1.796,0.931,3.726,0.865,4.923,0.199
				c1.663-0.998,0.466-1.995-0.333-2.86l1.664-0.999c0.199,0.267,0.133,0.533-0.2,0.732l1.996,1.132
				C42.543,321.061,42.344,320.063,40.947,319.132z M36.157,322.792c-0.399,0.199-0.932,0.265-1.464,0.065l1.53-0.865
				C36.489,322.259,36.556,322.525,36.157,322.792z M37.354,320.463c-0.199-0.332-0.266-0.599,0.133-0.799
				c0.399-0.267,0.932-0.267,1.397-0.066L37.354,320.463z"/>
		</g>
		<g>
			<path fill="#EF9D26" d="M49.13,317.735v2.728c0,3.726-5.522,6.719-12.374,6.719c-6.853,0-12.375-2.993-12.375-6.719v-2.728H49.13
				z"/>
			<path fill="#F9C32A" d="M41.812,326.649c1.064-0.266,2.062-0.598,2.993-0.998v-5.92h-2.993V326.649z"/>
			<path fill="#F9C32A" d="M46.269,324.786c0.931-0.598,1.664-1.329,2.129-2.062v-4.657h-2.129V324.786z"/>
			<path fill="#F9DC32" d="M24.381,317.735c0,3.726,5.522,6.719,12.375,6.719c6.852,0,12.374-2.993,12.374-6.719
				s-5.522-6.721-12.374-6.721C29.903,311.015,24.381,314.01,24.381,317.735z"/>
			<path fill="#F9C32A" d="M27.242,317.669c0,2.794,4.258,5.056,9.514,5.056c5.255,0,9.513-2.262,9.513-5.056
				s-4.258-5.057-9.513-5.057C31.5,312.612,27.242,314.875,27.242,317.669z"/>
			<path fill="#EF9D26" d="M40.947,315.605l0.865-0.531l-0.666-0.399l-0.865,0.532c-1.597-0.799-3.526-0.998-4.857-0.2
				c-1.663,0.999-0.598,1.996,0.267,2.861l-1.729,0.997c-0.267-0.265-0.2-0.598,0.199-0.863l-1.996-1.132
				c-1.331,0.865-1.064,1.93,0.333,2.861l-0.865,0.531l0.665,0.399l0.865-0.531c1.796,0.93,3.726,0.864,4.923,0.198
				c1.663-0.998,0.466-1.995-0.333-2.86l1.664-0.997c0.199,0.266,0.133,0.531-0.2,0.73l1.996,1.132
				C42.543,317.534,42.344,316.537,40.947,315.605z M36.157,319.199c-0.399,0.198-0.932,0.266-1.464,0.066l1.53-0.865
				C36.489,318.732,36.556,318.999,36.157,319.199z M37.354,316.937c-0.199-0.333-0.266-0.599,0.133-0.798
				c0.399-0.267,0.932-0.267,1.397-0.067L37.354,316.937z"/>
		</g>
	</g>
	<g>
		<g>
			<path fill="#EF9D26" d="M49.13,314.476v2.727c0,3.726-5.522,6.72-12.374,6.72c-6.853,0-12.375-2.994-12.375-6.72v-2.727H49.13z"
				/>
			<path fill="#F9C32A" d="M41.812,323.39c1.064-0.266,2.062-0.6,2.993-0.998v-5.92h-2.993V323.39z"/>
			<path fill="#F9C32A" d="M46.269,321.526c0.931-0.599,1.664-1.329,2.129-2.062v-4.657h-2.129V321.526z"/>
			<path fill="#F9DC32" d="M24.381,314.476c0,3.726,5.522,6.719,12.375,6.719c6.852,0,12.374-2.993,12.374-6.719
				s-5.522-6.719-12.374-6.719C29.903,307.757,24.381,310.75,24.381,314.476z"/>
			<path fill="#F9C32A" d="M27.242,314.408c0,2.794,4.258,5.057,9.514,5.057c5.255,0,9.513-2.263,9.513-5.057
				s-4.258-5.056-9.513-5.056C31.5,309.353,27.242,311.614,27.242,314.408z"/>
			<path fill="#EF9D26" d="M40.947,312.346l0.865-0.531l-0.666-0.399l-0.865,0.531c-1.597-0.797-3.526-0.997-4.857-0.198
				c-1.663,0.998-0.598,1.995,0.267,2.86l-1.729,0.997c-0.267-0.266-0.2-0.599,0.199-0.865l-1.996-1.129
				c-1.331,0.864-1.064,1.929,0.333,2.86l-0.865,0.531l0.665,0.399l0.865-0.532c1.796,0.931,3.726,0.865,4.923,0.2
				c1.663-0.999,0.466-1.996-0.333-2.861l1.664-0.997c0.199,0.265,0.133,0.531-0.2,0.731l1.996,1.131
				C42.543,314.276,42.344,313.277,40.947,312.346z M36.157,316.006c-0.399,0.199-0.932,0.265-1.464,0.065l1.53-0.864
				C36.489,315.474,36.556,315.739,36.157,316.006z M37.354,313.677c-0.199-0.332-0.266-0.599,0.133-0.799
				c0.399-0.266,0.932-0.266,1.397-0.066L37.354,313.677z"/>
		</g>
		<g>
			<path fill="#EF9D26" d="M49.13,310.949v2.728c0,3.726-5.522,6.72-12.374,6.72c-6.853,0-12.375-2.994-12.375-6.72v-2.728H49.13z"
				/>
			<path fill="#F9C32A" d="M41.812,319.864c1.064-0.267,2.062-0.599,2.993-0.999v-5.92h-2.993V319.864z"/>
			<path fill="#F9C32A" d="M46.269,318.002c0.931-0.6,1.664-1.331,2.129-2.063v-4.657h-2.129V318.002z"/>
			<path fill="#F9DC32" d="M24.381,310.949c0,3.726,5.522,6.72,12.375,6.72c6.852,0,12.374-2.994,12.374-6.72
				s-5.522-6.719-12.374-6.719C29.903,304.23,24.381,307.224,24.381,310.949z"/>
			<path fill="#F9C32A" d="M27.242,310.883c0,2.794,4.258,5.056,9.514,5.056c5.255,0,9.513-2.262,9.513-5.056
				s-4.258-5.057-9.513-5.057C31.5,305.826,27.242,308.089,27.242,310.883z"/>
			<path fill="#EF9D26" d="M40.947,308.819l0.865-0.531l-0.666-0.399l-0.865,0.532c-1.597-0.798-3.526-0.997-4.857-0.2
				c-1.663,0.999-0.598,1.997,0.267,2.861l-1.729,0.999c-0.267-0.267-0.2-0.599,0.199-0.865l-1.996-1.132
				c-1.331,0.865-1.064,1.93,0.333,2.861l-0.865,0.531l0.665,0.399l0.865-0.531c1.796,0.932,3.726,0.864,4.923,0.199
				c1.663-0.999,0.466-1.996-0.333-2.861l1.664-0.997c0.199,0.266,0.133,0.532-0.2,0.731l1.996,1.131
				C42.543,310.75,42.344,309.751,40.947,308.819z M36.157,312.479c-0.399,0.2-0.932,0.267-1.464,0.065l1.53-0.863
				C36.489,311.946,36.556,312.213,36.157,312.479z M37.354,310.15c-0.199-0.332-0.266-0.599,0.133-0.798
				c0.399-0.267,0.932-0.267,1.397-0.065L37.354,310.15z"/>
		</g>
	</g>
	<g>
		<g>
			<path fill="#EF9D26" d="M30.302,339.223v2.729c0,3.726-5.521,6.719-12.374,6.719s-12.375-2.993-12.375-6.719v-2.729H30.302z"/>
			<path fill="#F9C32A" d="M22.984,348.138c1.065-0.266,2.063-0.599,2.994-0.998v-5.921h-2.994V348.138z"/>
			<path fill="#F9C32A" d="M27.442,346.275c0.931-0.599,1.663-1.331,2.128-2.063v-4.656h-2.128V346.275z"/>
			<path fill="#F9DC32" d="M5.554,339.223c0,3.726,5.522,6.721,12.375,6.721s12.374-2.995,12.374-6.721s-5.521-6.719-12.374-6.719
				S5.554,335.497,5.554,339.223z"/>
			<path fill="#F9C32A" d="M8.415,339.157c0,2.794,4.258,5.056,9.514,5.056s9.514-2.262,9.514-5.056
				c0-2.795-4.258-5.057-9.514-5.057S8.415,336.362,8.415,339.157z"/>
			<path fill="#EF9D26" d="M22.12,337.095l0.865-0.533l-0.665-0.398l-0.866,0.532c-1.596-0.799-3.525-0.998-4.856-0.199
				c-1.664,0.997-0.599,1.996,0.266,2.86l-1.729,0.998c-0.266-0.267-0.2-0.599,0.199-0.865l-1.995-1.131
				c-1.331,0.864-1.064,1.929,0.333,2.86l-0.865,0.533l0.665,0.398l0.866-0.532c1.796,0.932,3.726,0.864,4.922,0.199
				c1.664-0.997,0.466-1.996-0.332-2.859l1.663-0.999c0.2,0.267,0.133,0.533-0.199,0.732l1.996,1.13
				C23.717,339.023,23.517,338.026,22.12,337.095z M17.33,340.688c-0.399,0.199-0.931,0.266-1.463,0.065l1.53-0.864
				C17.663,340.222,17.729,340.488,17.33,340.688z M18.527,338.425c-0.2-0.333-0.266-0.599,0.133-0.798
				c0.399-0.267,0.931-0.267,1.397-0.066L18.527,338.425z"/>
		</g>
		<g>
			<path fill="#EF9D26" d="M30.302,335.697v2.728c0,3.726-5.521,6.72-12.374,6.72s-12.375-2.994-12.375-6.72v-2.728H30.302z"/>
			<path fill="#F9C32A" d="M22.984,344.546c1.065-0.267,2.063-0.599,2.994-0.999v-5.92h-2.994V344.546z"/>
			<path fill="#F9C32A" d="M27.442,342.749c0.931-0.599,1.663-1.33,2.128-2.062v-4.657h-2.128V342.749z"/>
			<path fill="#F9DC32" d="M5.554,335.697c0,3.726,5.522,6.72,12.375,6.72s12.374-2.994,12.374-6.72c0-3.725-5.521-6.72-12.374-6.72
				C11.077,328.912,5.554,331.973,5.554,335.697z"/>
			<path fill="#F9C32A" d="M8.415,335.564c0,2.794,4.258,5.056,9.514,5.056s9.514-2.262,9.514-5.056s-4.258-5.057-9.514-5.057
				S8.415,332.771,8.415,335.564z"/>
			<path fill="#EF9D26" d="M22.12,333.568l0.865-0.531l-0.665-0.4l-0.866,0.532c-1.596-0.798-3.525-0.997-4.856-0.199
				c-1.664,0.998-0.599,1.996,0.266,2.861l-1.729,0.997c-0.266-0.267-0.2-0.599,0.199-0.865l-1.995-1.131
				c-1.331,0.865-1.064,1.931,0.333,2.861l-0.865,0.532l0.665,0.399l0.866-0.533c1.796,0.932,3.726,0.866,4.922,0.199
				c1.664-0.997,0.466-1.994-0.332-2.859l1.663-0.998c0.2,0.266,0.133,0.532-0.199,0.731l1.996,1.132
				C23.717,335.432,23.517,334.5,22.12,333.568z M17.33,337.161c-0.399,0.199-0.931,0.267-1.463,0.067l1.53-0.866
				C17.663,336.629,17.729,336.962,17.33,337.161z M18.527,334.832c-0.2-0.332-0.266-0.599,0.133-0.798
				c0.399-0.267,0.931-0.267,1.397-0.066L18.527,334.832z"/>
		</g>
		<g>
			<path fill="#EF9D26" d="M30.302,332.105v2.727c0,3.726-5.521,6.719-12.374,6.719s-12.375-2.993-12.375-6.719v-2.727H30.302z"/>
			<path fill="#F9C32A" d="M22.984,341.02c1.065-0.267,2.063-0.599,2.994-0.997v-5.922h-2.994V341.02z"/>
			<path fill="#F9C32A" d="M27.442,339.157c0.931-0.6,1.663-1.331,2.128-2.063v-4.657h-2.128V339.157z"/>
			<path fill="#F9DC32" d="M5.554,332.105c0,3.726,5.522,6.719,12.375,6.719s12.374-2.993,12.374-6.719s-5.521-6.72-12.374-6.72
				S5.554,328.446,5.554,332.105z"/>
			<path fill="#F9C32A" d="M8.415,332.038c0,2.794,4.258,5.057,9.514,5.057s9.514-2.263,9.514-5.057s-4.258-5.056-9.514-5.056
				S8.415,329.244,8.415,332.038z"/>
			<path fill="#EF9D26" d="M22.12,329.977l0.865-0.533l-0.665-0.398l-0.866,0.531c-1.596-0.798-3.525-0.997-4.856-0.199
				c-1.664,0.998-0.599,1.996,0.266,2.86l-1.729,0.999c-0.266-0.267-0.2-0.6,0.199-0.865l-1.995-1.131
				c-1.331,0.865-1.064,1.929,0.333,2.86l-0.865,0.532l0.665,0.398l0.866-0.531c1.796,0.932,3.726,0.865,4.922,0.199
				c1.664-0.997,0.466-1.996-0.332-2.86l1.663-0.998c0.2,0.266,0.133,0.532-0.199,0.731l1.996,1.131
				C23.717,331.905,23.517,330.907,22.12,329.977z M17.33,333.635c-0.399,0.2-0.931,0.267-1.463,0.067l1.53-0.866
				C17.663,333.103,17.729,333.369,17.33,333.635z M18.527,331.306c-0.2-0.332-0.266-0.598,0.133-0.798
				c0.399-0.265,0.931-0.265,1.397-0.065L18.527,331.306z"/>
		</g>
		<g>
			<path fill="#EF9D26" d="M30.302,328.579v2.727c0,3.726-5.521,6.721-12.374,6.721s-12.375-2.995-12.375-6.721v-2.727H30.302z"/>
			<path fill="#F9C32A" d="M22.984,337.493c1.065-0.265,2.063-0.599,2.994-0.997v-5.921h-2.994V337.493z"/>
			<path fill="#F9C32A" d="M27.442,335.631c0.931-0.6,1.663-1.33,2.128-2.063v-4.656h-2.128V335.631z"/>
			<path fill="#F9DC32" d="M5.554,328.579c0,3.726,5.522,6.719,12.375,6.719s12.374-2.993,12.374-6.719s-5.521-6.719-12.374-6.719
				S5.554,324.854,5.554,328.579z"/>
			<path fill="#F9C32A" d="M8.415,328.512c0,2.794,4.258,5.057,9.514,5.057s9.514-2.263,9.514-5.057s-4.258-5.055-9.514-5.055
				S8.415,325.718,8.415,328.512z"/>
			<path fill="#EF9D26" d="M22.12,326.45l0.865-0.532l-0.665-0.399l-0.866,0.533c-1.596-0.8-3.525-0.999-4.856-0.201
				c-1.664,0.999-0.599,1.996,0.266,2.862l-1.729,0.997c-0.266-0.267-0.2-0.599,0.199-0.864l-1.995-1.132
				c-1.331,0.865-1.064,1.93,0.333,2.861l-0.865,0.531l0.665,0.4l0.866-0.533c1.796,0.932,3.726,0.865,4.922,0.2
				c1.664-0.998,0.466-1.996-0.332-2.861l1.663-0.997c0.2,0.265,0.133,0.531-0.199,0.73l1.996,1.132
				C23.717,328.38,23.517,327.381,22.12,326.45z M17.33,330.109c-0.399,0.199-0.931,0.266-1.463,0.066l1.53-0.864
				C17.663,329.576,17.729,329.843,17.33,330.109z M18.527,327.781c-0.2-0.333-0.266-0.6,0.133-0.799
				c0.399-0.266,0.931-0.266,1.397-0.066L18.527,327.781z"/>
		</g>
	</g>
</g>
<g>
	<g>
		<g>
			<polygon fill="#BBCEE1" points="114.526,109.904 170.675,142.303 170.675,241.562 114.526,209.03 			"/>
			<polygon fill="#A7BCCE" points="170.675,142.303 172.804,140.972 172.804,240.231 170.675,241.562 			"/>
			<polygon fill="#FFFFFF" points="114.526,109.904 116.721,108.64 172.804,140.972 170.675,142.303 			"/>
		</g>
	</g>
	<polygon fill="#F4F7EE" points="118.983,117.821 166.218,145.031 166.218,233.711 118.983,206.302 	"/>
</g>
<g>
	<g>
		<g>
			<polygon fill="#BBCEE1" points="257.094,101.322 313.243,133.654 313.243,189.604 257.094,157.072 			"/>
			<polygon fill="#A7BCCE" points="313.243,133.654 315.438,132.324 315.438,188.273 313.243,189.604 			"/>
			<polygon fill="#FFFFFF" points="257.094,101.322 259.356,99.992 315.438,132.324 313.243,133.654 			"/>
		</g>
	</g>
	<polygon fill="#F4F7EE" points="261.552,109.172 308.785,136.449 308.785,181.753 261.552,154.345 	"/>
</g>
<g>
	<g>
		<g>
			<polygon fill="#BBCEE1" points="337.724,220.805 393.873,253.204 393.873,309.152 337.724,276.554 			"/>
			<polygon fill="#A7BCCE" points="393.873,253.204 396.002,251.873 396.002,307.822 393.873,309.152 			"/>
			<polygon fill="#FFFFFF" points="337.724,220.805 339.92,219.541 396.002,251.873 393.873,253.204 			"/>
		</g>
	</g>
	<polygon fill="#F4F7EE" points="342.183,228.722 389.416,255.998 389.416,301.303 342.183,273.827 	"/>
</g>
<linearGradient id="SVGID_2_" gradientUnits="userSpaceOnUse" x1="508.373" y1="109.5581" x2="520.1982" y2="109.5581" gradientTransform="matrix(0.512 0 0 -0.512 -136.9998 212.9)">
	<stop  offset="0" style="stop-color:#1C75BC"/>
	<stop  offset="0.2787" style="stop-color:#2077BC"/>
	<stop  offset="0.5411" style="stop-color:#2B7EBC"/>
	<stop  offset="0.7962" style="stop-color:#3E88BC"/>
	<stop  offset="1" style="stop-color:#5394BC"/>
</linearGradient>
<polygon fill="url(#SVGID_2_)" points="123.307,147.159 123.307,162.993 129.361,166.453 129.361,150.619 "/>
<polygon fill="#91A6B7" points="150.517,183.683 150.517,203.907 160.629,209.761 160.629,189.47 "/>
<polygon fill="#8444B2" points="131.091,147.958 131.091,167.517 137.146,170.976 137.146,151.417 "/>
<linearGradient id="SVGID_3_" gradientUnits="userSpaceOnUse" x1="538.9229" y1="101.8271" x2="550.7471" y2="101.8271" gradientTransform="matrix(0.512 0 0 -0.512 -136.9998 212.9)">
	<stop  offset="0" style="stop-color:#1C75BC"/>
	<stop  offset="0.2787" style="stop-color:#2077BC"/>
	<stop  offset="0.5411" style="stop-color:#2B7EBC"/>
	<stop  offset="0.7962" style="stop-color:#3E88BC"/>
	<stop  offset="1" style="stop-color:#5394BC"/>
</linearGradient>
<polygon fill="url(#SVGID_3_)" points="138.941,146.028 138.941,172.041 144.996,175.5 144.996,149.488 "/>
<polygon fill="#8444B2" points="146.725,153.879 146.725,176.564 152.779,180.091 152.779,157.338 "/>
<linearGradient id="SVGID_4_" gradientUnits="userSpaceOnUse" x1="569.4824" y1="91.2363" x2="581.3066" y2="91.2363" gradientTransform="matrix(0.512 0 0 -0.512 -136.9998 212.9)">
	<stop  offset="0" style="stop-color:#1C75BC"/>
	<stop  offset="0.2787" style="stop-color:#2077BC"/>
	<stop  offset="0.5411" style="stop-color:#2B7EBC"/>
	<stop  offset="0.7962" style="stop-color:#3E88BC"/>
	<stop  offset="1" style="stop-color:#5394BC"/>
</linearGradient>
<polygon fill="url(#SVGID_4_)" points="154.575,147.758 154.575,181.088 160.629,184.614 160.629,151.217 "/>
<g>
	<polygon fill="#F4F7EE" points="276.852,267.108 276.852,282.874 282.907,286.4 282.907,270.567 	"/>
	<polygon fill="#F4F7EE" points="284.702,267.906 284.702,287.466 290.757,290.925 290.757,271.365 	"/>
	<polygon fill="#F9AE40" points="292.554,265.977 292.554,291.989 298.54,295.448 298.54,269.436 	"/>
	<polygon fill="#F4F7EE" points="300.337,273.827 300.337,296.513 306.391,299.973 306.391,277.286 	"/>
	<polygon fill="#F4F7EE" points="308.187,267.707 308.187,301.036 314.241,304.563 314.241,271.166 	"/>
</g>
<g>
	<polygon fill="#F4F7EE" points="237.867,244.489 237.867,260.322 243.921,263.848 243.921,248.015 	"/>
	<polygon fill="#F4F7EE" points="245.651,245.287 245.651,264.846 251.705,268.372 251.705,248.813 	"/>
	<polygon fill="#F9AE40" points="253.501,243.424 253.501,269.369 259.556,272.896 259.556,246.883 	"/>
	<polygon fill="#F4F7EE" points="261.285,251.208 261.285,273.895 267.339,277.42 267.339,254.734 	"/>
	<polygon fill="#F9AE40" points="269.135,245.154 269.135,278.484 275.189,281.943 275.189,248.613 	"/>
</g>
<polygon fill="#91A6B7" points="144.663,136.449 123.307,124.141 123.307,127.268 144.663,139.642 "/>
<g>
	<polygon fill="#91A6B7" points="139.673,177.429 123.307,167.916 123.307,168.781 139.673,178.228 	"/>
	<polygon fill="#91A6B7" points="148.389,184.082 123.307,169.579 123.307,170.377 148.389,184.947 	"/>
	<polygon fill="#91A6B7" points="148.389,182.419 140.738,178.028 140.738,178.826 148.389,183.284 	"/>
	<polygon fill="#91A6B7" points="139.673,180.622 123.307,171.109 123.307,171.974 139.673,181.421 	"/>
	<polygon fill="#91A6B7" points="148.389,187.275 123.307,172.772 123.307,173.571 148.389,188.073 	"/>
	<polygon fill="#91A6B7" points="148.389,185.612 140.738,181.221 140.738,182.02 148.389,186.477 	"/>
</g>
<g>
	<polygon fill="#F4F7EE" points="206.4,176.298 190.035,166.785 190.035,167.649 206.4,177.097 	"/>
	<polygon fill="#F4F7EE" points="215.182,182.951 190.035,168.448 190.035,169.247 215.182,183.816 	"/>
	<polygon fill="#F4F7EE" points="215.182,181.354 207.531,176.897 207.531,177.762 215.182,182.152 	"/>
	<polygon fill="#F4F7EE" points="206.4,179.492 190.035,169.978 190.035,170.843 206.4,180.29 	"/>
	<polygon fill="#F4F7EE" points="215.182,186.145 190.035,171.642 190.035,172.44 215.182,187.009 	"/>
	<polygon fill="#F4F7EE" points="215.182,184.548 207.531,180.091 207.531,180.956 215.182,185.346 	"/>
</g>
<g>
	<polygon fill="#F4F7EE" points="206.4,184.748 190.035,175.234 190.035,176.099 206.4,185.546 	"/>
	<polygon fill="#F4F7EE" points="215.182,191.4 190.035,176.897 190.035,177.762 215.182,192.265 	"/>
	<polygon fill="#F4F7EE" points="215.182,189.804 207.531,185.346 207.531,186.21 215.182,190.602 	"/>
	<polygon fill="#F4F7EE" points="206.4,187.941 190.035,178.427 190.035,179.292 206.4,188.739 	"/>
	<polygon fill="#F4F7EE" points="215.182,194.593 190.035,180.091 190.035,180.889 215.182,195.458 	"/>
	<polygon fill="#F4F7EE" points="215.182,192.997 207.531,188.539 207.531,189.404 215.182,193.795 	"/>
</g>
<g>
	<polygon fill="#F4F7EE" points="206.4,193.196 190.035,183.75 190.035,184.548 206.4,194.062 	"/>
	<polygon fill="#F4F7EE" points="215.182,199.849 190.035,185.346 190.035,186.21 215.182,200.713 	"/>
	<polygon fill="#F4F7EE" points="215.182,198.252 207.531,193.795 207.531,194.66 215.182,199.051 	"/>
	<polygon fill="#F4F7EE" points="206.4,196.39 190.035,186.943 190.035,187.741 206.4,197.254 	"/>
	<polygon fill="#F4F7EE" points="215.182,203.042 190.035,188.539 190.035,189.404 215.182,203.907 	"/>
	<polygon fill="#F4F7EE" points="215.182,201.446 207.531,196.988 207.531,197.853 215.182,202.244 	"/>
</g>
<g>
	<polygon fill="#F4F7EE" points="206.4,201.645 190.035,192.199 190.035,192.997 206.4,202.51 	"/>
	<polygon fill="#F4F7EE" points="215.182,208.364 190.035,193.795 190.035,194.66 215.182,209.163 	"/>
	<polygon fill="#F4F7EE" points="215.182,206.701 207.531,202.244 207.531,203.108 215.182,207.566 	"/>
	<polygon fill="#F4F7EE" points="206.4,204.838 190.035,195.392 190.035,196.19 206.4,205.704 	"/>
	<polygon fill="#F4F7EE" points="215.182,211.558 190.035,196.988 190.035,197.853 215.182,212.355 	"/>
	<polygon fill="#F4F7EE" points="215.182,209.895 207.531,205.437 207.531,206.302 215.182,210.693 	"/>
</g>
<g>
	<polygon fill="#F4F7EE" points="206.4,210.094 190.035,200.647 190.035,201.446 206.4,210.958 	"/>
	<polygon fill="#F4F7EE" points="215.182,216.813 190.035,202.244 190.035,203.108 215.182,217.611 	"/>
	<polygon fill="#F4F7EE" points="215.182,215.15 207.531,210.759 207.531,211.558 215.182,216.015 	"/>
	<polygon fill="#F4F7EE" points="206.4,213.287 190.035,203.841 190.035,204.639 206.4,214.152 	"/>
	<polygon fill="#F4F7EE" points="215.182,220.007 190.035,205.437 190.035,206.302 215.182,220.805 	"/>
	<polygon fill="#F4F7EE" points="215.182,218.344 207.531,213.953 207.531,214.751 215.182,219.208 	"/>
</g>
<g>
	<polygon fill="#F4F7EE" points="206.4,218.543 190.035,209.096 190.035,209.895 206.4,219.408 	"/>
	<polygon fill="#F4F7EE" points="215.182,225.262 190.035,210.759 190.035,211.558 215.182,226.061 	"/>
	<polygon fill="#F4F7EE" points="215.182,223.599 207.531,219.208 207.531,220.007 215.182,224.464 	"/>
	<polygon fill="#F4F7EE" points="206.4,221.736 190.035,212.29 190.035,213.088 206.4,222.602 	"/>
	<polygon fill="#F4F7EE" points="215.182,228.456 190.035,213.886 190.035,214.751 215.182,229.254 	"/>
	<polygon fill="#F4F7EE" points="215.182,226.792 207.531,222.402 207.531,223.2 215.182,227.657 	"/>
</g>
<g>
	<polygon fill="#91A6B7" points="139.673,184.681 123.307,175.234 123.307,176.032 139.673,185.546 	"/>
	<polygon fill="#91A6B7" points="148.389,191.4 123.307,176.831 123.307,177.696 148.389,192.199 	"/>
	<polygon fill="#91A6B7" points="148.389,189.737 140.738,185.346 140.738,186.145 148.389,190.602 	"/>
	<polygon fill="#91A6B7" points="139.673,187.874 123.307,178.427 123.307,179.225 139.673,188.739 	"/>
	<polygon fill="#91A6B7" points="148.389,194.593 123.307,180.024 123.307,180.889 148.389,195.392 	"/>
	<polygon fill="#91A6B7" points="148.389,192.93 140.738,188.539 140.738,189.338 148.389,193.795 	"/>
</g>
<g>
	<polygon fill="#91A6B7" points="139.673,191.999 123.307,182.552 123.307,183.351 139.673,192.863 	"/>
	<polygon fill="#91A6B7" points="148.389,198.718 123.307,184.148 123.307,185.013 148.389,199.516 	"/>
	<polygon fill="#91A6B7" points="148.389,197.055 140.738,192.598 140.738,193.462 148.389,197.919 	"/>
	<polygon fill="#91A6B7" points="139.673,195.192 123.307,185.745 123.307,186.543 139.673,196.057 	"/>
	<polygon fill="#91A6B7" points="148.389,201.911 123.307,187.342 123.307,188.207 148.389,202.709 	"/>
	<polygon fill="#91A6B7" points="148.389,200.248 140.738,195.791 140.738,196.656 148.389,201.046 	"/>
</g>
<g>
	<g>
		<path fill="#F9AE40" d="M128.83,195.458c3.06,1.729,5.521,5.987,5.455,9.513c0,3.46-2.462,4.923-5.521,3.127
			c-3.061-1.73-5.522-5.988-5.456-9.514C123.307,195.125,125.769,193.728,128.83,195.458z"/>
	</g>
	<path fill="#8444B2" d="M128.83,195.458L128.83,195.458v6.32l3.326,6.918c1.331-0.399,2.196-1.729,2.196-3.792
		C134.285,201.512,131.823,197.254,128.83,195.458z"/>
</g>
<g>
	<g>
		<path fill="#F9AE40" d="M155.107,210.759c3.061,1.729,5.521,5.987,5.456,9.514c0,3.459-2.461,4.923-5.522,3.126
			c-3.06-1.729-5.521-5.987-5.455-9.513C149.652,210.427,152.114,209.03,155.107,210.759z"/>
	</g>
	<path fill="#8444B2" d="M155.107,210.759L155.107,210.759v6.32l3.326,6.919c1.331-0.4,2.195-1.73,2.195-3.792
		C160.629,216.813,158.168,212.556,155.107,210.759z"/>
</g>
<g>
	<g>
		<path fill="#F9AE40" d="M141.869,203.108c3.06,1.729,5.522,5.987,5.455,9.514c0,3.46-2.461,4.923-5.521,3.127
			c-3.061-1.73-5.521-5.988-5.455-9.513C136.413,202.709,138.875,201.313,141.869,203.108z"/>
	</g>
	<path fill="#8444B2" d="M141.869,203.108C141.869,203.042,141.869,203.042,141.869,203.108v6.653l-4.391,0.932
		c0.998,2.128,2.595,3.991,4.391,5.056c3.06,1.73,5.522,0.333,5.522-3.127C147.391,209.096,144.929,204.838,141.869,203.108z"/>
</g>
<g>
	<polygon fill="#BBCEE1" points="264.279,152.548 264.279,152.881 306.057,177.23 306.057,176.897 	"/>
	<polygon fill="#BBCEE1" points="264.279,148.756 264.279,149.089 306.057,173.438 306.057,173.039 	"/>
	<polygon fill="#BBCEE1" points="264.279,144.897 264.279,145.297 306.057,169.579 306.057,169.247 	"/>
	<polygon fill="#BBCEE1" points="264.279,141.105 264.279,141.504 306.057,165.787 306.057,165.455 	"/>
	<polygon fill="#BBCEE1" points="264.279,137.313 264.279,137.646 306.057,161.995 306.057,161.596 	"/>
	<polygon fill="#BBCEE1" points="264.279,133.455 264.279,133.854 306.057,158.203 306.057,157.804 	"/>
	<polygon fill="#BBCEE1" points="264.279,129.663 264.279,130.062 306.057,154.345 306.057,154.011 	"/>
	<polygon fill="#BBCEE1" points="264.279,126.07 264.279,152.548 264.612,152.748 264.612,126.27 	"/>
	<polygon fill="#BBCEE1" points="268.338,128.398 268.338,154.876 268.67,155.076 268.67,128.599 	"/>
	<polygon fill="#BBCEE1" points="272.328,130.793 272.328,157.271 272.662,157.404 272.662,130.927 	"/>
	<polygon fill="#BBCEE1" points="276.388,133.122 276.388,159.6 276.72,159.8 276.72,133.322 	"/>
	<polygon fill="#BBCEE1" points="280.378,135.451 280.378,161.928 280.711,162.128 280.711,135.65 	"/>
	<polygon fill="#BBCEE1" points="284.437,137.846 284.437,164.257 284.702,164.457 284.702,137.979 	"/>
	<polygon fill="#BBCEE1" points="288.428,140.174 288.428,166.652 288.761,166.852 288.761,140.374 	"/>
	<polygon fill="#BBCEE1" points="292.419,142.502 292.419,168.98 292.753,169.18 292.753,142.702 	"/>
	<polygon fill="#BBCEE1" points="296.479,144.831 296.479,171.309 296.811,171.508 296.811,145.031 	"/>
	<polygon fill="#BBCEE1" points="300.469,147.226 300.469,173.704 300.801,173.837 300.801,147.425 	"/>
	<polygon fill="#BBCEE1" points="304.526,149.554 304.526,176.032 304.86,176.232 304.86,149.753 	"/>
</g>
<g>
	<g>
		<path fill="#F9AE40" d="M267.073,141.504c1.197,0.732,2.195,2.395,2.195,3.792c0,1.397-0.998,1.996-2.195,1.264
			c-1.197-0.731-2.196-2.395-2.196-3.792C264.877,141.371,265.876,140.84,267.073,141.504z"/>
	</g>
	<g>
		<path fill="#F9AE40" d="M281.242,156.739c1.198,0.732,2.196,2.395,2.196,3.792c0,1.397-0.998,1.996-2.196,1.264
			c-1.196-0.732-2.195-2.395-2.195-3.792C278.981,156.606,279.979,156.007,281.242,156.739z"/>
	</g>
	<g>
		<path fill="#F9AE40" d="M292.086,141.97c1.198,0.732,2.195,2.395,2.195,3.792s-0.997,1.996-2.195,1.264
			c-1.196-0.732-2.195-2.396-2.195-3.792S290.89,141.305,292.086,141.97z"/>
	</g>
	<g>
		<path fill="#F9AE40" d="M302.931,137.912c1.197,0.731,2.195,2.395,2.195,3.792c0,1.397-0.998,1.996-2.195,1.264
			s-2.195-2.395-2.195-3.792C300.669,137.779,301.667,137.18,302.931,137.912z"/>
	</g>
	<polygon fill="#F9AE40" points="302.864,141.837 303.597,141.239 303.33,140.307 303.197,139.908 291.821,144.166 281.177,158.602 
		267.14,143.434 266.873,143.766 267.007,145.031 267.206,144.764 280.91,159.533 281.242,159.933 292.353,144.897 302.598,141.039 
			"/>
</g>
<g>
	<path fill="#91A6B7" d="M351.23,245.886c-2.795-1.597-4.99-0.333-5.057,2.86v1.264l10.046,5.788v-1.264
		C356.22,251.341,354.024,247.482,351.23,245.886z"/>
	<path fill="#91A6B7" d="M351.23,245.087c1.796,0.998,3.192,0.2,3.192-1.862c0-2.062-1.396-4.524-3.192-5.588
		c-1.797-0.998-3.194-0.199-3.261,1.863C347.903,241.562,349.434,244.089,351.23,245.087z"/>
</g>
<g>
	<path fill="#91A6B7" d="M351.23,268.172c-2.795-1.597-4.99-0.333-5.057,2.861v1.264l10.046,5.787v-1.264
		C356.22,273.694,354.024,269.77,351.23,268.172z"/>
	<path fill="#91A6B7" d="M351.23,267.375c1.796,0.997,3.192,0.197,3.192-1.863c0-2.063-1.396-4.524-3.192-5.521
		c-1.797-0.998-3.194-0.201-3.261,1.862C347.903,263.914,349.434,266.376,351.23,267.375z"/>
</g>
<g>
	<polygon fill="#91A6B7" points="377.108,251.807 360.743,242.359 360.743,243.158 377.108,252.671 	"/>
	<polygon fill="#91A6B7" points="385.824,258.525 360.743,243.957 360.743,244.821 385.824,259.325 	"/>
	<polygon fill="#91A6B7" points="385.824,256.863 378.174,252.472 378.174,253.271 385.824,257.728 	"/>
	<polygon fill="#91A6B7" points="377.108,255 360.743,245.553 360.743,246.352 377.108,255.865 	"/>
	<polygon fill="#91A6B7" points="385.824,261.72 360.743,247.15 360.743,248.015 385.824,262.518 	"/>
	<polygon fill="#91A6B7" points="385.824,260.056 378.174,255.599 378.174,256.463 385.824,260.921 	"/>
</g>
<g>
	<polygon fill="#91A6B7" points="377.108,260.256 360.743,250.809 360.743,251.607 377.108,261.12 	"/>
	<polygon fill="#91A6B7" points="385.824,266.975 360.743,252.406 360.743,253.271 385.824,267.773 	"/>
	<polygon fill="#91A6B7" points="385.824,265.312 378.174,260.921 378.174,261.72 385.824,266.177 	"/>
	<polygon fill="#91A6B7" points="377.108,263.449 360.743,254.002 360.743,254.801 377.108,264.314 	"/>
	<polygon fill="#91A6B7" points="385.824,270.169 360.743,255.599 360.743,256.463 385.824,270.966 	"/>
	<polygon fill="#91A6B7" points="385.824,268.504 378.174,264.113 378.174,264.913 385.824,269.369 	"/>
</g>
<g>
	<polygon fill="#91A6B7" points="377.108,268.771 360.743,259.258 360.743,260.122 377.108,269.57 	"/>
	<polygon fill="#91A6B7" points="385.824,275.424 360.743,260.921 360.743,261.72 385.824,276.222 	"/>
	<polygon fill="#91A6B7" points="385.824,273.76 378.174,269.369 378.174,270.169 385.824,274.625 	"/>
	<polygon fill="#91A6B7" points="377.108,271.897 360.743,262.451 360.743,263.25 377.108,272.763 	"/>
	<polygon fill="#91A6B7" points="385.824,278.617 360.743,264.113 360.743,264.913 385.824,279.415 	"/>
	<polygon fill="#91A6B7" points="385.824,276.954 378.174,272.563 378.174,273.361 385.824,277.818 	"/>
</g>
<g>
	<polygon fill="#91A6B7" points="377.108,277.221 360.743,267.707 360.743,268.571 377.108,278.019 	"/>
	<polygon fill="#91A6B7" points="385.824,283.873 360.743,269.369 360.743,270.169 385.824,284.737 	"/>
	<polygon fill="#91A6B7" points="385.824,282.276 378.174,277.818 378.174,278.617 385.824,283.073 	"/>
	<polygon fill="#91A6B7" points="377.108,280.414 360.743,270.899 360.743,271.766 377.108,281.211 	"/>
	<polygon fill="#91A6B7" points="385.824,287.065 360.743,272.563 360.743,273.361 385.824,287.931 	"/>
	<polygon fill="#91A6B7" points="385.824,285.403 378.174,281.012 378.174,281.81 385.824,286.268 	"/>
</g>
<g>
	<polygon fill="#91A6B7" points="377.108,285.669 360.743,276.155 360.743,277.021 377.108,286.467 	"/>
	<polygon fill="#91A6B7" points="385.824,292.321 360.743,277.818 360.743,278.617 385.824,293.187 	"/>
	<polygon fill="#91A6B7" points="385.824,290.726 378.174,286.268 378.174,287.132 385.824,291.523 	"/>
	<polygon fill="#91A6B7" points="377.108,288.862 360.743,279.349 360.743,280.214 377.108,289.66 	"/>
	<polygon fill="#91A6B7" points="385.824,295.514 360.743,281.012 360.743,281.81 385.824,296.38 	"/>
	<polygon fill="#91A6B7" points="385.824,293.918 378.174,289.461 378.174,290.325 385.824,294.717 	"/>
</g>
<g>
	<g>
		<path fill="#F4F7EE" d="M66.228,222.867c-2.329,1.331-4.258,4.59-4.191,7.318c0,2.662,1.929,3.792,4.257,2.395
			c2.329-1.331,4.258-4.59,4.191-7.318C70.485,222.602,68.556,221.47,66.228,222.867z"/>
	</g>
	<g>
		<path fill="#F4F7EE" d="M47.4,249.744c-2.329,1.331-4.258,4.591-4.191,7.318c0,2.661,1.929,3.793,4.258,2.395
			c2.329-1.33,4.258-4.59,4.191-7.318C51.591,249.478,49.729,248.414,47.4,249.744z"/>
	</g>
	<g>
		<path fill="#F4F7EE" d="M29.238,280.813c-2.329,1.33-4.258,4.591-4.191,7.317c0,2.661,1.929,3.793,4.258,2.395
			c2.328-1.329,4.257-4.589,4.191-7.316C33.496,280.546,31.567,279.482,29.238,280.813z"/>
	</g>
	<g>
		<path fill="#F4F7EE" d="M12.274,298.907c-2.329,1.331-4.258,4.591-4.191,7.319c0,2.66,1.929,3.791,4.258,2.394
			c2.329-1.331,4.258-4.589,4.191-7.317C16.532,298.642,14.602,297.577,12.274,298.907z"/>
	</g>
	<polygon fill="#F4F7EE" points="65.762,227.391 46.935,254.335 28.839,285.403 11.875,303.698 12.673,304.43 29.637,286.068 
		47.799,254.933 66.693,227.99 	"/>
</g>
<g>
	<g>
		<path fill="#F4F7EE" d="M195.091,157.67c-2.794-1.596-4.99-0.333-5.056,2.861v1.264l10.045,5.788v-1.264
			C200.08,163.192,197.818,159.267,195.091,157.67z"/>
		<path fill="#F4F7EE" d="M195.091,156.872c1.796,0.998,3.193,0.2,3.193-1.863c0-2.062-1.397-4.523-3.193-5.521
			c-1.796-0.998-3.193-0.2-3.193,1.863C191.831,153.413,193.294,155.874,195.091,156.872z"/>
	</g>
	<g>
		<path fill="#F9AE40" d="M207.332,164.855c-2.794-1.597-4.99-0.333-5.057,2.861v1.264l10.046,5.788v-1.264
			C212.321,170.311,210.126,166.453,207.332,164.855z"/>
		<path fill="#F9AE40" d="M207.332,163.991c1.796,0.998,3.193,0.199,3.26-1.863c0-2.063-1.397-4.523-3.194-5.588
			c-1.796-0.998-3.193-0.2-3.26,1.863C204.138,160.531,205.535,162.993,207.332,163.991z"/>
	</g>
	<g>
		<path fill="#F9AE40" d="M219.572,171.974c-2.794-1.597-4.989-0.333-5.056,2.861v1.264l10.046,5.788v-1.265
			C224.562,177.429,222.366,173.571,219.572,171.974z"/>
		<path fill="#F9AE40" d="M219.572,171.176c1.797,0.998,3.193,0.199,3.26-1.863c0-2.063-1.397-4.524-3.193-5.522
			c-1.796-0.998-3.193-0.199-3.26,1.863C216.379,167.649,217.843,170.111,219.572,171.176z"/>
	</g>
	<g>
		<path fill="#F4F7EE" d="M231.813,179.093c-2.794-1.597-4.989-0.333-5.056,2.861v1.264l10.045,5.788v-1.264
			C236.869,184.548,234.607,180.689,231.813,179.093z"/>
		<path fill="#F4F7EE" d="M231.813,178.294c1.796,0.998,3.193,0.2,3.26-1.863c0-2.062-1.397-4.524-3.193-5.521
			c-1.796-0.998-3.193-0.199-3.26,1.863C228.554,174.835,230.084,177.23,231.813,178.294z"/>
	</g>
	<g>
		<path fill="#F4F7EE" d="M244.121,186.21c-2.794-1.596-4.99-0.333-5.056,2.861v1.265l10.045,5.787v-1.264
			C249.11,191.666,246.849,187.808,244.121,186.21z"/>
		<path fill="#F4F7EE" d="M244.121,185.413c1.796,0.998,3.193,0.2,3.26-1.863c0-2.062-1.397-4.524-3.193-5.522
			c-1.796-0.998-3.194-0.2-3.26,1.863C240.861,181.887,242.325,184.348,244.121,185.413z"/>
	</g>
</g>
<path fill="#F4F7EE" d="M253.501,183.55v42.045l60.74,35.193v-42.179L253.501,183.55z M260.287,225.595l-2.528-1.463v-21.156
	l2.528,1.463V225.595z M263.414,227.391l-2.527-1.464v-19.093l2.527,1.464V227.391z M271.596,232.114l-2.527-1.463v-7.784
	l2.527,1.464V232.114z M274.723,233.911l-2.527-1.464v-10.377l2.527,1.463V233.911z M283.172,238.768l-2.527-1.464v-21.156
	l2.527,1.463V238.768z M286.232,240.563l-2.528-1.464v-19.093l2.528,1.463V240.563z M294.683,245.42l-2.529-1.397V218.81
	l2.529,1.463V245.42z M297.809,247.283l-2.528-1.464v-27.41l2.528,1.464V247.283z M306.258,252.139l-2.528-1.464v-24.814
	l2.528,1.463V252.139z M309.384,253.935l-2.527-1.463v-33.197l2.527,1.464V253.935z"/>
<g>
	<g>
		<path fill="#BBCEE1" d="M389.949,219.208c6.386-5.123,8.049-14.969,7.783-22.753c-0.599-18.893-10.911-37.255-24.216-50.427
			c-5.922-5.854-13.438-10.511-21.821-12.042c-4.523-0.865-9.18-0.865-13.238,1.53l7.384-4.258c0.399-0.266,0.864-0.466,1.331-0.666
			c0.132-0.066,0.333-0.132,0.465-0.199c4.857-2.129,10.645-1.664,15.568,0c4.989,1.597,9.779,4.457,13.837,7.651
			c0.134,0.066,0.267,0.199,0.398,0.266c0.267,0.2,0.467,0.399,0.733,0.599c14.968,12.374,25.746,31.933,27.209,51.426
			c0.665,9.313-1.064,20.956-9.979,26.078l-7.384,4.258c0.332-0.2,0.665-0.399,1.064-0.665c0.132-0.067,0.199-0.133,0.332-0.199
			C389.482,219.541,389.683,219.408,389.949,219.208z"/>
		<g>
			<path fill="#A030A0" d="M363.271,137.912c19.293,11.11,34.859,38.12,34.794,60.34c-0.067,22.153-15.768,31.134-35.06,19.958
				c-19.293-11.11-34.861-38.12-34.794-60.34C328.278,135.717,343.979,126.736,363.271,137.912z"/>
		</g>
		<g>
			<path fill="#F4F7FF" d="M363.205,148.889c14.037,8.117,25.346,27.742,25.28,43.841c-0.066,16.1-11.443,22.62-25.479,14.503
				c-14.038-8.116-25.348-27.742-25.282-43.842C337.791,147.292,349.234,140.773,363.205,148.889z"/>
		</g>
		<g>
			<path fill="#A030A0" d="M363.205,158.668c9.313,5.389,16.832,18.428,16.832,29.139s-7.586,15.035-16.899,9.646
				c-9.314-5.388-16.831-18.428-16.831-29.138C346.307,157.604,353.891,153.28,363.205,158.668z"/>
		</g>
		<g>
			<path fill="#F4F7FF" d="M363.138,166.852c5.389,3.126,9.713,10.644,9.713,16.832c0,6.187-4.39,8.648-9.779,5.588
				c-5.388-3.126-9.712-10.644-9.712-16.831C353.425,166.252,357.815,163.724,363.138,166.852z"/>
		</g>
		<g>
			<path fill="#A030A0" d="M363.138,173.77c2.063,1.197,3.726,4.058,3.726,6.387c0,2.328-1.663,3.326-3.726,2.129
				c-2.063-1.198-3.726-4.058-3.726-6.386C359.412,173.504,361.075,172.573,363.138,173.77z"/>
		</g>
	</g>
	<g>
		<polygon fill="#A030A0" points="314.106,214.086 315.438,207.167 303.263,214.086 302.532,220.672 		"/>
		<g>
			<g>
				<g>
					<path fill="#F9D732" d="M303.33,214.552c0.199-0.133,0.267-0.466,0.199-0.666c0-0.533-0.332-1.065-0.73-1.464
						c-0.201-0.199-0.4-0.333-0.665-0.333c-0.135,0-0.267,0-0.4,0.066l60.141-34.794c0,0,0,0,0.066,0l0,0
						c0.134-0.066,0.333-0.066,0.466,0c0.132,0.067,0.267,0.133,0.398,0.2l0,0l0,0c0.467,0.333,0.732,0.931,0.8,1.53
						c0,0.266,0,0.598-0.267,0.798L303.33,214.552C303.263,214.552,303.263,214.552,303.33,214.552L303.33,214.552L303.33,214.552z"
						/>
					<g>
						<path fill="#F9A532" d="M302.532,212.156c0.599,0.333,0.997,1.131,0.997,1.796c0,0.666-0.465,0.931-0.997,0.599
							c-0.6-0.333-0.998-1.131-0.998-1.796C301.534,212.09,301.999,211.824,302.532,212.156z"/>
					</g>
				</g>
			</g>
		</g>
		<polygon fill="#A030A0" points="314.906,205.437 308.918,201.246 296.743,208.231 303.397,212.023 		"/>
	</g>
	<g>
		<polygon fill="#A030A0" points="295.614,201.512 298.074,194.926 284.901,199.715 283.105,206.036 		"/>
		<g>
			<g>
				<g>
					<path fill="#F9D732" d="M284.901,200.115c0.201-0.133,0.333-0.4,0.333-0.599c0.067-0.532-0.132-1.131-0.465-1.597
						c-0.134-0.199-0.333-0.399-0.599-0.466c-0.135-0.066-0.267-0.066-0.399,0l65.13-24.149c0,0,0,0,0.066,0l0,0
						c0.133-0.067,0.333,0,0.466,0.066c0.133,0.067,0.266,0.2,0.332,0.266l0,0l0,0c0.399,0.465,0.599,1.064,0.533,1.597
						c0,0.266-0.134,0.599-0.4,0.731l-65.063,24.216C284.836,200.181,284.836,200.181,284.901,200.115
						C284.901,200.181,284.901,200.181,284.901,200.115L284.901,200.115z"/>
					<g>
						<path fill="#F9A532" d="M284.503,197.653c0.532,0.399,0.799,1.264,0.731,1.93c-0.132,0.665-0.599,0.798-1.131,0.399
							c-0.531-0.399-0.798-1.264-0.732-1.929C283.505,197.387,284.036,197.254,284.503,197.653z"/>
					</g>
				</g>
			</g>
		</g>
		<polygon fill="#A030A0" points="297.875,193.13 292.619,188.007 279.447,192.797 285.367,197.653 		"/>
	</g>
</g>
<path fill="#F4C5A2" d="M144.929,184.415c0,0,0.2-1.93,0.399-2.528c0.133-0.599,0.532-3.127,1.198-3.925
	c0.665-0.798,0.665,1.198,0.865,1.796c0.199,0.599,1.064,0.865,1.729,0.067c0.666-0.798,1.331-2.993,1.929-4.058
	c0.599-1.064,3.393,2.594,3.06,4.59c-0.333,1.996-1.13,3.459-2.661,4.79c-1.397,1.264-3.126,1.596-3.725,2.195L144.929,184.415z"/>
<path fill="#933E31" d="M107.208,280.214c0,0-0.267,0.798,3.126,0.931c3.393,0.201,6.919,0.201,7.385,2.396
	c0.465,2.195-2.661,4.788-6.32,5.321c-3.193,0.466-8.649,0.132-11.709-0.533c-0.532-0.132-0.931-0.332-0.998-0.863
	c-0.133-1.065-0.266-2.994,0.466-5.123C100.089,279.415,107.208,280.214,107.208,280.214z"/>
<path fill="#9D4D36" d="M116.455,282.675c0,0-0.266,0.799,3.127,0.932c3.393,0.199,6.919,0.199,7.385,2.396
	c0.466,2.195-2.129,3.924-5.854,4.457c-3.193,0.466-9.514,0.731-11.975,0.865c-0.533,0-0.932-0.333-0.998-0.865
	c-0.133-1.063-0.333-2.993-0.2-5.056C108.14,282.276,116.455,282.675,116.455,282.675z"/>
<path fill="#072944" d="M99.757,228.19c0,0-0.333,27.076-0.599,30.335c-0.266,3.261-0.998,23.219-0.998,23.219
	s5.655,2.859,10.046,0.865l2.528-51.426L99.757,228.19z"/>
<path fill="#07304B" d="M107.74,229.853v27.077c-0.266,7.916-0.666,28.74-0.666,28.74c6.453,0.73,10.578-2.796,10.578-2.796
	c-0.333-3.525,0-23.549,0-23.549c1.331-10.379,2.129-27.011,2.263-30.138c0-0.333,0-0.465,0-0.465L107.74,229.853z"/>
<path fill="#92278F" d="M95.898,189.936c0,0-4.125,12.907-3.26,19.759c0,0,3.326,2.861,7.119,4.657L95.898,189.936z"/>
<path fill="#FED4BD" d="M118.451,178.028c0,4.99-3.26,8.981-7.318,8.981c-4.058,0-7.251-4.059-7.251-8.981
	c0-4.989,3.26-8.981,7.317-8.981C115.191,169.047,118.451,173.039,118.451,178.028z"/>
<path fill="#A030A0" d="M105.877,184.947c0,0,5.255-0.333,9.38,2.528c0,0,0.333,0.865,1.131,1.397s6.918,2.861,6.918,2.861
	s-3.792,25.746-1.729,37.454c0,0-8.915,6.919-22.818,0c0,0-2.063-31.933-2.928-39.317
	C95.898,189.936,98.227,187.076,105.877,184.947z"/>
<path fill="#A030A0" d="M123.374,191.799l10.378,2.395l11.11-11.309c0,0,3.859,1.197,4.657,4.523l-13.238,15.036l-16.233-1.397
	C119.981,201.046,116.123,192.93,123.374,191.799z"/>
<path fill="#0B3B56" d="M113.794,168.581c0,0,5.721,1.064,5.721,5.854l-5.322,1.729c0,0,0.798,4.058-2.129,5.056
	c0,0-0.865,3.659-6.253,3.327c0,0-8.117-10.578,1.796-15.634C107.607,168.98,110.401,167.982,113.794,168.581z"/>
<g>
	<path fill="#933E31" d="M421.284,398.765c-3.262,0-2.197-2.462-2.197-2.462c-4.79-1.463-7.185-0.664-7.185-0.664
		c-1.197,4.258-0.731,6.852-0.731,7.851c0,0.531,0.332,0.798,0.799,0.997c2.594,0.999,4.922,1.597,9.778,1.131
		c3.526-0.333,7.319-3.658,6.454-6.985C427.669,396.504,424.542,398.699,421.284,398.765z"/>
	<path fill="#1B4E6B" d="M419.886,368.229c-0.932-1.264-2.594-2.261-5.256-1.596l-29.005,5.588l0.997,7.519
		c0,0,4.457,5.854,12.241,3.658c7.783-2.195,12.84-5.855,12.84-5.855l-0.998,20.558c0,0,4.523,1.397,8.581-1.064
		c0.667-0.398,1.331-20.224,1.53-25.346C420.883,370.292,420.751,369.36,419.886,368.229z"/>
	<path fill="#9D4D36" d="M435.188,404.686c-3.394,0-2.263-2.527-2.263-2.527c-4.989-1.53-7.451-0.665-7.451-0.665
		c-1.264,4.391-0.73,7.051-0.798,8.116c0,0.532,0.399,0.865,0.864,1.064c2.662,0.997,5.123,1.663,10.179,1.197
		c3.659-0.332,7.584-3.792,6.72-7.252C441.84,402.425,438.646,404.686,435.188,404.686z"/>
	<g>
		<polygon fill="#BBCEE1" points="402.189,396.504 377.309,382.134 377.309,385.659 402.189,400.028 		"/>
		<polygon fill="#FFFFFF" points="399.928,369.094 377.309,382.134 402.189,396.504 424.875,383.53 		"/>
		<polygon fill="#A7BCCE" points="424.875,383.465 402.189,396.504 402.189,400.028 424.875,386.856 		"/>
	</g>
	<path fill="#1F5E77" d="M433.724,373.019c-0.998-1.264-2.662-2.395-5.521-1.662l-30.137,5.787l1.131,7.718
		c0,0,4.589,6.12,12.706,3.792c8.049-2.329,13.305-6.055,13.305-6.055l-0.997,21.356c0,0,4.723,1.463,8.915-1.065
		c0.731-0.399,1.396-21.022,1.597-26.345C434.854,375.148,434.655,374.15,433.724,373.019z"/>
	<g>
		<g>
			<polygon fill="#BBCEE1" points="474.372,357.186 452.418,344.479 452.418,347.539 474.372,360.246 			"/>
			<polygon fill="#FFFFFF" points="472.376,333.037 452.418,344.479 474.372,357.186 494.396,345.677 			"/>
			<polygon fill="#A7BCCE" points="494.396,345.677 474.372,357.186 474.372,360.246 494.396,348.67 			"/>
		</g>
		<g>
			<polygon fill="#BBCEE1" points="496.192,320.529 474.239,307.822 469.914,334.434 491.936,347.14 			"/>
			<polygon fill="#FFFFFF" points="476.699,306.426 474.239,307.822 496.192,320.529 498.654,319.064 			"/>
			<polygon fill="#A7BCCE" points="498.654,319.064 496.192,320.529 491.936,347.14 494.396,345.677 			"/>
		</g>
	</g>
	<path fill="#1C75BC" d="M485.881,344.279l-1.598-2.661l-5.721,2.195c0,0,3.261,6.985,5.721,5.654
		C486.745,348.138,485.881,344.279,485.881,344.279z"/>
	<path fill="#2BA96C" d="M482.488,306.426l-10.911,0.332l-4.191,1.797c0,0-0.598,4.59-1.463,11.242
		c-0.932,6.653,0.531,24.216,0.531,24.216c4.125,2.063,20.092,1.931,20.092,1.931c1.064-8.383,2.13-35.261,2.13-35.261
		L482.488,306.426z"/>
	<path fill="#2BA96C" d="M474.372,306.691l-3.793,3.26c-1.663,9.646-1.463,28.474-1.331,36.457c1.397,0.199,2.995,0.398,4.591,0.466
		c0.4-20.024,6.985-39.052,7.519-40.448L474.372,306.691z"/>
	<g>
		<path fill="#FFFFFF" d="M387.155,343.215l44.439-25.813c1.863-1.064,4.191-1.064,6.12,0l69.986,40.516
			c1.797,0.997,1.797,3.592,0,4.656l-43.442,25.215c-2.261,1.33-4.989,1.33-7.25,0l-69.854-40.383
			C385.558,346.408,385.558,344.146,387.155,343.215z"/>
		<path fill="#A7BCCE" d="M387.155,347.34l69.854,40.382c2.261,1.264,4.989,1.264,7.25,0l43.442-25.215
			c0.865-0.531,1.331-1.396,1.331-2.327v4.789l0,0v0.067l0,0c0,0.864-0.466,1.729-1.331,2.261l-43.442,25.215
			c-2.261,1.33-4.989,1.33-7.25,0l-69.854-40.382c-0.8-0.466-1.198-1.265-1.198-2.063l0,0v-4.79
			C385.957,346.076,386.355,346.874,387.155,347.34z"/>
		<path fill="#BBCEE1" d="M387.155,347.34l69.854,40.382c0.997,0.599,2.195,0.932,3.325,0.932v4.79
			c-1.13-0.066-2.262-0.333-3.325-0.932l-69.854-40.382c-0.8-0.466-1.198-1.265-1.198-2.063l0,0v-4.79
			C385.957,346.076,386.355,346.874,387.155,347.34z"/>
	</g>
	<polygon fill="#1C75BC" points="473.174,311.149 469.714,312.545 471.045,306.758 472.908,305.494 	"/>
	<polygon fill="#F4C5A2" points="480.759,303.897 472.376,305.229 473.174,311.149 481.29,306.358 	"/>
	<path fill="#FED4BD" d="M482.82,298.442c0,4.59-3.327,8.315-7.451,8.315c-4.125,0-6.587-3.726-6.587-8.315
		c0-4.591,2.462-8.316,6.587-8.316C479.428,290.192,482.82,293.852,482.82,298.442z"/>
	<polygon fill="#1C75BC" points="481.489,305.161 473.174,311.149 476.833,314.675 482.488,306.426 	"/>
	<path fill="#F99840" d="M484.15,294.185c0,0-1.995-5.589-8.383-5.589c0,0-7.716,0-8.382,9.847c0,0.465,0.466,0.731,0.799,0.532
		c0.864-0.532,2.329-1.264,3.792-1.664l-0.332,0.665l0,0c0,0-0.134,0.399,0.664,0.333l3.992-0.932c0,0,0.333,2.063,2.993,3.393
		c0,0,0.333,3.461,1.53,3.992C480.892,304.762,485.813,301.036,484.15,294.185z"/>
	<g>
		<g>
			<polygon fill="#F0CEC9" points="413.1,357.318 413.1,357.918 439.245,343.016 439.245,342.55 			"/>
			<polygon fill="#F5DDD8" points="439.245,342.55 413.1,357.318 396.469,347.738 422.613,332.97 			"/>
			<polygon fill="#F5DDD8" points="413.1,357.318 413.1,357.918 396.469,348.337 396.469,347.738 			"/>
		</g>
		<polygon fill="#DFBAB8" points="422.413,334.5 432.46,340.287 431.993,340.554 421.948,334.767 		"/>
		<polygon fill="#DFBAB8" points="421.35,335.099 431.395,340.887 430.996,341.152 420.95,335.365 		"/>
		<polygon fill="#DFBAB8" points="418.954,336.496 432.793,344.479 432.326,344.745 418.489,336.763 		"/>
		<polygon fill="#DFBAB8" points="417.957,337.027 431.794,345.012 431.395,345.276 417.559,337.294 		"/>
		<polygon fill="#DFBAB8" points="417.025,337.561 430.862,345.543 430.397,345.81 416.56,337.826 		"/>
		<polygon fill="#DFBAB8" points="416.094,338.092 429.932,346.143 429.466,346.342 415.628,338.358 		"/>
		<polygon fill="#DFBAB8" points="415.097,338.691 428.933,346.674 428.534,346.874 414.697,338.891 		"/>
		<polygon fill="#DFBAB8" points="414.165,339.223 428.001,347.207 427.537,347.474 413.698,339.489 		"/>
		<polygon fill="#DFBAB8" points="413.167,339.756 427.004,347.738 426.605,348.005 412.767,340.022 		"/>
		<polygon fill="#DFBAB8" points="412.235,340.287 426.072,348.271 425.606,348.536 411.77,340.554 		"/>
		<polygon fill="#DFBAB8" points="411.304,340.82 425.142,348.803 424.676,349.069 410.838,341.086 		"/>
		<polygon fill="#DFBAB8" points="410.305,341.352 424.144,349.402 423.744,349.602 409.906,341.618 		"/>
		<polygon fill="#DFBAB8" points="409.374,341.951 423.213,349.935 422.745,350.134 408.909,342.15 		"/>
		<polygon fill="#DFBAB8" points="408.376,342.482 422.215,350.467 421.815,350.733 407.978,342.749 		"/>
		<polygon fill="#DFBAB8" points="407.445,343.016 421.284,350.998 420.816,351.265 406.979,343.282 		"/>
		<polygon fill="#DFBAB8" points="406.514,343.547 420.353,351.531 419.886,351.798 406.048,343.813 		"/>
		<polygon fill="#DFBAB8" points="405.517,344.08 419.354,352.063 418.954,352.329 405.116,344.346 		"/>
	</g>
	<path fill="#F4C5A2" d="M437.848,349.867c0,0,1.331-1.396,1.863-1.729c0.533-0.332,2.328-2.129,3.393-2.328
		c0.998-0.199-0.199,1.33-0.466,1.929c-0.199,0.533,0.267,1.331,1.331,1.132c1.063-0.2,2.927-1.53,4.059-1.996
		c1.131-0.466,1.063,4.191-0.466,5.521c-1.53,1.331-3.061,1.996-5.057,2.063c-1.862,0.065-3.459-0.732-4.257-0.6L437.848,349.867z"
		/>
	<path fill="#4BE288" d="M386.09,337.561c0,0-4.124,12.906-3.259,19.758c0,0,3.325,2.861,7.118,4.657L386.09,337.561z"/>
	<path fill="#FED4BD" d="M410.173,326.85c-0.467,4.922-4.125,8.647-8.115,8.249c-3.992-0.399-6.854-4.724-6.388-9.646
		s4.125-8.648,8.115-8.25C407.777,317.602,410.705,321.927,410.173,326.85z"/>
	<path fill="#F99840" d="M396.667,331.106c0,0,2.462,0.665,5.456-0.931c0,0,1.863-1.198,2.927-3.593c0,0,2.196,0.932,2.861-0.932
		c0.666-1.862,3.393-1.796,3.526-3.459c0,0-0.732-8.183-9.515-6.719C401.99,315.474,389.615,318.002,396.667,331.106z"/>
	<path fill="#2BCA73" d="M396.136,332.571c0,0,5.255-0.334,9.381,2.527c0,0,0.332,0.864,1.13,1.397c0.799,0.531,6.92,2.86,6.92,2.86
		s-3.793,23.352-1.73,35.06c0,0-8.914,6.919-22.818,0c0,0-2.063-29.538-2.928-36.923
		C386.09,337.561,388.419,334.699,396.136,332.571z"/>
	<path fill="#4BE288" d="M413.566,339.423l10.377,11.311l14.77-2.795c0,0,1.73,3.925,1.197,6.72l-18.028,4.39l-11.709-10.444
		C410.239,348.67,406.381,340.554,413.566,339.423z"/>
	<g>
		<polygon fill="#BBCEE1" points="393.807,372.288 368.926,357.851 377.309,382.134 402.189,396.504 		"/>
		<polygon fill="#FFFFFF" points="371.654,356.254 368.926,357.851 393.807,372.288 396.601,370.624 		"/>
		<polygon fill="#A7BCCE" points="396.601,370.624 393.807,372.288 402.189,396.504 405.05,394.906 		"/>
	</g>
	<path fill="#F99840" d="M398.796,330.575h-2.195c-4.989,5.787-1.264,10.91-1.264,10.91
		C400.593,337.693,398.796,330.575,398.796,330.575z"/>
	<path fill="#F4C5A2" d="M444.102,336.763c0,0-1.995,0.199-2.594,0.398c-0.666,0.199-3.194,0.532-4.059,1.197
		c-0.865,0.665,1.264,0.665,1.796,0.864c0.599,0.2-0.732,0.8-1.597,1.465c-0.865,0.664-1.396,1.264-1.797,2.859
		c-0.332,1.198,3.66,4.191,4.657,2.396c0.999-1.73,0.999-1.73,2.794-2.661c2.063-1.132,3.26-2.529,3.859-3.061L444.102,336.763z"/>
	<path fill="#1C75BC" d="M465.856,319.797c0.932-6.652,1.463-11.242,1.463-11.242l-10.444,18.96l-14.637,8.914l3.461,5.456
		l16.765-9.248l3.059-4.457C465.522,324.92,465.59,321.793,465.856,319.797z"/>
	<path fill="#F4C5A2" d="M473.905,325.319c0,0-1.264-1.53-1.796-1.93c-0.532-0.466-2.262-2.329-3.26-2.661s0.134,1.397,0.333,1.996
		s-1.064-0.199-2.13-0.466c-1.064-0.332-1.795-0.466-3.393,0.133c-1.196,0.398-1.397,5.39,0.599,5.188
		c1.996-0.132,1.996-0.132,3.793,0.8c2.128,1.063,3.858,1.264,4.723,1.529L473.905,325.319z"/>
	<path fill="#1C75BC" d="M488.608,310.616c0,0,4.058,0.932,4.457,7.386l-3.26,13.172c-0.199,1.929-2.062,3.192-3.925,2.728
		l-14.171-4.124l1.264-5.789l10.911,2.462l1.464-9.048C485.349,317.469,485.016,311.946,488.608,310.616z"/>
	<g>
		<g>
			<path fill="#FFFFFF" d="M438.713,365.834l16.3-9.446c0.466-0.267,0.997-0.267,1.463,0l23.685,13.638
				c0.398,0.267,0.398,0.865,0,1.131l-16.101,9.313c-0.531,0.333-1.197,0.333-1.729,0l-23.617-13.638
				C438.313,366.633,438.313,366.101,438.713,365.834z"/>
			<path fill="#BBCEE1" d="M438.713,366.832l23.617,13.638c0.532,0.333,1.198,0.333,1.729,0l16.101-9.313
				c0.199-0.134,0.332-0.333,0.332-0.532v1.131l0,0l0,0l0,0c0,0.199-0.133,0.399-0.332,0.533l-16.101,9.313
				c-0.531,0.333-1.197,0.333-1.729,0l-23.617-13.638c-0.2-0.134-0.266-0.333-0.266-0.533l0,0V366.3
				C438.381,366.566,438.513,366.766,438.713,366.832z"/>
		</g>
		<g>
			<path fill="#A7BCCE" d="M481.091,348.404l-24.216-13.971c-0.133-0.067-0.332-0.067-0.466,0l0,0l-0.599,0.333l0.466,0.665
				l0.199,0.199v19.359c0,0.267,0.133,0.533,0.399,0.665l23.019,13.306l0.065,0.199l0.732,0.998l0.665-0.399l0,0l0,0l0,0
				c0.133-0.065,0.2-0.199,0.2-0.332v-20.291C481.489,348.87,481.357,348.536,481.091,348.404z"/>
			<path fill="#BBCEE1" d="M480.425,348.803l-24.282-14.036c-0.266-0.134-0.531,0.065-0.531,0.332v20.425
				c0,0.265,0.132,0.531,0.398,0.665l24.283,14.036c0.266,0.133,0.531-0.066,0.531-0.332v-20.357
				C480.824,349.203,480.691,348.937,480.425,348.803z"/>
		</g>
		
			<linearGradient id="SVGID_5_" gradientUnits="userSpaceOnUse" x1="1022.084" y1="-293.7041" x2="980.2822" y2="-230.7766" gradientTransform="matrix(-0.512 0 0 -0.512 984.0847 212.9)">
			<stop  offset="0" style="stop-color:#1C75BC"/>
			<stop  offset="0.2787" style="stop-color:#2077BC"/>
			<stop  offset="0.5411" style="stop-color:#2B7EBC"/>
			<stop  offset="0.7962" style="stop-color:#3E88BC"/>
			<stop  offset="1" style="stop-color:#5394BC"/>
		</linearGradient>
		<polygon fill="url(#SVGID_5_)" points="480.026,350.066 456.209,336.229 456.209,354.392 480.026,368.229 		"/>
		<g>
			<polygon fill="#BBCEE1" points="454.479,358.716 455.678,358.051 457.074,358.849 455.877,359.514 			"/>
			<polygon fill="#BBCEE1" points="456.209,359.714 457.407,359.048 458.738,359.78 457.54,360.513 			"/>
			<polygon fill="#BBCEE1" points="457.873,360.712 459.07,359.979 460.468,360.777 459.27,361.51 			"/>
			<polygon fill="#BBCEE1" points="459.603,361.709 460.8,360.979 462.197,361.776 460.999,362.441 			"/>
			<polygon fill="#BBCEE1" points="461.332,362.641 462.529,361.976 463.86,362.773 462.663,363.439 			"/>
			<polygon fill="#BBCEE1" points="462.995,363.639 464.193,362.975 465.59,363.705 464.393,364.438 			"/>
			<polygon fill="#BBCEE1" points="464.725,364.637 465.923,363.905 467.254,364.704 466.056,365.435 			"/>
			<polygon fill="#BBCEE1" points="466.389,365.567 467.586,364.903 468.983,365.701 467.785,366.366 			"/>
			<polygon fill="#BBCEE1" points="468.118,366.566 469.315,365.9 470.646,366.699 469.449,367.364 			"/>
			<polygon fill="#BBCEE1" points="469.848,367.563 471.045,366.832 472.376,367.631 471.179,368.362 			"/>
			<polygon fill="#BBCEE1" points="471.511,368.563 472.709,367.83 474.105,368.628 472.908,369.293 			"/>
			<polygon fill="#BBCEE1" points="473.24,369.494 474.438,368.827 475.768,369.626 474.571,370.292 			"/>
			<polygon fill="#BBCEE1" points="476.102,369.826 477.499,370.557 476.301,371.289 474.904,370.491 			"/>
			<polygon fill="#BBCEE1" points="454.28,360.445 452.949,359.647 454.147,358.915 455.479,359.714 			"/>
			<polygon fill="#BBCEE1" points="457.208,360.712 456.01,361.377 454.68,360.645 455.877,359.913 			"/>
			<polygon fill="#BBCEE1" points="458.938,361.709 457.739,362.375 456.342,361.577 457.54,360.911 			"/>
			<polygon fill="#BBCEE1" points="460.601,362.641 459.403,363.373 458.072,362.574 459.27,361.909 			"/>
			<polygon fill="#BBCEE1" points="462.33,363.639 461.133,364.371 459.735,363.572 460.934,362.841 			"/>
			<polygon fill="#BBCEE1" points="463.994,364.637 462.796,365.303 461.465,364.57 462.663,363.838 			"/>
			<polygon fill="#BBCEE1" points="465.724,365.635 464.525,366.3 463.129,365.502 464.326,364.837 			"/>
			<polygon fill="#BBCEE1" points="467.453,366.566 466.255,367.297 464.857,366.499 466.056,365.834 			"/>
			<polygon fill="#BBCEE1" points="469.116,367.563 467.919,368.296 466.588,367.498 467.785,366.766 			"/>
			<polygon fill="#BBCEE1" points="470.846,368.563 469.648,369.228 468.251,368.429 469.449,367.763 			"/>
			<polygon fill="#BBCEE1" points="472.508,369.56 471.312,370.225 469.98,369.427 471.179,368.762 			"/>
			<polygon fill="#BBCEE1" points="474.239,370.491 473.041,371.224 471.645,370.425 472.842,369.693 			"/>
			<polygon fill="#BBCEE1" points="474.571,370.69 475.901,371.488 474.705,372.154 473.373,371.423 			"/>
			<polygon fill="#BBCEE1" points="452.75,361.311 451.42,360.513 452.617,359.847 453.948,360.645 			"/>
			<polygon fill="#BBCEE1" points="455.678,361.643 454.479,362.308 453.082,361.51 454.28,360.845 			"/>
			<polygon fill="#BBCEE1" points="454.813,362.507 456.01,361.776 457.341,362.574 456.143,363.307 			"/>
			<polygon fill="#BBCEE1" points="459.07,363.572 457.873,364.238 456.476,363.506 457.674,362.773 			"/>
			<polygon fill="#BBCEE1" points="460.734,364.57 459.536,365.235 458.205,364.438 459.403,363.772 			"/>
			<polygon fill="#BBCEE1" points="462.464,365.502 461.266,366.234 459.868,365.435 461.133,364.77 			"/>
			<polygon fill="#BBCEE1" points="464.193,366.499 462.995,367.231 461.598,366.434 462.796,365.701 			"/>
			<polygon fill="#BBCEE1" points="465.856,367.498 464.658,368.163 463.328,367.431 464.525,366.699 			"/>
			<polygon fill="#BBCEE1" points="467.586,368.495 466.389,369.16 464.991,368.362 466.189,367.697 			"/>
			<polygon fill="#BBCEE1" points="469.248,369.427 468.052,370.158 466.721,369.36 467.919,368.628 			"/>
			<polygon fill="#BBCEE1" points="470.979,370.425 469.781,371.09 468.384,370.357 469.582,369.626 			"/>
			<polygon fill="#BBCEE1" points="470.113,371.289 471.312,370.624 472.642,371.423 471.511,372.088 			"/>
			<polygon fill="#BBCEE1" points="473.041,371.622 474.372,372.354 473.174,373.086 471.844,372.288 			"/>
			<polygon fill="#BBCEE1" points="451.22,362.242 449.822,361.443 451.021,360.712 452.418,361.51 			"/>
			<polygon fill="#BBCEE1" points="451.552,362.441 452.75,361.709 454.081,362.507 452.883,363.174 			"/>
			<polygon fill="#BBCEE1" points="453.216,363.373 454.414,362.708 455.811,363.506 454.613,364.171 			"/>
			<polygon fill="#BBCEE1" points="454.945,364.371 456.143,363.705 457.54,364.503 456.342,365.169 			"/>
			<polygon fill="#BBCEE1" points="456.675,365.368 457.873,364.637 459.204,365.435 458.006,366.167 			"/>
			<polygon fill="#BBCEE1" points="458.338,366.366 459.536,365.635 460.934,366.434 459.735,367.098 			"/>
			<polygon fill="#BBCEE1" points="460.067,367.297 461.266,366.633 462.597,367.431 461.398,368.097 			"/>
			<polygon fill="#BBCEE1" points="461.731,368.296 462.93,367.631 464.326,368.362 463.129,369.094 			"/>
			<polygon fill="#BBCEE1" points="463.461,369.293 464.658,368.563 465.988,369.36 464.792,370.092 			"/>
			<polygon fill="#BBCEE1" points="465.124,370.225 466.322,369.56 467.72,370.357 466.521,371.022 			"/>
			<polygon fill="#BBCEE1" points="466.854,371.224 468.052,370.557 469.449,371.356 468.251,372.021 			"/>
			<polygon fill="#BBCEE1" points="468.583,372.221 469.781,371.488 471.111,372.288 469.914,373.019 			"/>
			<polygon fill="#BBCEE1" points="471.445,372.487 472.842,373.285 471.645,373.95 470.247,373.22 			"/>
			<polygon fill="#BBCEE1" points="449.623,363.106 448.292,362.308 449.49,361.643 450.821,362.441 			"/>
			<polygon fill="#BBCEE1" points="449.956,363.307 451.22,362.641 452.551,363.439 451.353,364.104 			"/>
			<polygon fill="#BBCEE1" points="451.686,364.304 452.883,363.572 454.28,364.371 453.082,365.103 			"/>
			<polygon fill="#BBCEE1" points="453.415,365.303 454.613,364.57 455.943,365.368 454.746,366.033 			"/>
			<polygon fill="#BBCEE1" points="455.078,366.234 456.276,365.567 457.674,366.366 456.476,367.032 			"/>
			<polygon fill="#BBCEE1" points="456.808,367.231 458.006,366.566 459.337,367.297 458.139,368.029 			"/>
			<polygon fill="#BBCEE1" points="458.472,368.229 459.669,367.498 461.066,368.296 459.868,369.028 			"/>
			<polygon fill="#BBCEE1" points="460.201,369.228 461.398,368.495 462.796,369.293 461.598,369.959 			"/>
			<polygon fill="#BBCEE1" points="461.931,370.158 463.129,369.494 464.459,370.292 463.262,370.957 			"/>
			<polygon fill="#BBCEE1" points="463.594,371.156 464.792,370.491 466.189,371.224 464.991,371.954 			"/>
			<polygon fill="#BBCEE1" points="465.323,372.154 466.521,371.423 467.852,372.221 466.654,372.953 			"/>
			<polygon fill="#BBCEE1" points="466.987,373.086 468.185,372.42 469.582,373.22 468.384,373.884 			"/>
			<polygon fill="#BBCEE1" points="469.914,373.419 471.244,374.217 470.048,374.882 468.717,374.083 			"/>
			<polygon fill="#BBCEE1" points="447.96,362.574 449.291,363.307 448.093,364.037 446.764,363.239 			"/>
			<polygon fill="#BBCEE1" points="451.021,364.304 449.822,365.036 448.426,364.238 449.623,363.506 			"/>
			<polygon fill="#BBCEE1" points="452.684,365.303 451.486,365.968 450.155,365.169 451.353,364.503 			"/>
			<polygon fill="#BBCEE1" points="454.414,366.3 453.216,366.965 451.818,366.167 453.017,365.502 			"/>
			<polygon fill="#BBCEE1" points="456.077,367.231 454.879,367.964 453.548,367.165 454.746,366.434 			"/>
			<polygon fill="#BBCEE1" points="457.807,368.229 456.608,368.895 455.212,368.163 456.409,367.431 			"/>
			<polygon fill="#BBCEE1" points="458.139,368.429 459.868,369.427 459.868,369.427 460.201,369.626 461.532,370.357 
				461.532,370.357 462.263,370.758 463.262,371.356 463.262,371.356 464.326,371.954 466.322,373.152 465.124,373.817 
				463.063,372.62 462.063,372.088 462.063,372.088 460.999,371.488 460.334,371.09 460.334,371.09 459.003,370.292 
				458.671,370.092 458.671,370.092 456.941,369.094 			"/>
			<polygon fill="#BBCEE1" points="467.984,374.083 466.788,374.815 465.457,374.018 466.654,373.285 			"/>
			<polygon fill="#BBCEE1" points="469.714,375.082 468.518,375.747 467.12,375.015 468.384,374.282 			"/>
		</g>
		<path fill="#BBCEE1" d="M448.493,370.69l4.257-2.462c0.133-0.065,0.267-0.065,0.332,0l5.921,3.461
			c0.134,0.065,0.134,0.199,0,0.265l-4.19,2.462c-0.133,0.067-0.266,0.067-0.466,0l-5.921-3.394
			C448.359,370.891,448.359,370.758,448.493,370.69z"/>
	</g>
	<path fill="#F4F7EE" d="M474.571,348.803c-0.798-0.466-1.464-0.065-1.464,0.799c0,0.399,0.133,0.931,0.399,1.331l-5.787,5.521
		c-0.201-0.266-0.466-0.532-0.732-0.666c-0.399-0.265-0.798-0.265-1.064-0.065l-3.127-4.126c0-0.133,0.066-0.266,0.066-0.398
		c0-0.931-0.665-1.995-1.397-2.461c-0.798-0.466-1.463-0.067-1.463,0.798c0,0.932,0.665,1.996,1.396,2.462
		c0.333,0.199,0.665,0.267,0.932,0.133l3.26,4.258c0,0.066,0,0.133,0,0.199c0,0.931,0.665,1.995,1.397,2.461
		c0.798,0.466,1.463,0.067,1.463-0.798c0-0.398-0.133-0.798-0.266-1.198l5.788-5.521c0.199,0.199,0.398,0.398,0.599,0.531
		c0.798,0.466,1.463,0.067,1.463-0.798S475.369,349.269,474.571,348.803z"/>
</g>
<g>
	<polygon fill="#F9AE40" points="219.572,183.55 219.572,185.612 240.928,197.986 240.928,195.857 	"/>
	<polygon fill="#F9AE40" points="219.572,189.071 240.928,201.446 240.928,199.383 219.572,187.009 	"/>
	<polygon fill="#F9AE40" points="219.572,192.598 240.928,204.971 240.928,202.909 219.572,190.535 	"/>
	<polygon fill="#F9AE40" points="219.572,196.057 240.928,208.431 240.928,206.368 219.572,193.995 	"/>
	<polygon fill="#F9AE40" points="219.572,199.583 240.928,211.957 240.928,209.895 219.572,197.521 	"/>
	<polygon fill="#F9AE40" points="219.572,203.108 240.928,215.417 240.928,213.354 219.572,200.98 	"/>
	<polygon fill="#F9AE40" points="219.572,206.568 240.928,218.942 240.928,216.88 219.572,204.506 	"/>
	<polygon fill="#F9AE40" points="219.572,210.094 240.928,222.468 240.928,220.339 219.572,208.032 	"/>
	<polygon fill="#F9AE40" points="219.572,213.554 240.928,225.927 240.928,223.865 219.572,211.491 	"/>
</g>
</svg>
